<?xml version="1.0" encoding="UTF-8"?><svg id="a" xmlns="http://www.w3.org/2000/svg" viewBox="0 0 716 716"><defs><style>.b{fill:none;}.b,.c,.d{stroke-width:0px;}.d{fill:#f08b71;}</style></defs><path class="c" d="m154.42712,425.21784c13.21812,0,22.05294-5.88208,22.05294-24.2426v-13.02545c-3.56126,8.21512-14.38985,16.8246-29.72159,16.8246-16.68829,0-41.35119-9.06669-41.35119-45.95119,0-28.09558,17.44384-45.77088,41.35119-45.77088,15.50639,0,25.92746,8.82613,30.09121,17.18671v-15.01631h23.2607v82.85788c0,29.40571-18.80815,43.41942-47.62876,43.41942-28.46613,0-42.4385-13.08222-45.04441-28.58417h23.44551c2.56412,7.81714,10.7972,12.30198,23.54441,12.30198Zm-1.39107-37.44911c15.34173,0,24.36807-11.45624,24.36807-29.18369v-1.75194c0-17.37275-11.12219-26.95618-24.36807-26.95618-14.93175,0-23.99844,11.32998-23.99844,28.94628,0,8.92654,2.15163,15.98243,6.46089,21.16617,4.30626,5.18749,10.15261,7.77936,17.53755,7.77936Z"/><rect class="c" x="221.45536" y="280.93945" width="25.10431" height="22.61461"/><rect class="c" x="222.1931" y="315.22273" width="23.62882" height="91.90388"/><path class="c" d="m381.72123,389.7556c4.20133-.00433,8.69869-.74662,12.36884-1.80905v17.72913c-5.02373,1.62838-10.87466,2.71357-18.64492,2.71357-19.91251,0-29.16715-8.37702-29.16715-26.59407v-50.11245h-16.81429v-16.6443h16.81429v-22.97597h23.44401v22.97597h20.39264v16.6443h-20.57595v46.49435c0,9.30367,5.07486,11.58584,12.18253,11.57851Z"/><path class="c" d="m472.39497,377.63392h21.78371c-3.9271,19.48546-18.90076,30.75533-42.27524,30.75533-15.2242,0-26.11101-4.28368-34.31978-12.9582-7.86936-8.31585-13.12267-19.85242-13.12267-34.98384,0-29.23086,19.42181-48.3034,46.88952-48.3034,18.33846,0,32.31084,9.17544,38.59841,23.26425,3.71394,8.32198,5.27702,18.10993,4.7842,30.4663h-67.38105c0,8.56903,1.44672,11.9991,4.78615,16.86512,3.05646,4.45369,10.30421,8.39628,19.76523,8.39628,5.82169,0,10.43375-1.37351,13.41916-3.50595,3.05646-2.18318,5.4143-5.4143,7.07237-9.99589Zm-21.53741-48.3034c-12.25713,0-21.80492,7.35834-22.76625,21.52828h44.12035c-.00773-12.94736-8.65123-21.52828-21.3541-21.52828Z"/><path class="c" d="m572.97021,377.63392h21.78371c-3.9271,19.48546-18.90076,30.75533-42.27524,30.75533-15.2242,0-26.11101-4.28368-34.31978-12.9582-7.86936-8.31585-13.12267-19.85242-13.12267-34.98384,0-29.23086,19.42181-48.3034,46.88952-48.3034,18.33846,0,32.31084,9.17544,38.59841,23.26425,3.71394,8.32198,5.27702,18.10993,4.7842,30.4663h-67.38105c0,8.56903,1.44672,11.9991,4.78615,16.86512,3.05646,4.45369,10.30421,8.39628,19.76523,8.39628,5.82169,0,10.43375-1.37351,13.41916-3.50595,3.05646-2.18318,5.4143-5.4143,7.07237-9.99589Zm-21.53741-48.3034c-12.25713,0-21.80492,7.35834-22.76625,21.52828h44.12035c-.00773-12.94736-8.65123-21.52828-21.3541-21.52828Z"/><path class="c" d="m277.75371,303.03698c0-18.73724,11.25478-28.69951,30.39889-28.53501,3.04946.0262,4.99244.02095,7.19094.1387,2.1985.12073,4.02822.25989,6.36075.75858v17.40838c-1.34444-.23848-2.7783-.38679-4.30458-.44864-1.52628-.05888-3.08386-.09018-4.66827-.09018-3.9096,0-6.80864.98746-8.6986,2.96164-1.89592,1.97418-2.83942,4.93507-2.83942,8.88342v10.92536l16.65644-.00077v16.64428h-16.65644v75.44379h-23.43971v-75.44379h-16.12874v-16.64428h16.12874v-12.00148Z"/><polygon class="b" points="716 525 358 525 0 525 0 358 0 191 358 191 716 191 716 358 716 525"/><path class="d" d="m653.33093,303.73669c-5.06184,1.67686-18.32909,6.02144-21.72104,6.9472,1.23887-5.29954,2.69443-16.7961,2.89995-21.22451-1.00608-.7348-3.4645-1.17374-6.07161-1.17374s-5.06553.43894-6.07161,1.17374c.20552,4.42841,1.66108,15.92497,2.89995,21.22451-3.39195-.92576-16.6592-5.27034-21.72104-6.9472-1.02142,1.75131-1.61997,8.01443-1.2584,10.0518,4.56898,1.70993,16.35295,3.78368,21.11094,4.25964-5.56213,3.9262-13.42079,10.80232-17.25821,15.87802,2.96018,2.09146,8.00434,5.47495,11.92773,7.96779,2.29834-5.66206,8.35635-15.88885,10.37064-18.70035,2.01429,2.81149,8.0723,13.03829,10.37064,18.70035,3.92338-2.49284,8.96755-5.87632,11.92773-7.96779-3.83743-5.0757-11.69608-11.95182-17.25821-15.87802,4.758-.47597,16.54196-2.54972,21.11094-4.25964.36157-2.03737-.23696-8.30049-1.2584-10.0518Z"/></svg>