<?xml version="1.0" encoding="UTF-8"?>
<svg id="_レイヤー_1" data-name="レイヤー 1" xmlns="http://www.w3.org/2000/svg" viewBox="0 0 1080 530">
  <defs>
    <style>
      .cls-1 {
        fill: #0087ae;
      }

      .cls-2 {
        fill: #333;
      }
    </style>
  </defs>
  <g>
    <path class="cls-1" d="M260.88,196.36c-.01-.11-.02-.23-.04-.34,0-.09-.02-.18-.03-.27-.04-.31-.09-.62-.14-.93-.03-.18-.06-.35-.1-.52-1.92-9.39-10.23-16.46-20.19-16.46-.6,0-1.19.02-1.77.08h-80.28c-11.34,0-20.53,9.19-20.53,20.53v58.7c0,11.34,9.19,20.53,20.53,20.53s20.53-9.19,20.53-20.53v-55.14c0-11.34,9.19-20.53,20.53-20.53,5.67,0,10.8,2.3,14.52,6.01,3.38,3.38,5.59,7.93,5.96,13,0,0,0,0,0,.01.02.22.05.43.07.64,0,0,0,0,0,0,1.32,10.1,9.96,17.9,20.43,17.9,11.38,0,20.6-9.22,20.61-20.61h0c0-.71-.04-1.41-.11-2.1Z"/>
    <path class="cls-1" d="M112.75,306.48c.01.11.02.23.04.34,0,.09.02.18.03.27.04.31.09.62.14.93.03.18.06.35.1.52,1.92,9.39,10.23,16.46,20.19,16.46.6,0,1.19-.02,1.77-.08h80.28c11.34,0,20.53-9.19,20.53-20.53v-58.7c0-11.34-9.19-20.53-20.53-20.53s-20.53,9.19-20.53,20.53v55.14c0,11.34-9.19,20.53-20.53,20.53-5.67,0-10.8-2.3-14.52-6.01-3.38-3.38-5.59-7.93-5.96-13,0,0,0,0,0-.01-.02-.22-.05-.43-.07-.64,0,0,0,0,0,0-1.32-10.1-9.96-17.9-20.43-17.9-11.38,0-20.6,9.22-20.61,20.61h0c0,.71.04,1.41.11,2.1Z"/>
  </g>
  <g>
    <path class="cls-2" d="M285.82,324.99v-21.73h46.09c2.05,0,3.9-.49,5.55-1.47,1.64-.97,2.93-2.29,3.85-3.92.93-1.65,1.39-3.45,1.39-5.4,0-2.05-.49-3.9-1.47-5.55-.98-1.64-2.26-2.98-3.85-4-1.59-1.03-3.42-1.54-5.47-1.54h-16.65c-6.27,0-11.95-1.24-17.03-3.7-5.09-2.46-9.18-6.09-12.25-10.87-3.08-4.77-4.63-10.5-4.63-17.18s1.44-12.31,4.32-17.19c2.88-4.87,6.76-8.65,11.64-11.33,4.88-2.66,10.3-4,16.26-4h49.22v21.73h-46.14c-1.85,0-3.54.43-5.08,1.32-1.54.87-2.73,2.07-3.55,3.62-.83,1.54-1.23,3.18-1.23,4.93,0,1.95.41,3.67,1.23,5.16.82,1.49,2.01,2.68,3.55,3.55,1.54.87,3.24,1.3,5.08,1.3h17.42c6.88,0,12.87,1.32,17.96,3.94,5.08,2.62,9.02,6.3,11.79,11.02,2.77,4.73,4.16,10.28,4.16,16.65,0,7.3-1.44,13.57-4.32,18.81-2.88,5.24-6.78,9.2-11.71,11.86-4.93,2.68-10.38,4.01-16.34,4.01h-49.79Z"/>
    <path class="cls-2" d="M378.36,265.49v-19.58h58.73v19.58h-58.73ZM414.58,324.99c-7.3,0-13-2.09-17.11-6.24s-6.17-9.79-6.17-16.88v-75.22h24.05v73.84c0,1.23.44,2.29,1.31,3.16.88.88,1.93,1.32,3.16,1.32h17.27v20.04h-22.51Z"/>
    <path class="cls-2" d="M490.48,324.99c-8.12,0-15.42-1.81-21.89-5.4-6.47-3.6-11.61-8.53-15.42-14.8-3.8-6.27-5.7-13.36-5.7-21.28s1.9-14.82,5.7-21.04c3.8-6.21,8.96-11.12,15.49-14.72,6.52-3.6,13.79-5.4,21.81-5.4s15.39,1.8,21.81,5.4c6.42,3.6,11.51,8.51,15.26,14.72,3.75,6.22,5.63,13.28,5.63,21.2s-1.87,14.85-5.63,21.12-8.84,11.2-15.26,14.8c-6.42,3.59-13.69,5.4-21.81,5.4ZM490.32,304.17c3.8,0,7.11-.93,9.95-2.77,2.82-1.85,5.01-4.33,6.55-7.4,1.54-3.08,2.31-6.58,2.31-10.48s-.77-7.25-2.31-10.33c-1.54-3.09-3.73-5.55-6.55-7.4-2.83-1.85-6.14-2.78-9.95-2.78s-6.96.93-9.78,2.78c-2.83,1.85-5.01,4.32-6.55,7.4-1.54,3.08-2.31,6.52-2.31,10.33s.77,7.4,2.31,10.48c1.54,3.08,3.72,5.55,6.55,7.4,2.82,1.84,6.09,2.77,9.78,2.77Z"/>
    <path class="cls-2" d="M543.55,324.99v-55.81c0-7.19,2.05-12.83,6.17-16.95,4.11-4.11,9.81-6.17,17.1-6.17h23.13v19.42h-17.11c-1.44,0-2.68.49-3.7,1.46-1.03.98-1.54,2.23-1.54,3.78v54.26h-24.05Z"/>
    <path class="cls-2" d="M627.76,352.15v-34.54c-5.85-1.33-10.82-3.65-14.87-6.94-4.06-3.29-7.16-7.27-9.33-11.94-2.16-4.67-3.23-9.73-3.23-15.19v-37.49h23.89v36.87c0,2.68.67,5.18,2.01,7.55,1.33,2.36,3.16,4.24,5.47,5.63,2.31,1.38,4.96,2.07,7.94,2.07s5.47-.71,7.78-2.15c2.31-1.44,4.14-3.31,5.47-5.63,1.33-2.31,2-4.79,2-7.47v-36.87h23.9v37.49c0,5.34-1.08,10.36-3.24,15.03-2.16,4.67-5.24,8.65-9.25,11.94-4.01,3.29-8.89,5.61-14.64,6.94v34.69h-23.9Z"/>
    <path class="cls-2" d="M689.17,324.99v-107.9h25.9v42.39h42.08v-42.39h25.9v107.9h-25.9v-43.93h-42.08v43.93h-25.9Z"/>
    <path class="cls-2" d="M832.88,324.99c-8.12,0-15.13-1.59-21.04-4.78-5.91-3.18-10.45-7.43-13.64-12.71-3.18-5.3-4.78-11.28-4.78-17.96v-45.47h23.9v44.86c0,2.78.66,5.32,2,7.63,1.34,2.31,3.18,4.16,5.55,5.55,2.36,1.38,4.98,2.07,7.86,2.07s5.47-.69,7.78-2.07c2.31-1.39,4.14-3.24,5.47-5.55,1.34-2.31,2.01-4.85,2.01-7.63v-44.86h24.05v45.47c0,6.68-1.57,12.67-4.7,17.96-3.14,5.29-7.63,9.53-13.49,12.71-5.85,3.19-12.85,4.78-20.96,4.78Z"/>
    <path class="cls-2" d="M924.96,324.99c-8.53,0-15.98-1.72-22.35-5.15-6.37-3.44-11.33-8.31-14.87-14.62s-5.32-13.77-5.32-22.35v-65.77h24.05v36.82h.46c1.54-2.12,3.47-3.96,5.78-5.53,2.31-1.57,4.88-2.75,7.7-3.56s5.83-1.22,9.02-1.22c7.4,0,13.95,1.7,19.65,5.08,5.7,3.39,10.17,7.98,13.41,13.79,3.24,5.81,4.86,12.61,4.86,20.39,0,6.26-.98,11.95-2.93,17.05-1.96,5.1-4.73,9.55-8.32,13.33-3.6,3.79-8.02,6.7-13.26,8.72-5.24,2.02-11.2,3.04-17.88,3.04ZM924.96,304.83c3.7,0,6.91-.91,9.63-2.73,2.72-1.82,4.8-4.26,6.24-7.34,1.44-3.08,2.16-6.54,2.16-10.38s-.75-7.25-2.24-10.23c-1.49-2.98-3.57-5.38-6.24-7.2-2.67-1.82-5.86-2.73-9.56-2.73s-6.91.91-9.63,2.73c-2.73,1.82-4.83,4.22-6.32,7.2-1.49,2.98-2.24,6.39-2.24,10.23s.75,7.3,2.24,10.38c1.49,3.08,3.6,5.53,6.32,7.34,2.72,1.82,5.93,2.73,9.63,2.73Z"/>
  </g>
</svg>