<?xml version="1.0" encoding="UTF-8"?>
<svg id="contents" xmlns="http://www.w3.org/2000/svg" viewBox="0 0 235.83 57.45">
  <defs>
    <style>
      .cls-1 {
        fill: #0984e3;
      }

      .cls-2 {
        fill: #004d94;
      }
    </style>
  </defs>
  <g>
    <polygon class="cls-1" points="43.42 19.88 29.62 49.13 27.57 49.13 8.31 8.31 19.2 8.31 28.58 28.19 37.96 8.31 48.87 8.31 58.25 28.19 67.63 8.31 78.52 8.31 59.27 49.13 57.22 49.13 43.42 19.88"/>
    <polygon class="cls-2" points="23.15 39.76 37.98 8.31 43.42 19.88 29.62 49.13 27.57 49.13 23.15 39.76"/>
  </g>
  <g>
    <path class="cls-1" d="M130.88,28.25c0,6.67-.38,7.84-4.27,10.06l2.54,3.38c5.71-3.23,5.94-7.09,5.94-13.44v-10.02h-4.21v10.02Z"/>
    <path class="cls-1" d="M147.72,28.31c-.71,4.5-2.7,6.88-5.22,8.08v-18.17h-4.21v23.4c7.81-.63,11.87-4.39,13.66-12.46l-4.22-.85Z"/>
    <path class="cls-1" d="M167.22,30.08c2.6-3.72,3.99-7.12,4.68-11.5h-17.68v3.91h12.36c-2.76,6.57-7.81,12.31-14.08,15.57l2.14,3.63c3.63-1.86,7.23-4.82,10.07-8.2,2.37,2.13,5.18,5.08,7.57,8.22l3.38-2.52c-2.42-3.21-5.75-6.77-8.45-9.11Z"/>
    <path class="cls-1" d="M191.47,17.01h-4.23v5.96h-10.15v3.91h10.15v1.05c0,2.01-.22,4.17-1.84,6.19-1.06,1.32-3.32,2.52-7.21,3.55l1.43,3.98c6.28-1.71,11.82-4.56,11.82-13.58,0-.29,0-1.2,0-1.2h8.29v-3.91h-8.3l.03-5.96Z"/>
    <polygon class="cls-1" points="118.21 29.06 123.5 29.06 123.5 25.74 109.14 25.74 109.14 29.06 114.42 29.06 114.42 37.59 108.32 37.59 108.32 40.91 124.31 40.91 124.31 37.59 118.21 37.59 118.21 29.06"/>
    <path class="cls-1" d="M97.01,16.58h-4.21v3.95h-8.74v9.44h4.21v-5.53h13.21c-.06,8.43-3.49,11.28-10.53,13.31l1.42,3.91c9.36-2.4,13.33-8,13.33-17.29v-3.84h-8.68v-3.95Z"/>
    <path class="cls-1" d="M209.12,37c-1.13,0-2.13-.76-2.13-2.15v-5.19l12.9-3.87-1.13-3.74-11.77,3.54v-7.91h-4.21v17.39c0,3.22,2.62,5.85,5.85,5.85h12.72v-3.91h-12.23Z"/>
    <path class="cls-1" d="M221.73,17.82l-2.39.72c.6,1.21,1.5,4.02,1.85,5.27l2.41-.72c-.24-.87-1.31-4.16-1.86-5.26Z"/>
    <path class="cls-1" d="M225.66,16.64l-2.39.72c.6,1.21,1.5,4.02,1.85,5.27l2.41-.72c-.24-.87-1.31-4.16-1.86-5.26Z"/>
  </g>
</svg>