<?xml version="1.0" encoding="UTF-8"?>
<svg id="_レイヤー_2" data-name="レイヤー 2" xmlns="http://www.w3.org/2000/svg" viewBox="0 0 491.96 161.46">
  <defs>
    <style>
      .cls-1 {
        fill: #144bda;
      }
    </style>
  </defs>
  <g id="_レイヤー_1-2" data-name="レイヤー 1">
    <g>
      <path class="cls-1" d="M0,140.53c0-57.27,68.31-63.94,68.31-93.61,0-11.04-6.9-19.09-20.47-19.09-11.5,0-20.01,3.45-24.84,5.29-4.83,2.07-10.81,1.84-13.34-3.68l-3.45-7.59c-2.53-5.75,0-11.27,5.52-13.8C19.09,4.83,32.43,0,49.45,0c29.9,0,52.21,18.86,52.21,46.92,0,43.47-66.01,58.65-66.01,84.64h55.43c6.21,0,10.35,4.14,10.35,10.35v6.21c0,6.21-4.14,10.35-10.35,10.35H10.35c-6.21,0-10.35-4.14-10.35-10.35v-7.59Z"/>
      <path class="cls-1" d="M123.74,63.48C123.74,20.01,149.27,0,181,0s57.27,20.01,57.27,63.48v34.27c0,43.7-26.22,63.71-57.27,63.71s-57.27-20.01-57.27-63.71v-34.27ZM205.61,97.75v-34.27c0-26.45-10.58-35.65-24.61-35.65s-24.61,9.2-24.61,35.65v34.27c0,26.45,10.58,35.88,24.61,35.88s24.61-9.43,24.61-35.88Z"/>
      <path class="cls-1" d="M258.05,140.53c0-57.27,68.31-63.94,68.31-93.61,0-11.04-6.9-19.09-20.47-19.09-11.5,0-20.01,3.45-24.84,5.29-4.83,2.07-10.81,1.84-13.34-3.68l-3.45-7.59c-2.53-5.75,0-11.27,5.52-13.8,7.36-3.22,20.7-8.05,37.72-8.05,29.9,0,52.21,18.86,52.21,46.92,0,43.47-66.01,58.65-66.01,84.64h55.43c6.21,0,10.35,4.14,10.35,10.35v6.21c0,6.21-4.14,10.35-10.35,10.35h-80.73c-6.21,0-10.35-4.14-10.35-10.35v-7.59Z"/>
      <path class="cls-1" d="M381.79,58.65c0-31.74,20.01-58.65,57.5-58.65,11.27,0,20.93,1.84,29.67,4.14,5.75,1.61,8.05,7.13,6.44,13.11l-1.84,6.9c-1.61,6.21-7.36,8.05-13.11,6.44-6.21-1.61-13.11-2.76-21.16-2.76-13.8,0-24.61,10.81-24.61,26.91v5.29c8.74-6.9,17.48-9.2,26.68-9.2,29.67,0,50.6,20.24,50.6,55.66s-25.53,54.97-55.2,54.97-54.97-19.32-54.97-53.13v-49.68ZM436.53,133.63c14.72,0,22.08-12.19,22.08-27.14,0-17.71-5.75-30.82-22.08-30.82-7.82,0-15.18,2.53-22.08,9.2v23.69c0,13.34,7.59,25.07,22.08,25.07Z"/>
    </g>
  </g>
</svg>