<?xml version="1.0" encoding="UTF-8"?>
<svg id="a" data-name="レイヤー 1" xmlns="http://www.w3.org/2000/svg" xmlns:xlink="http://www.w3.org/1999/xlink" viewBox="0 0 1502.71 539.04">
  <defs>
    <style>
      .f {
        fill: url(#b);
      }

      .g {
        fill: #6fadcd;
      }

      .h {
        fill: #009fe8;
      }

      .i {
        fill: #fff000;
      }

      .j {
        fill: #b3d1de;
      }

      .k {
        fill: #009844;
      }

      .l, .m {
        fill: #144bda;
      }

      .n {
        fill: #fff;
      }

      .o {
        fill: url(#d);
      }

      .o, .p, .m {
        fill-rule: evenodd;
      }

      .p {
        fill: url(#e);
      }

      .q {
        fill: #e5368c;
      }

      .r {
        fill: #95b1dc;
      }

      .s {
        fill: #07328f;
      }

      .t {
        fill: #1249d8;
      }

      .u {
        fill: #fdfdfd;
      }
    </style>
    <linearGradient id="b" data-name="名称未設定グラデーション 77" x1="1224.13" y1="150.1" x2="1224.13" y2="539.04" gradientUnits="userSpaceOnUse">
      <stop offset="0" stop-color="#95b1dc"/>
      <stop offset=".38" stop-color="#95b1dc" stop-opacity=".99"/>
      <stop offset=".52" stop-color="#95b1dc" stop-opacity=".96"/>
      <stop offset=".62" stop-color="#95b1dc" stop-opacity=".91"/>
      <stop offset=".7" stop-color="#95b1dc" stop-opacity=".83"/>
      <stop offset=".77" stop-color="#95b1dc" stop-opacity=".73"/>
      <stop offset=".83" stop-color="#95b1dc" stop-opacity=".61"/>
      <stop offset=".88" stop-color="#95b1dc" stop-opacity=".46"/>
      <stop offset=".93" stop-color="#95b1dc" stop-opacity=".29"/>
      <stop offset=".98" stop-color="#95b1dc" stop-opacity=".1"/>
      <stop offset="1" stop-color="#95b1dc" stop-opacity="0"/>
    </linearGradient>
    <linearGradient id="d" data-name="名称未設定グラデーション 3" x1="321.23" y1="341.79" x2="360.44" y2="222.98" gradientTransform="translate(0 540.08) scale(1 -1)" gradientUnits="userSpaceOnUse">
      <stop offset=".07" stop-color="#96b8fd"/>
      <stop offset=".37" stop-color="#1249d8"/>
      <stop offset=".69" stop-color="#1249d8"/>
      <stop offset="1" stop-color="#3de8ff"/>
    </linearGradient>
    <linearGradient id="e" data-name="名称未設定グラデーション 2" x1="190.61" y1="311.15" x2="326.06" y2="296.1" gradientTransform="translate(0 540.08) scale(1 -1)" gradientUnits="userSpaceOnUse">
      <stop offset=".06" stop-color="#63d0ff"/>
      <stop offset=".47" stop-color="#1249d8"/>
      <stop offset=".68" stop-color="#1249d8"/>
      <stop offset=".95" stop-color="#ff86b9"/>
    </linearGradient>
  </defs>
  <g>
    <path class="u" d="M1500,239.52v299.52H0V233.76c.24-.93.82-1.69,1.74-2.28,23.7-24.86,49.23-46.71,77.69-65.68,34.29-22.85,75.21-42.74,113.9-56.09,41.84-14.44,85.43-24.5,129.75-27.78,3.83-.8,7.47-1.28,11.39-.8l6.92-.9c9.49.08,18.98-.08,28.47-.47,4.62-1.04,9.38-.94,14.3.29l24.24.18c4.29.65,8.41,1.14,12.77.7,4.26.67,8.36,1.29,12.67,1.06,7.29,1.24,14.66,2.03,22.11,2.36,141.07,18.28,273.59,71.13,402.99,128.16,43.27,19.31,86.67,38.4,130.19,57.28,78.84,32.36,162.38,65.77,248.32,73.61,3.47-.09,6.9.24,10.31.97,6.09-.39,12.07,0,17.95,1.17h19.88s5.31-1.04,5.31-1.04c52.54-1.26,104.9-17.39,147.52-48.27,11.69-8.74,22.86-17.96,33.46-28.1,4.35-4.16,8.71-8.34,12.27-13.21,4.39-4.02,8.4-8.4,12.03-13.14,1.17-1.61,2.44-2.37,3.81-2.27Z"/>
    <path class="j" d="M750.24,0l5.62,1.66c37.99,14.66,74.89,32.63,111.19,51.08,7.41,4.34,14.96,8.46,22.67,12.35,47.92,27.12,95.11,55.32,141.56,84.61,22.08,13.57,44.33,26.87,67.1,39.8,48.62,27.59,100.65,53.33,156.94,59.17,3.63-.11,7.24.21,10.82.98,6.31.48,12.45.16,18.42-.98,36.66-.99,70.59-17.51,100.5-37.98,19.1-13.07,36.46-29.75,52.77-46.2,22.22-23.5,41.91-49.12,61.03-75.03l1.15.31v149.76c-1.57,1.52-3.33,2.91-4.76,4.8-.92,1.21-1.57,2.54-2.66,3.61l-7.69,7.61-3.1,4.07-8.43,8.45c-1.74,1.74-3.63,2.98-5.41,4.66l-8.36,7.94c-1.19,1.13-2.7,1.71-3.85,2.91-1,1.05-1.86,2.35-3.15,3.07-1.88,1.03-3.24,2.47-4.9,3.74l-8.69,6.62-12.48,8.33c-2.9,1.94-5.78,3.72-8.82,5.43l-6.46,3.65-11.51,5.84c-2.09,1.06-4.09,1.88-6.24,2.79l-7.1,2.99-7.38,2.83c-4.32,1.66-10.9,3.93-15.34,5.14l-13.22,3.62-11.06,2.36c-3.83.82-7.58,1.44-11.46,2.04l-7.57,1.17c-2.59.4-5.06.88-7.67,1.02l-6.31.33c-3.02.16-5.82.95-8.93.85-10.59-.34-8.65,1.11-12.44,1.11h-19.3c-1.79,0-3.33-.64-5.01-.97-3.47-.68-11.31.34-14.92-.45-2.13-.46-4.17-.9-6.4-.71-2.44.22-4.66-.56-7.01-.73l-5.85-.41c-2.45-.17-4.71-.76-7.16-1.09l-7.2-.99-15.24-2.5-8.99-1.59-9.91-2.14-10.71-2.5c-5.64-1.32-11.04-2.59-16.65-4.09l-12.53-3.35-7.17-2.03c-3.09-.88-5.91-1.92-8.95-2.82-4.03-1.19-7.88-2.21-11.89-3.54l-17.46-5.79-17.91-6.34-9.97-3.58-8.84-3.22-7.51-2.91-18.05-7.02-14.59-5.92-5.81-2.42-8.27-3.29-12.95-5.43-6.55-2.92-7.12-2.98-7.79-3.33-8.09-3.56-7.2-3.15-8.7-3.78-9.75-4.35-8.15-3.63c-2.6-1.16-5.19-2.05-7.76-3.29l-5.55-2.67c-2.91-1.4-5.81-2.43-8.75-3.77l-10.43-4.72-8.07-3.58-8.77-3.8-8.14-3.64-9.37-4.12c-2.75-1.21-5.26-2.63-8.05-3.69l-4.82-1.82c-2.52-.95-4.76-2.21-7.24-3.3l-8.33-3.66-7.13-2.98-7.11-3.07-6.52-2.89-7.11-3.03-7.15-2.95c-2.42-1-4.6-2.27-7.13-3.02s-4.6-1.96-6.98-2.92l-16.47-6.66-6.53-2.7-17.76-7-12.48-4.91c-2.47-.97-4.78-1.81-7.24-2.76l-14.24-5.48-6.15-2.02c-2.39-.78-4.56-2.14-7.04-2.64-2.86-.58-5.17-2.05-7.86-2.99l-18.23-6.32-9.07-3.06-8.09-2.74c-2.52-.85-5.02-1.68-7.58-2.47l-16.22-5-11.52-3.47-7.9-2.41-7.53-2.13-6.78-1.89-18.33-4.9-15.12-3.79-12.75-3.13-10.3-2.31-12.73-2.66c-5.31-1.11-10.45-2.05-15.76-3.02-2.22-.4-4.29-1.04-6.54-1.41l-13.23-2.17-12.02-1.87-6.75-1.04-7.62-1.01c-2.61-.35-5.05-.92-7.66-1.04l-5.5-.26c-2.49-.12-4.78-1.04-7.36-.81-1.77.16-3.39-.3-5.06-.74-3.78-1-4.73.4-11.47-1.01-2.04-.43-4.38-.54-6.46-.26-3.45.46-6.37-.81-9.67-.83l-22.55-.13c-6.78-.04-8.35-2.25-14.07-.64-2.19.62-4.23.63-6.53.64l-22.99.14c-3.31.02-6.26,1.34-9.72.8-3.94-.61-7.8,1.26-10.97.95-2.61-.25-4.89.76-7.39.91l-5.87.34c-2.49.15-4.81.57-7.3.92l-7.56,1.08-8.28,1.28c-6.38.99-12.49,2.17-18.82,3.43l-11.6,2.3-12.61,3.06-11.52,2.94-10.87,3.1c-4.31,1.23-8.31,2.62-12.56,4.02l-13.11,4.31-8.18,2.89-8.43,3.15c-2.42.9-4.59,1.93-6.98,2.91l-10.64,4.35c-2.67,1.09-5.17,2.09-7.76,3.36l-16.04,7.82c-2.45,1.2-4.74,2.2-7.15,3.47l-12.78,6.77c-2.5,1.32-4.73,2.67-7.24,3.98-3.86,2.01-7.42,4.39-11.17,6.63l-5.9,3.53c-2.78,1.66-5.25,3.47-8.08,5.05-4.14,2.31-7.64,5.36-11.59,7.95-2.47,1.62-4.71,3.24-7.09,4.97l-6.36,4.61c-1.58,1.15-2.99,2.38-4.55,3.59l-7.64,5.9c-1.73,1.34-3.32,2.62-4.94,4.1l-3.57,3.28c-1.9,1.75-4.3,2.94-5.92,5.02s-3.56,3.09-5.44,4.68c-4.8,4.05-8.81,8.68-13.32,13.06-3.39,3.3-6.69,6.38-9.87,9.86-.93,1.02-1.82,1.88-3.02,2.23V0h750.24Z"/>
    <path class="g" d="M750.24,0h749.76v89.76c-1.35.96-2.19,2.44-3.23,3.89l-4.67,6.49-3.87,5.25-6.01,7.86c-1.41,1.84-2.95,3.45-4.18,5.43-1.35,2.18-3.05,3.92-4.64,5.91l-4.04,5.06c-1.81,2.26-9.06,10.69-9.26,10.95l-3.24,4.31c-1.69,2.25-3.53,4.18-5.48,6.23l-6.92,7.28c-2.14,2.25-3.73,4.54-5.94,6.75l-15.04,15.03c-2.1,2.1-3.97,3.96-6.43,5.67s-4.18,4.1-6.36,6.08c-1.28,1.17-2.97,1.83-4.08,3.12-1.57,1.83-3.35,2.99-5.21,4.44l-5.14,3.99-10.63,7.98-9.78,6.56c-9.24,6.2-17.8,10.53-27.8,15.35l-4.92,2.37-6.89,2.71-7.79,2.82c-5.72,2.07-11.46,3.69-17.45,4.9l-10.89,2.21-5.21.55c-2.38.25-4.6.82-7.06.66-5.36-.36-5.8,1.12-10.5,1.02-3.28-.08-6.41-.1-9.69,0-4.87.14-6.51-1.45-10.48-1.02-3.1.33-12.04-1.16-15.59-1.76l-11.17-1.87-9.86-2.33c-5.32-1.26-14.33-3.84-19.51-5.6l-15.48-5.28-6.47-2.51-6.49-2.59-6.81-2.91c-2.31-.98-4.45-2-6.82-2.84-2.62-.93-4.83-2.57-7.38-3.65l-6.29-2.66-13.94-6.87-8.79-4.94-10.3-5.22c-2.46-1.25-4.77-2.51-7.14-3.93l-4.96-2.99c-2.28-1.37-4.52-2.56-6.85-3.86l-7.38-4.13c-2.1-1.18-4.1-2.14-6.11-3.46-2.94-1.93-5.92-3.6-8.97-5.43l-17.07-10.22-16.94-10.43-6.08-3.6-7.16-4.38-6.4-4.1-14.35-8.75-5.92-3.67-11.32-6.94-6.24-3.88-5.33-3.24-4.8-2.9-29.39-17.68-19.95-11.68c-2.08-1.22-4.05-2.29-6.13-3.51l-6.27-3.68-6.03-3.2c-2.97-1.58-12.28-7.2-14.43-8.1-2.42-1.01-4.51-2.43-6.75-3.77-3.03-1.81-6.36-2.83-9.33-4.69l-4.4-2.77-23.07-11.46-26.88-13.45c-2.96-.93-5.62-2.12-8.28-3.64-2.83-1.61-5.76-2.56-8.71-3.89l-8.01-3.6-7.23-3.15-7.17-2.96-6.07-2.62-9.68-3.78c-2.78-1.09-5.31-2.4-8.21-3.19-1.25-.34-2.24-1.07-3.03-1.83Z"/>
  </g>
  <g>
    <path class="r" d="M986.64,499.09c-1.04-.06-1.93.73-1.99,1.76-.06,1.04.73,1.93,1.76,1.99,1.04.06,1.93-.73,1.99-1.76.06-1.04-.73-1.93-1.76-1.99Z"/>
    <path class="r" d="M991.14,504.17c-1.04-.06-1.93.73-1.99,1.76-.06,1.04.73,1.93,1.76,1.99,1.04.06,1.93-.73,1.99-1.76.06-1.04-.73-1.93-1.76-1.99Z"/>
    <path class="r" d="M995.63,509.26c-1.04-.06-1.93.73-1.99,1.76-.06,1.04.73,1.93,1.76,1.99,1.04.06,1.93-.73,1.99-1.76s-.73-1.93-1.76-1.99Z"/>
    <path class="r" d="M999.55,523.92c-1.04-.06-1.93.73-1.99,1.76-.06,1.04.73,1.93,1.76,1.99,1.04.06,1.93-.73,1.99-1.76.06-1.04-.73-1.93-1.76-1.99Z"/>
    <path class="r" d="M1004.04,529.01c-1.04-.06-1.93.73-1.99,1.76-.06,1.04.73,1.93,1.76,1.99,1.04.06,1.93-.73,1.99-1.76s-.73-1.93-1.76-1.99Z"/>
    <path class="r" d="M1008.54,534.09c-1.04-.06-1.93.73-1.99,1.76-.06,1.04.73,1.93,1.76,1.99s1.93-.73,1.99-1.76c.06-1.04-.73-1.93-1.76-1.99Z"/>
    <path class="r" d="M969.26,469.18c-1.03-.06-1.91.72-1.97,1.75-.06,1.03.72,1.91,1.75,1.97,1.03.06,1.91-.72,1.97-1.75.06-1.03-.72-1.91-1.75-1.97Z"/>
    <path class="r" d="M982.17,494.01c-1.03-.06-1.91.72-1.97,1.75s.72,1.91,1.75,1.97c1.03.06,1.91-.72,1.97-1.75.06-1.03-.72-1.91-1.75-1.97Z"/>
    <path class="r" d="M1000.11,514.33c-1.04-.06-1.93.72-1.99,1.76-.06,1.04.72,1.93,1.76,1.99,1.04.06,1.93-.72,1.99-1.76.06-1.04-.72-1.93-1.76-1.99Z"/>
    <path class="r" d="M994.69,519c-2.11.21-1.67,2.66-.87,3.24,2.68,1.93,4.74-3.63.87-3.24Z"/>
    <path class="r" d="M974.45,474.59c-1.67-1.1-4.24,1.64-2.01,2.91,3.13,1.77,3.5-1.93,2.01-2.91Z"/>
    <path class="r" d="M1003.83,519.6c-2.09.23-1.69,4.1,1.6,3.39,1.7-.37-.73-3.49-1.6-3.39Z"/>
    <path class="r" d="M979.32,482.96l-1.95-3.47c-2.76,1.89-.52,3.78,1.95,3.47Z"/>
    <path class="r" d="M963.63,464.22l1.95,3.47c1.99-2.08.65-3.86-1.95-3.47Z"/>
    <path class="r" d="M1421.11,219.94c0-1.04-.84-1.89-1.89-1.89s-1.89.84-1.89,1.89.84,1.89,1.89,1.89,1.89-.84,1.89-1.89Z"/>
    <path class="r" d="M1425.91,224.74c0-1.04-.84-1.89-1.89-1.89s-1.89.84-1.89,1.89.84,1.89,1.89,1.89,1.89-.84,1.89-1.89Z"/>
    <path class="r" d="M1430.71,229.54c0-1.04-.84-1.89-1.89-1.89s-1.89.84-1.89,1.89.84,1.89,1.89,1.89,1.89-.84,1.89-1.89Z"/>
    <circle class="r" cx="1433.62" cy="234.34" r="1.89"/>
    <path class="r" d="M1443.22,236.23c1.04,0,1.89-.84,1.89-1.89s-.84-1.89-1.89-1.89-1.89.84-1.89,1.89.84,1.89,1.89,1.89Z"/>
    <path class="r" d="M1440.31,239.14c0-1.04-.84-1.89-1.89-1.89s-1.89.84-1.89,1.89.84,1.89,1.89,1.89,1.89-.84,1.89-1.89Z"/>
    <path class="r" d="M1448.02,241.03c1.04,0,1.89-.84,1.89-1.89s-.84-1.89-1.89-1.89-1.89.84-1.89,1.89.84,1.89,1.89,1.89Z"/>
    <path class="r" d="M1445.11,243.94c0-1.04-.84-1.89-1.89-1.89s-1.89.84-1.89,1.89.84,1.89,1.89,1.89,1.89-.84,1.89-1.89Z"/>
    <path class="r" d="M1452.82,245.83c1.04,0,1.89-.84,1.89-1.89s-.84-1.89-1.89-1.89-1.89.84-1.89,1.89.84,1.89,1.89,1.89Z"/>
    <path class="r" d="M1449.91,248.74c0-1.04-.84-1.89-1.89-1.89s-1.89.84-1.89,1.89.84,1.89,1.89,1.89,1.89-.84,1.89-1.89Z"/>
    <path class="r" d="M1457.62,250.63c1.04,0,1.89-.84,1.89-1.89s-.84-1.89-1.89-1.89-1.89.84-1.89,1.89.84,1.89,1.89,1.89Z"/>
    <path class="r" d="M1462.42,255.43c1.04,0,1.89-.84,1.89-1.89s-.84-1.89-1.89-1.89-1.89.84-1.89,1.89.84,1.89,1.89,1.89Z"/>
    <path class="r" d="M1472.02,255.43c1.04,0,1.89-.84,1.89-1.89s-.84-1.89-1.89-1.89-1.89.84-1.89,1.89.84,1.89,1.89,1.89Z"/>
    <path class="r" d="M1467.22,256.46c-1.04,0-1.89.84-1.89,1.89s.84,1.89,1.89,1.89,1.89-.84,1.89-1.89-.84-1.89-1.89-1.89Z"/>
    <circle class="r" cx="1476.82" cy="258.34" r="1.89"/>
    <path class="r" d="M1473.91,263.14c0-1.04-.84-1.89-1.89-1.89s-1.89.84-1.89,1.89.84,1.89,1.89,1.89,1.89-.84,1.89-1.89Z"/>
    <path class="r" d="M1481.62,265.03c1.04,0,1.89-.84,1.89-1.89s-.84-1.89-1.89-1.89-1.89.84-1.89,1.89.84,1.89,1.89,1.89Z"/>
    <path class="r" d="M1478.71,267.94c0-1.04-.84-1.89-1.89-1.89s-1.89.84-1.89,1.89.84,1.89,1.89,1.89,1.89-.84,1.89-1.89Z"/>
    <path class="r" d="M1486.42,269.83c1.04,0,1.89-.84,1.89-1.89s-.84-1.89-1.89-1.89-1.89.84-1.89,1.89.84,1.89,1.89,1.89Z"/>
    <path class="r" d="M1483.51,272.74c0-1.04-.84-1.89-1.89-1.89s-1.89.84-1.89,1.89.84,1.89,1.89,1.89,1.89-.84,1.89-1.89Z"/>
    <path class="r" d="M1491.22,274.63c1.04,0,1.89-.84,1.89-1.89s-.84-1.89-1.89-1.89-1.89.84-1.89,1.89.84,1.89,1.89,1.89Z"/>
    <path class="r" d="M1500.82,274.63c1.04,0,1.89-.84,1.89-1.89s-.84-1.89-1.89-1.89-1.89.84-1.89,1.89.84,1.89,1.89,1.89Z"/>
    <path class="r" d="M1488.31,277.54c0-1.04-.84-1.89-1.89-1.89s-1.89.84-1.89,1.89.84,1.89,1.89,1.89,1.89-.84,1.89-1.89Z"/>
    <path class="r" d="M1496.02,275.66c-1.04,0-1.89.84-1.89,1.89s.84,1.89,1.89,1.89,1.89-.84,1.89-1.89-.84-1.89-1.89-1.89Z"/>
    <path class="r" d="M1493.11,282.34c0-1.04-.84-1.89-1.89-1.89s-1.89.84-1.89,1.89.84,1.89,1.89,1.89,1.89-.84,1.89-1.89Z"/>
    <circle class="r" cx="1500.82" cy="282.34" r="1.89"/>
    <path class="r" d="M1497.91,287.14c0-1.04-.84-1.89-1.89-1.89s-1.89.84-1.89,1.89.84,1.89,1.89,1.89,1.89-.84,1.89-1.89Z"/>
    <path class="r" d="M1500.82,290.06c-1.04,0-1.89.84-1.89,1.89s.84,1.89,1.89,1.89,1.89-.84,1.89-1.89-.84-1.89-1.89-1.89Z"/>
    <path class="r" d="M1454.73,253.48c0-1.02-.82-1.84-1.84-1.84s-1.84.82-1.84,1.84.82,1.84,1.84,1.84,1.84-.82,1.84-1.84Z"/>
    <path class="r" d="M1416.4,214.49c-.17-.29-2.75-1.51-3.32-.82l-.24,2.71c1.32,1.42,4.46-.31,3.56-1.89Z"/>
    <path class="r" d="M1456.62,256.73c-1.99.64.31,3.99,2.08,3.08,2.13-1.09.37-3.86-2.08-3.08Z"/>
    <path class="r" d="M1461.42,261.52c-2.09.66,1.61,3.29,1.85,3.29,1.69,0,1.62-4.39-1.85-3.29Z"/>
    <path class="r" d="M1496.33,267.29c-.68-.39-1.28-.66-2.09-.54-1.01,4.94,5.86,2.69,2.09.54Z"/>
    <path class="r" d="M1468.79,248.99c-.1-.15-3.22-1.6-3.35-1.45-1.19,4.33,4.37,2.9,3.35,1.45Z"/>
    <path class="r" d="M1465.91,266.27c-.58.49,2.8,4.28,3.36,2.15.46-1.76-2-2.5-3.36-2.15Z"/>
    <path class="r" d="M1439.98,230.51l-3.35-2.16c-.55,2.57,1.15,4.01,3.35,2.16Z"/>
    <path class="r" d="M1407.83,209.63c-.6.62.06,2.44,1.67,2.44,3.87-.01-1.04-3.1-1.67-2.44Z"/>
    <path class="r" d="M977.02,489.08c-.54.42,2.07,5.82,2.33,1.82.1-1.57-1.6-2.39-2.33-1.82Z"/>
    <path class="r" d="M1007,525.78c-.5,1.52,1.47,2.58,2.74,2.32.52-.41-2.01-4.56-2.74-2.32Z"/>
    <path class="r" d="M1010.31,351.45c-1.04-.06-1.93.73-2,1.77-.06,1.04.73,1.93,1.77,2s1.93-.73,2-1.77c.06-1.04-.73-1.93-1.77-2Z"/>
    <path class="r" d="M1014.81,356.53c-1.04-.06-1.93.73-2,1.77-.06,1.04.73,1.93,1.77,2,1.04.06,1.93-.73,2-1.77s-.73-1.93-1.77-2Z"/>
    <path class="r" d="M1019.31,361.61c-1.04-.06-1.93.73-2,1.77s.73,1.93,1.77,2c1.04.06,1.93-.73,2-1.77.06-1.04-.73-1.93-1.77-2Z"/>
    <path class="r" d="M1023.81,366.7c-1.04-.06-1.93.73-2,1.77-.06,1.04.73,1.93,1.77,2,1.04.06,1.93-.73,2-1.77.06-1.04-.73-1.93-1.77-2Z"/>
    <path class="r" d="M1028.31,371.78c-1.04-.06-1.93.73-2,1.77s.73,1.93,1.77,2,1.93-.73,2-1.77-.73-1.93-1.77-2Z"/>
    <path class="r" d="M1032.8,376.86c-1.04-.06-1.93.73-2,1.77-.06,1.04.73,1.93,1.77,2s1.93-.73,2-1.77c.06-1.04-.73-1.93-1.77-2Z"/>
    <path class="r" d="M1027.72,381.36c-1.04-.06-1.93.73-2,1.77s.73,1.93,1.77,2c1.04.06,1.93-.73,2-1.77s-.73-1.93-1.77-2Z"/>
    <path class="r" d="M1037.3,381.95c-1.04-.06-1.93.73-2,1.77-.06,1.04.73,1.93,1.77,2,1.04.06,1.93-.73,2-1.77.06-1.04-.73-1.93-1.77-2Z"/>
    <path class="r" d="M1032.22,386.45c-1.04-.06-1.93.73-2,1.77-.06,1.04.73,1.93,1.77,2s1.93-.73,2-1.77-.73-1.93-1.77-2Z"/>
    <path class="r" d="M1036.72,391.53c-1.04-.06-1.93.73-2,1.77-.06,1.04.73,1.93,1.77,2,1.04.06,1.93-.73,2-1.77.06-1.04-.73-1.93-1.77-2Z"/>
    <path class="r" d="M1041.21,396.61c-1.04-.06-1.93.73-2,1.77s.73,1.93,1.77,2c1.04.06,1.93-.73,2-1.77.06-1.04-.73-1.93-1.77-2Z"/>
    <path class="r" d="M1045.48,405.46c1.04.06,1.93-.73,2-1.77s-.73-1.93-1.77-2-1.93.73-2,1.77.73,1.93,1.77,2Z"/>
    <path class="r" d="M1050.21,406.78c-1.04-.06-1.93.73-2,1.77-.06,1.04.73,1.93,1.77,2,1.04.06,1.93-.73,2-1.77.06-1.04-.73-1.93-1.77-2Z"/>
    <path class="r" d="M1054.48,411.87c-1.04-.06-1.93.73-1.99,1.76-.06,1.04.73,1.93,1.76,1.99s1.93-.73,1.99-1.76c.06-1.04-.73-1.93-1.76-1.99Z"/>
    <path class="r" d="M1049.4,416.36c-1.04-.06-1.93.73-1.99,1.76-.06,1.04.73,1.93,1.76,1.99,1.04.06,1.93-.73,1.99-1.76.06-1.04-.73-1.93-1.76-1.99Z"/>
    <path class="r" d="M1058.75,420.71c1.04.06,1.93-.73,1.99-1.76.06-1.04-.73-1.93-1.76-1.99-1.04-.06-1.93.73-1.99,1.76s.73,1.93,1.76,1.99Z"/>
    <path class="r" d="M1053.9,421.45c-1.04-.06-1.93.73-1.99,1.76-.06,1.04.73,1.93,1.76,1.99,1.04.06,1.93-.73,1.99-1.76.06-1.04-.73-1.93-1.76-1.99Z"/>
    <path class="r" d="M1063.25,425.79c1.04.06,1.93-.73,1.99-1.76.06-1.04-.73-1.93-1.76-1.99-1.04-.06-1.93.73-1.99,1.76-.06,1.04.73,1.93,1.76,1.99Z"/>
    <path class="r" d="M1058.4,426.53c-1.04-.06-1.93.73-1.99,1.76s.73,1.93,1.76,1.99,1.93-.73,1.99-1.76c.06-1.04-.73-1.93-1.76-1.99Z"/>
    <path class="r" d="M1067.75,430.87c1.04.06,1.93-.73,1.99-1.76.06-1.04-.73-1.93-1.76-1.99-1.04-.06-1.93.73-1.99,1.76-.06,1.04.73,1.93,1.76,1.99Z"/>
    <path class="r" d="M1062.9,431.62c-1.04-.06-1.93.73-1.99,1.76-.06,1.04.73,1.93,1.76,1.99,1.04.06,1.93-.73,1.99-1.76.06-1.04-.73-1.93-1.76-1.99Z"/>
    <path class="r" d="M1072.25,435.96c1.04.06,1.93-.73,1.99-1.76.06-1.04-.73-1.93-1.76-1.99-1.04-.06-1.93.73-1.99,1.76s.73,1.93,1.76,1.99Z"/>
    <path class="r" d="M1067.39,436.7c-1.04-.06-1.93.73-1.99,1.76-.06,1.04.73,1.93,1.76,1.99,1.04.06,1.93-.73,1.99-1.76.06-1.04-.73-1.93-1.76-1.99Z"/>
    <path class="r" d="M1076.75,441.04c1.04.06,1.93-.73,1.99-1.76.06-1.04-.73-1.93-1.76-1.99-1.04-.06-1.93.73-1.99,1.76-.06,1.04.73,1.93,1.76,1.99Z"/>
    <path class="r" d="M1071.89,441.78c-1.04-.06-1.93.73-1.99,1.76-.06,1.04.73,1.93,1.76,1.99,1.04.06,1.93-.73,1.99-1.76.06-1.04-.73-1.93-1.76-1.99Z"/>
    <path class="r" d="M1081.24,446.13c1.04.06,1.93-.73,1.99-1.76.06-1.04-.73-1.93-1.76-1.99-1.04-.06-1.93.73-1.99,1.76-.06,1.04.73,1.93,1.76,1.99Z"/>
    <path class="r" d="M1066.81,446.28c-1.04-.06-1.93.73-1.99,1.76-.06,1.04.73,1.93,1.76,1.99,1.04.06,1.93-.73,1.99-1.76.06-1.04-.73-1.93-1.76-1.99Z"/>
    <path class="r" d="M1076.16,450.62c1.04.06,1.93-.73,1.99-1.76s-.73-1.93-1.76-1.99-1.93.73-1.99,1.76c-.06,1.04.73,1.93,1.76,1.99Z"/>
    <path class="r" d="M1085.74,451.21c1.04.06,1.93-.73,1.99-1.76.06-1.04-.73-1.93-1.76-1.99-1.04-.06-1.93.73-1.99,1.76-.06,1.04.73,1.93,1.76,1.99Z"/>
    <path class="r" d="M1071.31,451.37c-1.04-.06-1.93.73-1.99,1.76s.73,1.93,1.76,1.99c1.04.06,1.93-.73,1.99-1.76.06-1.04-.73-1.93-1.76-1.99Z"/>
    <path class="r" d="M1080.66,455.71c1.04.06,1.93-.73,1.99-1.76.06-1.04-.73-1.93-1.76-1.99-1.04-.06-1.93.73-1.99,1.76-.06,1.04.73,1.93,1.76,1.99Z"/>
    <path class="r" d="M1075.8,456.45c-1.04-.06-1.93.73-1.99,1.76s.73,1.93,1.76,1.99c1.04.06,1.93-.73,1.99-1.76.06-1.04-.73-1.93-1.76-1.99Z"/>
    <path class="r" d="M1085.16,460.79c1.04.06,1.93-.73,1.99-1.76.06-1.04-.73-1.93-1.76-1.99-1.04-.06-1.93.73-1.99,1.76s.73,1.93,1.76,1.99Z"/>
    <path class="r" d="M1080.3,461.53c-1.04-.06-1.93.73-1.99,1.76-.06,1.04.73,1.93,1.76,1.99,1.04.06,1.93-.73,1.99-1.76.06-1.04-.73-1.93-1.76-1.99Z"/>
    <path class="r" d="M1089.66,465.88c1.04.06,1.93-.73,1.99-1.76.06-1.04-.73-1.93-1.76-1.99-1.04-.06-1.93.73-1.99,1.76-.06,1.04.73,1.93,1.76,1.99Z"/>
    <path class="r" d="M1084.8,466.62c-1.04-.06-1.93.73-1.99,1.76-.06,1.04.73,1.93,1.76,1.99s1.93-.73,1.99-1.76c.06-1.04-.73-1.93-1.76-1.99Z"/>
    <path class="r" d="M1094.15,470.96c1.04.06,1.93-.73,1.99-1.76.06-1.04-.73-1.93-1.76-1.99-1.04-.06-1.93.73-1.99,1.76-.06,1.04.73,1.93,1.76,1.99Z"/>
    <path class="r" d="M1089.3,471.7c-1.04-.06-1.93.73-1.99,1.76s.73,1.93,1.76,1.99,1.93-.73,1.99-1.76c.06-1.04-.73-1.93-1.76-1.99Z"/>
    <path class="r" d="M1098.65,476.04c1.04.06,1.93-.73,1.99-1.76.06-1.04-.73-1.93-1.76-1.99-1.04-.06-1.93.73-1.99,1.76-.06,1.04.73,1.93,1.76,1.99Z"/>
    <path class="r" d="M1084.22,476.2c-1.04-.06-1.93.73-1.99,1.76-.06,1.04.73,1.93,1.76,1.99,1.04.06,1.93-.73,1.99-1.76.06-1.04-.73-1.93-1.76-1.99Z"/>
    <path class="r" d="M1093.8,476.79c-1.04-.06-1.93.73-1.99,1.76-.06,1.04.73,1.93,1.76,1.99,1.04.06,1.93-.73,1.99-1.76.06-1.04-.73-1.93-1.76-1.99Z"/>
    <path class="r" d="M1103.15,481.13c1.04.06,1.93-.73,1.99-1.76.06-1.04-.73-1.93-1.76-1.99s-1.93.73-1.99,1.76.73,1.93,1.76,1.99Z"/>
    <path class="r" d="M1088.71,481.28c-1.04-.06-1.93.73-1.99,1.76-.06,1.04.73,1.93,1.76,1.99,1.04.06,1.93-.73,1.99-1.76s-.73-1.93-1.76-1.99Z"/>
    <path class="r" d="M1098.07,485.63c1.04.06,1.93-.73,1.99-1.76.06-1.04-.73-1.93-1.76-1.99-1.04-.06-1.93.73-1.99,1.76-.06,1.04.73,1.93,1.76,1.99Z"/>
    <path class="r" d="M1107.65,486.21c1.04.06,1.93-.73,1.99-1.76.06-1.04-.73-1.93-1.76-1.99-1.04-.06-1.93.73-1.99,1.76-.06,1.04.73,1.93,1.76,1.99Z"/>
    <path class="r" d="M1093.21,486.37c-1.04-.06-1.93.73-1.99,1.76-.06,1.04.73,1.93,1.76,1.99,1.04.06,1.93-.73,1.99-1.76.06-1.04-.73-1.93-1.76-1.99Z"/>
    <path class="r" d="M1102.56,490.71c1.04.06,1.93-.73,1.99-1.76s-.73-1.93-1.76-1.99c-1.04-.06-1.93.73-1.99,1.76-.06,1.04.73,1.93,1.76,1.99Z"/>
    <path class="r" d="M1112.15,491.29c1.04.06,1.93-.73,1.99-1.76.06-1.04-.73-1.93-1.76-1.99-1.04-.06-1.93.73-1.99,1.76-.06,1.04.73,1.93,1.76,1.99Z"/>
    <path class="r" d="M1097.71,491.45c-1.04-.06-1.93.73-1.99,1.76-.06,1.04.73,1.93,1.76,1.99,1.04.06,1.93-.73,1.99-1.76.06-1.04-.73-1.93-1.76-1.99Z"/>
    <path class="r" d="M1107.06,495.79c1.04.06,1.93-.73,1.99-1.76.06-1.04-.73-1.93-1.76-1.99s-1.93.73-1.99,1.76c-.06,1.04.73,1.93,1.76,1.99Z"/>
    <path class="r" d="M1116.64,496.38c1.04.06,1.93-.73,1.99-1.76s-.73-1.93-1.76-1.99c-1.04-.06-1.93.73-1.99,1.76-.06,1.04.73,1.93,1.76,1.99Z"/>
    <path class="r" d="M1102.21,496.54c-1.04-.06-1.93.73-1.99,1.76-.06,1.04.73,1.93,1.76,1.99,1.04.06,1.93-.73,1.99-1.76.06-1.04-.73-1.93-1.76-1.99Z"/>
    <path class="r" d="M1111.56,500.88c1.04.06,1.93-.73,1.99-1.76.06-1.04-.73-1.93-1.76-1.99-1.04-.06-1.93.73-1.99,1.76-.06,1.04.73,1.93,1.76,1.99Z"/>
    <path class="r" d="M1121.14,501.46c1.04.06,1.93-.73,1.99-1.76.06-1.04-.73-1.93-1.76-1.99s-1.93.73-1.99,1.76c-.06,1.04.73,1.93,1.76,1.99Z"/>
    <path class="r" d="M1106.71,501.62c-1.04-.06-1.93.73-1.99,1.76-.06,1.04.73,1.93,1.76,1.99,1.04.06,1.93-.73,1.99-1.76s-.73-1.93-1.76-1.99Z"/>
    <path class="r" d="M1116.06,505.96c1.04.06,1.93-.73,1.99-1.76.06-1.04-.73-1.93-1.76-1.99-1.04-.06-1.93.73-1.99,1.76-.06,1.04.73,1.93,1.76,1.99Z"/>
    <path class="r" d="M1125.64,506.55c1.04.06,1.93-.73,1.99-1.76.06-1.04-.73-1.93-1.76-1.99-1.04-.06-1.93.73-1.99,1.76-.06,1.04.73,1.93,1.76,1.99Z"/>
    <path class="r" d="M1101.62,506.12c-1.04-.06-1.93.73-1.99,1.76-.06,1.04.73,1.93,1.76,1.99,1.04.06,1.93-.73,1.99-1.76.06-1.04-.73-1.93-1.76-1.99Z"/>
    <path class="r" d="M1111.2,506.7c-1.04-.06-1.93.73-1.99,1.76-.06,1.04.73,1.93,1.76,1.99,1.04.06,1.93-.73,1.99-1.76.06-1.04-.73-1.93-1.76-1.99Z"/>
    <path class="r" d="M1120.56,511.04c1.04.06,1.93-.73,1.99-1.76s-.73-1.93-1.76-1.99c-1.04-.06-1.93.73-1.99,1.76-.06,1.04.73,1.93,1.76,1.99Z"/>
    <path class="r" d="M1130.14,511.63c1.04.06,1.93-.73,1.99-1.76.06-1.04-.73-1.93-1.76-1.99-1.04-.06-1.93.73-1.99,1.76-.06,1.04.73,1.93,1.76,1.99Z"/>
    <path class="r" d="M1106.12,511.2c-1.04-.06-1.93.73-1.99,1.76s.73,1.93,1.76,1.99,1.93-.73,1.99-1.76c.06-1.04-.73-1.93-1.76-1.99Z"/>
    <path class="r" d="M1115.7,511.79c-1.04-.06-1.93.73-1.99,1.76-.06,1.04.73,1.93,1.76,1.99,1.04.06,1.93-.73,1.99-1.76.06-1.04-.73-1.93-1.76-1.99Z"/>
    <path class="r" d="M1125.06,516.13c1.04.06,1.93-.73,1.99-1.76.06-1.04-.73-1.93-1.76-1.99-1.04-.06-1.93.73-1.99,1.76-.06,1.04.73,1.93,1.76,1.99Z"/>
    <path class="r" d="M1110.62,516.29c-1.04-.06-1.93.73-1.99,1.76-.06,1.04.73,1.93,1.76,1.99,1.04.06,1.93-.73,1.99-1.76.06-1.04-.73-1.93-1.76-1.99Z"/>
    <path class="r" d="M1120.2,516.87c-1.04-.06-1.93.73-1.99,1.76s.73,1.93,1.76,1.99,1.93-.73,1.99-1.76c.06-1.04-.73-1.93-1.76-1.99Z"/>
    <path class="r" d="M1129.78,517.46c-1.04-.06-1.93.73-1.99,1.76-.06,1.04.73,1.93,1.76,1.99,1.04.06,1.93-.73,1.99-1.76.06-1.04-.73-1.93-1.76-1.99Z"/>
    <path class="r" d="M1115.12,521.37c-1.04-.06-1.93.73-1.99,1.76-.06,1.04.73,1.93,1.76,1.99,1.04.06,1.93-.73,1.99-1.76.06-1.04-.73-1.93-1.76-1.99Z"/>
    <path class="r" d="M1124.7,521.95c-1.04-.06-1.93.73-1.99,1.76-.06,1.04.73,1.93,1.76,1.99,1.04.06,1.93-.73,1.99-1.76.06-1.04-.73-1.93-1.76-1.99Z"/>
    <path class="r" d="M1134.28,522.54c-1.04-.06-1.93.73-1.99,1.76s.73,1.93,1.76,1.99,1.93-.73,1.99-1.76c.06-1.04-.73-1.93-1.76-1.99Z"/>
    <path class="r" d="M1119.62,526.45c-1.04-.06-1.93.73-1.99,1.76-.06,1.04.73,1.93,1.76,1.99s1.93-.73,1.99-1.76-.73-1.93-1.76-1.99Z"/>
    <path class="r" d="M1129.2,527.04c-1.04-.06-1.93.73-1.99,1.76-.06,1.04.73,1.93,1.76,1.99,1.04.06,1.93-.73,1.99-1.76.06-1.04-.73-1.93-1.76-1.99Z"/>
    <path class="r" d="M1138.78,527.62c-1.04-.06-1.93.73-1.99,1.76-.06,1.04.73,1.93,1.76,1.99,1.04.06,1.93-.73,1.99-1.76.06-1.04-.73-1.93-1.76-1.99Z"/>
    <path class="r" d="M1124.11,531.54c-1.04-.06-1.93.73-1.99,1.76-.06,1.04.73,1.93,1.76,1.99,1.04.06,1.93-.73,1.99-1.76.06-1.04-.73-1.93-1.76-1.99Z"/>
    <path class="r" d="M1133.7,532.12c-1.04-.06-1.93.73-1.99,1.76-.06,1.04.73,1.93,1.76,1.99s1.93-.73,1.99-1.76-.73-1.93-1.76-1.99Z"/>
    <path class="r" d="M1143.28,532.71c-1.04-.06-1.93.73-1.99,1.76-.06,1.04.73,1.93,1.76,1.99,1.04.06,1.93-.73,1.99-1.76.06-1.04-.73-1.93-1.76-1.99Z"/>
    <path class="r" d="M1134.62,516.7c1.04.06,1.93-.72,1.99-1.76.06-1.04-.72-1.93-1.76-1.99-1.04-.06-1.93.72-1.99,1.76-.06,1.04.72,1.93,1.76,1.99Z"/>
    <path class="r" d="M1045.14,411.3c-1.04-.06-1.93.72-1.99,1.76s.72,1.93,1.76,1.99c1.04.06,1.93-.72,1.99-1.76.06-1.04-.72-1.93-1.76-1.99Z"/>
    <path class="r" d="M994.07,324.72c1.76-1.1-.66-3.41-2.19-3.01-1.91.5-.98,5,2.19,3.01Z"/>
    <path class="r" d="M1061.55,441.44c-1.37.31-1.45,1.23-.7,2.25,2.87,3.93,5.21-3.27.7-2.25Z"/>
    <path class="r" d="M1042.68,390.41c1.91-.7-.29-3.72-1.91-3.2-1.54.4-1.53,4.46,1.91,3.2Z"/>
    <path class="r" d="M1089.51,455.95c4.02,1.47,2.52-3.66.19-3.22-1.61.31-1.91,2.59-.19,3.22Z"/>
    <path class="r" d="M1079.92,471.16c-.97-.06-1.81.68-1.87,1.66-.06.97.68,1.81,1.66,1.87s1.81-.68,1.87-1.66c.06-.97-.68-1.81-1.66-1.87Z"/>
    <path class="r" d="M1138.6,518.24c-1.61.31-1.91,2.58-.19,3.21,3.99,1.46,2.35-3.63.19-3.21Z"/>
    <path class="r" d="M1096.33,501.24c-2.02.51.06,3.69,1.63,3.4,1.27-.24,1.66-4.23-1.63-3.4Z"/>
    <path class="r" d="M1113.73,531.16c-1.77.43.3,3.71,1.64,3.4,1.28-.3,1.63-4.21-1.64-3.4Z"/>
    <path class="r" d="M997.45,326.89c-1.97-1.29-3.45,3.68.09,3.32,2.18-.22.36-3.02-.09-3.32Z"/>
    <path class="r" d="M987.09,316.57c-.29,1.03.78,3.88,2.2,3.28,2.53-1.07,0-4.02-2.2-3.28Z"/>
    <path class="r" d="M1045.22,392.26c-.82.1-1.13,2.17-.69,2.87,5.09,2.48,2.4-3.08.69-2.87Z"/>
    <path class="r" d="M1095.79,461.2c1.56-.33-1.09-3.51-1.66-3.43-2.01.28-1.65,4.12,1.66,3.43Z"/>
    <path class="r" d="M1004.49,346.49c-.22.72.1,1.13.34,1.73,1.81,4.49,5.46-2.08-.34-1.73Z"/>
    <path class="r" d="M1021.9,376.41l1.24,3.44c3.57-.67,1.9-3.9-1.24-3.44Z"/>
    <path class="r" d="M1141.97,524.17c-1.02,1.89,1.36,2.81,2.98,2.58.67-.56-1.78-4.8-2.98-2.58Z"/>
    <path class="r" d="M1039.31,406.33l1.95,3.47c2.76-1.89.52-3.78-1.95-3.47Z"/>
    <path class="r" d="M1002.77,335.32c.57-.46-1.4-3.08-1.95-3.47-1.99,2.08-.65,3.86,1.95,3.47Z"/>
    <path class="r" d="M1100.56,466.33c.33-.21-2.46-4.67-3.22-2.35-.57,1.73,1.84,2.62,3.22,2.35Z"/>
    <path class="r" d="M1051.66,400.83c.6-.45-2.16-3.58-2.69-3.05-.47,2.53.15,3.2,2.69,3.05Z"/>
    <path class="r" d="M1056.71,436.25c.31.72,1.55,4.05,2.7,3.04,1.09-.96-.59-3.98-2.7-3.04Z"/>
    <path class="r" d="M1148.97,531.81c.52-.41-2.01-4.56-2.74-2.32-.5,1.52,1.47,2.58,2.74,2.32Z"/>
    <path class="r" d="M1225.34,248.74c1.04,0,1.89-.84,1.89-1.89s-.84-1.89-1.89-1.89-1.89.84-1.89,1.89.84,1.89,1.89,1.89Z"/>
    <path class="r" d="M1230.14,253.54c1.04,0,1.89-.84,1.89-1.89s-.84-1.89-1.89-1.89-1.89.84-1.89,1.89.84,1.89,1.89,1.89Z"/>
    <path class="r" d="M1234.94,258.34c1.04,0,1.89-.84,1.89-1.89s-.84-1.89-1.89-1.89-1.89.84-1.89,1.89.84,1.89,1.89,1.89Z"/>
    <path class="r" d="M1241.62,261.26c0-1.04-.84-1.89-1.89-1.89s-1.89.84-1.89,1.89.84,1.89,1.89,1.89,1.89-.84,1.89-1.89Z"/>
    <circle class="r" cx="1244.54" cy="266.06" r="1.89"/>
    <path class="r" d="M1251.22,270.86c0-1.04-.84-1.89-1.89-1.89s-1.89.84-1.89,1.89.84,1.89,1.89,1.89,1.89-.84,1.89-1.89Z"/>
    <path class="r" d="M1254.14,273.77c-1.04,0-1.89.84-1.89,1.89s.84,1.89,1.89,1.89,1.89-.84,1.89-1.89-.84-1.89-1.89-1.89Z"/>
    <path class="r" d="M1258.94,278.57c-1.04,0-1.89.84-1.89,1.89s.84,1.89,1.89,1.89,1.89-.84,1.89-1.89-.84-1.89-1.89-1.89Z"/>
    <path class="r" d="M1268.54,278.57c-1.04,0-1.89.84-1.89,1.89s.84,1.89,1.89,1.89,1.89-.84,1.89-1.89-.84-1.89-1.89-1.89Z"/>
    <path class="r" d="M1263.74,283.37c-1.04,0-1.89.84-1.89,1.89s.84,1.89,1.89,1.89,1.89-.84,1.89-1.89-.84-1.89-1.89-1.89Z"/>
    <path class="r" d="M1273.34,283.37c-1.04,0-1.89.84-1.89,1.89s.84,1.89,1.89,1.89,1.89-.84,1.89-1.89-.84-1.89-1.89-1.89Z"/>
    <circle class="r" cx="1268.54" cy="290.06" r="1.89"/>
    <path class="r" d="M1278.14,288.17c-1.04,0-1.89.84-1.89,1.89s.84,1.89,1.89,1.89,1.89-.84,1.89-1.89-.84-1.89-1.89-1.89Z"/>
    <path class="r" d="M1273.34,292.97c-1.04,0-1.89.84-1.89,1.89s.84,1.89,1.89,1.89,1.89-.84,1.89-1.89-.84-1.89-1.89-1.89Z"/>
    <path class="r" d="M1282.94,292.97c-1.04,0-1.89.84-1.89,1.89s.84,1.89,1.89,1.89,1.89-.84,1.89-1.89-.84-1.89-1.89-1.89Z"/>
    <path class="r" d="M1278.14,297.77c-1.04,0-1.89.84-1.89,1.89s.84,1.89,1.89,1.89,1.89-.84,1.89-1.89-.84-1.89-1.89-1.89Z"/>
    <path class="r" d="M1287.74,297.77c-1.04,0-1.89.84-1.89,1.89s.84,1.89,1.89,1.89,1.89-.84,1.89-1.89-.84-1.89-1.89-1.89Z"/>
    <path class="r" d="M1282.94,302.57c-1.04,0-1.89.84-1.89,1.89s.84,1.89,1.89,1.89,1.89-.84,1.89-1.89-.84-1.89-1.89-1.89Z"/>
    <path class="r" d="M1292.54,302.57c-1.04,0-1.89.84-1.89,1.89s.84,1.89,1.89,1.89,1.89-.84,1.89-1.89-.84-1.89-1.89-1.89Z"/>
    <path class="r" d="M1287.74,307.37c-1.04,0-1.89.84-1.89,1.89s.84,1.89,1.89,1.89,1.89-.84,1.89-1.89-.84-1.89-1.89-1.89Z"/>
    <path class="r" d="M1297.34,307.37c-1.04,0-1.89.84-1.89,1.89s.84,1.89,1.89,1.89,1.89-.84,1.89-1.89-.84-1.89-1.89-1.89Z"/>
    <circle class="r" cx="1292.54" cy="314.06" r="1.89"/>
    <path class="r" d="M1302.14,312.17c-1.04,0-1.89.84-1.89,1.89s.84,1.89,1.89,1.89,1.89-.84,1.89-1.89-.84-1.89-1.89-1.89Z"/>
    <circle class="r" cx="1311.74" cy="314.06" r="1.89"/>
    <path class="r" d="M1297.34,316.97c-1.04,0-1.89.84-1.89,1.89s.84,1.89,1.89,1.89,1.89-.84,1.89-1.89-.84-1.89-1.89-1.89Z"/>
    <path class="r" d="M1306.94,316.97c-1.04,0-1.89.84-1.89,1.89s.84,1.89,1.89,1.89,1.89-.84,1.89-1.89-.84-1.89-1.89-1.89Z"/>
    <path class="r" d="M1316.54,316.97c-1.04,0-1.89.84-1.89,1.89s.84,1.89,1.89,1.89,1.89-.84,1.89-1.89-.84-1.89-1.89-1.89Z"/>
    <path class="r" d="M1302.14,321.77c-1.04,0-1.89.84-1.89,1.89s.84,1.89,1.89,1.89,1.89-.84,1.89-1.89-.84-1.89-1.89-1.89Z"/>
    <path class="r" d="M1311.74,321.77c-1.04,0-1.89.84-1.89,1.89s.84,1.89,1.89,1.89,1.89-.84,1.89-1.89-.84-1.89-1.89-1.89Z"/>
    <path class="r" d="M1321.34,321.77c-1.04,0-1.89.84-1.89,1.89s.84,1.89,1.89,1.89,1.89-.84,1.89-1.89-.84-1.89-1.89-1.89Z"/>
    <path class="r" d="M1306.94,326.57c-1.04,0-1.89.84-1.89,1.89s.84,1.89,1.89,1.89,1.89-.84,1.89-1.89-.84-1.89-1.89-1.89Z"/>
    <path class="r" d="M1316.54,326.57c-1.04,0-1.89.84-1.89,1.89s.84,1.89,1.89,1.89,1.89-.84,1.89-1.89-.84-1.89-1.89-1.89Z"/>
    <path class="r" d="M1326.14,326.57c-1.04,0-1.89.84-1.89,1.89s.84,1.89,1.89,1.89,1.89-.84,1.89-1.89-.84-1.89-1.89-1.89Z"/>
    <path class="r" d="M1311.74,331.37c-1.04,0-1.89.84-1.89,1.89s.84,1.89,1.89,1.89,1.89-.84,1.89-1.89-.84-1.89-1.89-1.89Z"/>
    <path class="r" d="M1321.34,331.37c-1.04,0-1.89.84-1.89,1.89s.84,1.89,1.89,1.89,1.89-.84,1.89-1.89-.84-1.89-1.89-1.89Z"/>
    <path class="r" d="M1330.94,331.37c-1.04,0-1.89.84-1.89,1.89s.84,1.89,1.89,1.89,1.89-.84,1.89-1.89-.84-1.89-1.89-1.89Z"/>
    <circle class="r" cx="1316.54" cy="338.06" r="1.89"/>
    <path class="r" d="M1326.14,336.17c-1.04,0-1.89.84-1.89,1.89s.84,1.89,1.89,1.89,1.89-.84,1.89-1.89-.84-1.89-1.89-1.89Z"/>
    <circle class="r" cx="1335.74" cy="338.06" r="1.89"/>
    <path class="r" d="M1321.34,340.97c-1.04,0-1.89.84-1.89,1.89s.84,1.89,1.89,1.89,1.89-.84,1.89-1.89-.84-1.89-1.89-1.89Z"/>
    <path class="r" d="M1330.94,340.97c-1.04,0-1.89.84-1.89,1.89s.84,1.89,1.89,1.89,1.89-.84,1.89-1.89-.84-1.89-1.89-1.89Z"/>
    <path class="r" d="M1340.54,340.97c-1.04,0-1.89.84-1.89,1.89s.84,1.89,1.89,1.89,1.89-.84,1.89-1.89-.84-1.89-1.89-1.89Z"/>
    <path class="r" d="M1350.14,340.97c-1.04,0-1.89.84-1.89,1.89s.84,1.89,1.89,1.89,1.89-.84,1.89-1.89-.84-1.89-1.89-1.89Z"/>
    <path class="r" d="M1326.14,345.77c-1.04,0-1.89.84-1.89,1.89s.84,1.89,1.89,1.89,1.89-.84,1.89-1.89-.84-1.89-1.89-1.89Z"/>
    <path class="r" d="M1335.74,345.77c-1.04,0-1.89.84-1.89,1.89s.84,1.89,1.89,1.89,1.89-.84,1.89-1.89-.84-1.89-1.89-1.89Z"/>
    <path class="r" d="M1345.34,345.77c-1.04,0-1.89.84-1.89,1.89s.84,1.89,1.89,1.89,1.89-.84,1.89-1.89-.84-1.89-1.89-1.89Z"/>
    <path class="r" d="M1354.94,345.77c-1.04,0-1.89.84-1.89,1.89s.84,1.89,1.89,1.89,1.89-.84,1.89-1.89-.84-1.89-1.89-1.89Z"/>
    <path class="r" d="M1330.94,350.57c-1.04,0-1.89.84-1.89,1.89s.84,1.89,1.89,1.89,1.89-.84,1.89-1.89-.84-1.89-1.89-1.89Z"/>
    <path class="r" d="M1340.54,350.57c-1.04,0-1.89.84-1.89,1.89s.84,1.89,1.89,1.89,1.89-.84,1.89-1.89-.84-1.89-1.89-1.89Z"/>
    <path class="r" d="M1350.14,350.57c-1.04,0-1.89.84-1.89,1.89s.84,1.89,1.89,1.89,1.89-.84,1.89-1.89-.84-1.89-1.89-1.89Z"/>
    <path class="r" d="M1359.74,350.57c-1.04,0-1.89.84-1.89,1.89s.84,1.89,1.89,1.89,1.89-.84,1.89-1.89-.84-1.89-1.89-1.89Z"/>
    <path class="r" d="M1335.74,355.37c-1.04,0-1.89.84-1.89,1.89s.84,1.89,1.89,1.89,1.89-.84,1.89-1.89-.84-1.89-1.89-1.89Z"/>
    <path class="r" d="M1345.34,355.37c-1.04,0-1.89.84-1.89,1.89s.84,1.89,1.89,1.89,1.89-.84,1.89-1.89-.84-1.89-1.89-1.89Z"/>
    <path class="r" d="M1354.94,355.37c-1.04,0-1.89.84-1.89,1.89s.84,1.89,1.89,1.89,1.89-.84,1.89-1.89-.84-1.89-1.89-1.89Z"/>
    <path class="r" d="M1364.54,355.37c-1.04,0-1.89.84-1.89,1.89s.84,1.89,1.89,1.89,1.89-.84,1.89-1.89-.84-1.89-1.89-1.89Z"/>
    <circle class="r" cx="1340.54" cy="362.06" r="1.89"/>
    <path class="r" d="M1350.14,360.17c-1.04,0-1.89.84-1.89,1.89s.84,1.89,1.89,1.89,1.89-.84,1.89-1.89-.84-1.89-1.89-1.89Z"/>
    <circle class="r" cx="1359.74" cy="362.06" r="1.89"/>
    <path class="r" d="M1369.34,360.17c-1.04,0-1.89.84-1.89,1.89s.84,1.89,1.89,1.89,1.89-.84,1.89-1.89-.84-1.89-1.89-1.89Z"/>
    <path class="r" d="M1345.34,364.97c-1.04,0-1.89.84-1.89,1.89s.84,1.89,1.89,1.89,1.89-.84,1.89-1.89-.84-1.89-1.89-1.89Z"/>
    <path class="r" d="M1354.94,364.97c-1.04,0-1.89.84-1.89,1.89s.84,1.89,1.89,1.89,1.89-.84,1.89-1.89-.84-1.89-1.89-1.89Z"/>
    <path class="r" d="M1364.54,364.97c-1.04,0-1.89.84-1.89,1.89s.84,1.89,1.89,1.89,1.89-.84,1.89-1.89-.84-1.89-1.89-1.89Z"/>
    <path class="r" d="M1374.14,364.97c-1.04,0-1.89.84-1.89,1.89s.84,1.89,1.89,1.89,1.89-.84,1.89-1.89-.84-1.89-1.89-1.89Z"/>
    <path class="r" d="M1350.14,369.77c-1.04,0-1.89.84-1.89,1.89s.84,1.89,1.89,1.89,1.89-.84,1.89-1.89-.84-1.89-1.89-1.89Z"/>
    <path class="r" d="M1359.74,369.77c-1.04,0-1.89.84-1.89,1.89s.84,1.89,1.89,1.89,1.89-.84,1.89-1.89-.84-1.89-1.89-1.89Z"/>
    <path class="r" d="M1369.34,369.77c-1.04,0-1.89.84-1.89,1.89s.84,1.89,1.89,1.89,1.89-.84,1.89-1.89-.84-1.89-1.89-1.89Z"/>
    <path class="r" d="M1378.94,369.77c-1.04,0-1.89.84-1.89,1.89s.84,1.89,1.89,1.89,1.89-.84,1.89-1.89-.84-1.89-1.89-1.89Z"/>
    <path class="r" d="M1354.94,374.57c-1.04,0-1.89.84-1.89,1.89s.84,1.89,1.89,1.89,1.89-.84,1.89-1.89-.84-1.89-1.89-1.89Z"/>
    <path class="r" d="M1364.54,374.57c-1.04,0-1.89.84-1.89,1.89s.84,1.89,1.89,1.89,1.89-.84,1.89-1.89-.84-1.89-1.89-1.89Z"/>
    <path class="r" d="M1374.14,374.57c-1.04,0-1.89.84-1.89,1.89s.84,1.89,1.89,1.89,1.89-.84,1.89-1.89-.84-1.89-1.89-1.89Z"/>
    <path class="r" d="M1383.74,374.57c-1.04,0-1.89.84-1.89,1.89s.84,1.89,1.89,1.89,1.89-.84,1.89-1.89-.84-1.89-1.89-1.89Z"/>
    <path class="r" d="M1359.74,379.37c-1.04,0-1.89.84-1.89,1.89s.84,1.89,1.89,1.89,1.89-.84,1.89-1.89-.84-1.89-1.89-1.89Z"/>
    <path class="r" d="M1369.34,379.37c-1.04,0-1.89.84-1.89,1.89s.84,1.89,1.89,1.89,1.89-.84,1.89-1.89-.84-1.89-1.89-1.89Z"/>
    <path class="r" d="M1378.94,379.37c-1.04,0-1.89.84-1.89,1.89s.84,1.89,1.89,1.89,1.89-.84,1.89-1.89-.84-1.89-1.89-1.89Z"/>
    <path class="r" d="M1388.31,379.39c-1.04,0-1.88.84-1.88,1.88s.84,1.88,1.88,1.88,1.88-.84,1.88-1.88-.84-1.88-1.88-1.88Z"/>
    <path class="r" d="M1364.31,384.19c-1.04,0-1.88.84-1.88,1.88s.84,1.88,1.88,1.88,1.88-.84,1.88-1.88-.84-1.88-1.88-1.88Z"/>
    <path class="r" d="M1373.91,384.19c-1.04,0-1.88.84-1.88,1.88s.84,1.88,1.88,1.88,1.88-.84,1.88-1.88-.84-1.88-1.88-1.88Z"/>
    <path class="r" d="M1383.51,384.19c-1.04,0-1.88.84-1.88,1.88s.84,1.88,1.88,1.88,1.88-.84,1.88-1.88-.84-1.88-1.88-1.88Z"/>
    <path class="r" d="M1393.11,384.19c-1.04,0-1.88.84-1.88,1.88s.84,1.88,1.88,1.88,1.88-.84,1.88-1.88-.84-1.88-1.88-1.88Z"/>
    <circle class="r" cx="1369.11" cy="390.87" r="1.88"/>
    <path class="r" d="M1378.71,388.99c-1.04,0-1.88.84-1.88,1.88s.84,1.88,1.88,1.88,1.88-.84,1.88-1.88-.84-1.88-1.88-1.88Z"/>
    <path class="r" d="M1388.31,388.99c-1.04,0-1.88.84-1.88,1.88s.84,1.88,1.88,1.88,1.88-.84,1.88-1.88-.84-1.88-1.88-1.88Z"/>
    <circle class="r" cx="1397.91" cy="390.87" r="1.88"/>
    <path class="r" d="M1373.91,393.79c-1.04,0-1.88.84-1.88,1.88s.84,1.88,1.88,1.88,1.88-.84,1.88-1.88-.84-1.88-1.88-1.88Z"/>
    <path class="r" d="M1383.51,393.79c-1.04,0-1.88.84-1.88,1.88s.84,1.88,1.88,1.88,1.88-.84,1.88-1.88-.84-1.88-1.88-1.88Z"/>
    <path class="r" d="M1393.11,393.79c-1.04,0-1.88.84-1.88,1.88s.84,1.88,1.88,1.88,1.88-.84,1.88-1.88-.84-1.88-1.88-1.88Z"/>
    <path class="r" d="M1402.71,393.79c-1.04,0-1.88.84-1.88,1.88s.84,1.88,1.88,1.88,1.88-.84,1.88-1.88-.84-1.88-1.88-1.88Z"/>
    <path class="r" d="M1378.71,398.59c-1.04,0-1.88.84-1.88,1.88s.84,1.88,1.88,1.88,1.88-.84,1.88-1.88-.84-1.88-1.88-1.88Z"/>
    <path class="r" d="M1388.31,398.59c-1.04,0-1.88.84-1.88,1.88s.84,1.88,1.88,1.88,1.88-.84,1.88-1.88-.84-1.88-1.88-1.88Z"/>
    <path class="r" d="M1397.91,398.59c-1.04,0-1.88.84-1.88,1.88s.84,1.88,1.88,1.88,1.88-.84,1.88-1.88-.84-1.88-1.88-1.88Z"/>
    <path class="r" d="M1407.51,398.59c-1.04,0-1.88.84-1.88,1.88s.84,1.88,1.88,1.88,1.88-.84,1.88-1.88-.84-1.88-1.88-1.88Z"/>
    <path class="r" d="M1383.51,403.39c-1.04,0-1.88.84-1.88,1.88s.84,1.88,1.88,1.88,1.88-.84,1.88-1.88-.84-1.88-1.88-1.88Z"/>
    <path class="r" d="M1393.11,403.39c-1.04,0-1.88.84-1.88,1.88s.84,1.88,1.88,1.88,1.88-.84,1.88-1.88-.84-1.88-1.88-1.88Z"/>
    <path class="r" d="M1402.71,403.39c-1.04,0-1.88.84-1.88,1.88s.84,1.88,1.88,1.88,1.88-.84,1.88-1.88-.84-1.88-1.88-1.88Z"/>
    <path class="r" d="M1412.31,403.39c-1.04,0-1.88.84-1.88,1.88s.84,1.88,1.88,1.88,1.88-.84,1.88-1.88-.84-1.88-1.88-1.88Z"/>
    <path class="r" d="M1388.31,408.19c-1.04,0-1.88.84-1.88,1.88s.84,1.88,1.88,1.88,1.88-.84,1.88-1.88-.84-1.88-1.88-1.88Z"/>
    <path class="r" d="M1397.91,408.19c-1.04,0-1.88.84-1.88,1.88s.84,1.88,1.88,1.88,1.88-.84,1.88-1.88-.84-1.88-1.88-1.88Z"/>
    <path class="r" d="M1407.51,408.19c-1.04,0-1.88.84-1.88,1.88s.84,1.88,1.88,1.88,1.88-.84,1.88-1.88-.84-1.88-1.88-1.88Z"/>
    <path class="r" d="M1417.11,408.19c-1.04,0-1.88.84-1.88,1.88s.84,1.88,1.88,1.88,1.88-.84,1.88-1.88-.84-1.88-1.88-1.88Z"/>
    <circle class="r" cx="1393.11" cy="414.87" r="1.88"/>
    <path class="r" d="M1402.71,412.99c-1.04,0-1.88.84-1.88,1.88s.84,1.88,1.88,1.88,1.88-.84,1.88-1.88-.84-1.88-1.88-1.88Z"/>
    <path class="r" d="M1412.31,412.99c-1.04,0-1.88.84-1.88,1.88s.84,1.88,1.88,1.88,1.88-.84,1.88-1.88-.84-1.88-1.88-1.88Z"/>
    <circle class="r" cx="1421.91" cy="414.87" r="1.88"/>
    <path class="r" d="M1397.91,417.79c-1.04,0-1.88.84-1.88,1.88s.84,1.88,1.88,1.88,1.88-.84,1.88-1.88-.84-1.88-1.88-1.88Z"/>
    <path class="r" d="M1407.51,417.79c-1.04,0-1.88.84-1.88,1.88s.84,1.88,1.88,1.88,1.88-.84,1.88-1.88-.84-1.88-1.88-1.88Z"/>
    <path class="r" d="M1417.11,417.79c-1.04,0-1.88.84-1.88,1.88s.84,1.88,1.88,1.88,1.88-.84,1.88-1.88-.84-1.88-1.88-1.88Z"/>
    <path class="r" d="M1426.71,417.79c-1.04,0-1.88.84-1.88,1.88s.84,1.88,1.88,1.88,1.88-.84,1.88-1.88-.84-1.88-1.88-1.88Z"/>
    <path class="r" d="M1402.71,422.59c-1.04,0-1.88.84-1.88,1.88s.84,1.88,1.88,1.88,1.88-.84,1.88-1.88-.84-1.88-1.88-1.88Z"/>
    <path class="r" d="M1412.31,422.59c-1.04,0-1.88.84-1.88,1.88s.84,1.88,1.88,1.88,1.88-.84,1.88-1.88-.84-1.88-1.88-1.88Z"/>
    <path class="r" d="M1421.91,422.59c-1.04,0-1.88.84-1.88,1.88s.84,1.88,1.88,1.88,1.88-.84,1.88-1.88-.84-1.88-1.88-1.88Z"/>
    <path class="r" d="M1431.51,422.59c-1.04,0-1.88.84-1.88,1.88s.84,1.88,1.88,1.88,1.88-.84,1.88-1.88-.84-1.88-1.88-1.88Z"/>
    <path class="r" d="M1407.51,427.39c-1.04,0-1.88.84-1.88,1.88s.84,1.88,1.88,1.88,1.88-.84,1.88-1.88-.84-1.88-1.88-1.88Z"/>
    <path class="r" d="M1417.11,427.39c-1.04,0-1.88.84-1.88,1.88s.84,1.88,1.88,1.88,1.88-.84,1.88-1.88-.84-1.88-1.88-1.88Z"/>
    <path class="r" d="M1426.71,427.39c-1.04,0-1.88.84-1.88,1.88s.84,1.88,1.88,1.88,1.88-.84,1.88-1.88-.84-1.88-1.88-1.88Z"/>
    <path class="r" d="M1436.31,427.39c-1.04,0-1.88.84-1.88,1.88s.84,1.88,1.88,1.88,1.88-.84,1.88-1.88-.84-1.88-1.88-1.88Z"/>
    <path class="r" d="M1412.31,432.19c-1.04,0-1.88.84-1.88,1.88s.84,1.88,1.88,1.88,1.88-.84,1.88-1.88-.84-1.88-1.88-1.88Z"/>
    <path class="r" d="M1421.91,432.19c-1.04,0-1.88.84-1.88,1.88s.84,1.88,1.88,1.88,1.88-.84,1.88-1.88-.84-1.88-1.88-1.88Z"/>
    <path class="r" d="M1431.51,432.19c-1.04,0-1.88.84-1.88,1.88s.84,1.88,1.88,1.88,1.88-.84,1.88-1.88-.84-1.88-1.88-1.88Z"/>
    <path class="r" d="M1441.11,432.19c-1.04,0-1.88.84-1.88,1.88s.84,1.88,1.88,1.88,1.88-.84,1.88-1.88-.84-1.88-1.88-1.88Z"/>
    <circle class="r" cx="1417.11" cy="438.87" r="1.88"/>
    <path class="r" d="M1426.71,436.99c-1.04,0-1.88.84-1.88,1.88s.84,1.88,1.88,1.88,1.88-.84,1.88-1.88-.84-1.88-1.88-1.88Z"/>
    <path class="r" d="M1436.31,436.99c-1.04,0-1.88.84-1.88,1.88s.84,1.88,1.88,1.88,1.88-.84,1.88-1.88-.84-1.88-1.88-1.88Z"/>
    <circle class="r" cx="1445.91" cy="438.87" r="1.88"/>
    <path class="r" d="M1421.91,441.79c-1.04,0-1.88.84-1.88,1.88s.84,1.88,1.88,1.88,1.88-.84,1.88-1.88-.84-1.88-1.88-1.88Z"/>
    <path class="r" d="M1431.51,441.79c-1.04,0-1.88.84-1.88,1.88s.84,1.88,1.88,1.88,1.88-.84,1.88-1.88-.84-1.88-1.88-1.88Z"/>
    <path class="r" d="M1441.11,441.79c-1.04,0-1.88.84-1.88,1.88s.84,1.88,1.88,1.88,1.88-.84,1.88-1.88-.84-1.88-1.88-1.88Z"/>
    <path class="r" d="M1450.71,441.79c-1.04,0-1.88.84-1.88,1.88s.84,1.88,1.88,1.88,1.88-.84,1.88-1.88-.84-1.88-1.88-1.88Z"/>
    <path class="r" d="M1426.71,446.59c-1.04,0-1.88.84-1.88,1.88s.84,1.88,1.88,1.88,1.88-.84,1.88-1.88-.84-1.88-1.88-1.88Z"/>
    <path class="r" d="M1436.31,446.59c-1.04,0-1.88.84-1.88,1.88s.84,1.88,1.88,1.88,1.88-.84,1.88-1.88-.84-1.88-1.88-1.88Z"/>
    <path class="r" d="M1445.91,446.59c-1.04,0-1.88.84-1.88,1.88s.84,1.88,1.88,1.88,1.88-.84,1.88-1.88-.84-1.88-1.88-1.88Z"/>
    <path class="r" d="M1455.51,446.59c-1.04,0-1.88.84-1.88,1.88s.84,1.88,1.88,1.88,1.88-.84,1.88-1.88-.84-1.88-1.88-1.88Z"/>
    <path class="r" d="M1431.51,451.39c-1.04,0-1.88.84-1.88,1.88s.84,1.88,1.88,1.88,1.88-.84,1.88-1.88-.84-1.88-1.88-1.88Z"/>
    <path class="r" d="M1441.11,451.39c-1.04,0-1.88.84-1.88,1.88s.84,1.88,1.88,1.88,1.88-.84,1.88-1.88-.84-1.88-1.88-1.88Z"/>
    <path class="r" d="M1450.71,451.39c-1.04,0-1.88.84-1.88,1.88s.84,1.88,1.88,1.88,1.88-.84,1.88-1.88-.84-1.88-1.88-1.88Z"/>
    <path class="r" d="M1460.31,451.39c-1.04,0-1.88.84-1.88,1.88s.84,1.88,1.88,1.88,1.88-.84,1.88-1.88-.84-1.88-1.88-1.88Z"/>
    <path class="r" d="M1436.31,456.19c-1.04,0-1.88.84-1.88,1.88s.84,1.88,1.88,1.88,1.88-.84,1.88-1.88-.84-1.88-1.88-1.88Z"/>
    <path class="r" d="M1445.91,456.19c-1.04,0-1.88.84-1.88,1.88s.84,1.88,1.88,1.88,1.88-.84,1.88-1.88-.84-1.88-1.88-1.88Z"/>
    <path class="r" d="M1455.51,456.19c-1.04,0-1.88.84-1.88,1.88s.84,1.88,1.88,1.88,1.88-.84,1.88-1.88-.84-1.88-1.88-1.88Z"/>
    <path class="r" d="M1465.11,456.19c-1.04,0-1.88.84-1.88,1.88s.84,1.88,1.88,1.88,1.88-.84,1.88-1.88-.84-1.88-1.88-1.88Z"/>
    <circle class="r" cx="1441.11" cy="462.87" r="1.88"/>
    <path class="r" d="M1450.71,460.99c-1.04,0-1.88.84-1.88,1.88s.84,1.88,1.88,1.88,1.88-.84,1.88-1.88-.84-1.88-1.88-1.88Z"/>
    <path class="r" d="M1460.31,460.99c-1.04,0-1.88.84-1.88,1.88s.84,1.88,1.88,1.88,1.88-.84,1.88-1.88-.84-1.88-1.88-1.88Z"/>
    <circle class="r" cx="1469.91" cy="462.87" r="1.88"/>
    <path class="r" d="M1445.91,465.79c-1.04,0-1.88.84-1.88,1.88s.84,1.88,1.88,1.88,1.88-.84,1.88-1.88-.84-1.88-1.88-1.88Z"/>
    <path class="r" d="M1455.51,465.79c-1.04,0-1.88.84-1.88,1.88s.84,1.88,1.88,1.88,1.88-.84,1.88-1.88-.84-1.88-1.88-1.88Z"/>
    <path class="r" d="M1465.11,465.79c-1.04,0-1.88.84-1.88,1.88s.84,1.88,1.88,1.88,1.88-.84,1.88-1.88-.84-1.88-1.88-1.88Z"/>
    <path class="r" d="M1474.71,465.79c-1.04,0-1.88.84-1.88,1.88s.84,1.88,1.88,1.88,1.88-.84,1.88-1.88-.84-1.88-1.88-1.88Z"/>
    <path class="r" d="M1450.71,470.59c-1.04,0-1.88.84-1.88,1.88s.84,1.88,1.88,1.88,1.88-.84,1.88-1.88-.84-1.88-1.88-1.88Z"/>
    <path class="r" d="M1460.31,470.59c-1.04,0-1.88.84-1.88,1.88s.84,1.88,1.88,1.88,1.88-.84,1.88-1.88-.84-1.88-1.88-1.88Z"/>
    <path class="r" d="M1469.91,470.59c-1.04,0-1.88.84-1.88,1.88s.84,1.88,1.88,1.88,1.88-.84,1.88-1.88-.84-1.88-1.88-1.88Z"/>
    <path class="r" d="M1479.51,470.59c-1.04,0-1.88.84-1.88,1.88s.84,1.88,1.88,1.88,1.88-.84,1.88-1.88-.84-1.88-1.88-1.88Z"/>
    <path class="r" d="M1455.51,475.39c-1.04,0-1.88.84-1.88,1.88s.84,1.88,1.88,1.88,1.88-.84,1.88-1.88-.84-1.88-1.88-1.88Z"/>
    <path class="r" d="M1465.11,475.39c-1.04,0-1.88.84-1.88,1.88s.84,1.88,1.88,1.88,1.88-.84,1.88-1.88-.84-1.88-1.88-1.88Z"/>
    <path class="r" d="M1474.71,475.39c-1.04,0-1.88.84-1.88,1.88s.84,1.88,1.88,1.88,1.88-.84,1.88-1.88-.84-1.88-1.88-1.88Z"/>
    <path class="r" d="M1484.31,475.39c-1.04,0-1.88.84-1.88,1.88s.84,1.88,1.88,1.88,1.88-.84,1.88-1.88-.84-1.88-1.88-1.88Z"/>
    <path class="r" d="M1460.31,480.19c-1.04,0-1.88.84-1.88,1.88s.84,1.88,1.88,1.88,1.88-.84,1.88-1.88-.84-1.88-1.88-1.88Z"/>
    <path class="r" d="M1469.91,480.19c-1.04,0-1.88.84-1.88,1.88s.84,1.88,1.88,1.88,1.88-.84,1.88-1.88-.84-1.88-1.88-1.88Z"/>
    <path class="r" d="M1479.51,480.19c-1.04,0-1.88.84-1.88,1.88s.84,1.88,1.88,1.88,1.88-.84,1.88-1.88-.84-1.88-1.88-1.88Z"/>
    <path class="r" d="M1489.11,480.19c-1.04,0-1.88.84-1.88,1.88s.84,1.88,1.88,1.88,1.88-.84,1.88-1.88-.84-1.88-1.88-1.88Z"/>
    <circle class="r" cx="1465.11" cy="486.87" r="1.88"/>
    <path class="r" d="M1474.71,484.99c-1.04,0-1.88.84-1.88,1.88s.84,1.88,1.88,1.88,1.88-.84,1.88-1.88-.84-1.88-1.88-1.88Z"/>
    <path class="r" d="M1484.31,484.99c-1.04,0-1.88.84-1.88,1.88s.84,1.88,1.88,1.88,1.88-.84,1.88-1.88-.84-1.88-1.88-1.88Z"/>
    <circle class="r" cx="1493.91" cy="486.87" r="1.88"/>
    <path class="r" d="M1469.91,489.79c-1.04,0-1.88.84-1.88,1.88s.84,1.88,1.88,1.88,1.88-.84,1.88-1.88-.84-1.88-1.88-1.88Z"/>
    <path class="r" d="M1479.51,489.79c-1.04,0-1.88.84-1.88,1.88s.84,1.88,1.88,1.88,1.88-.84,1.88-1.88-.84-1.88-1.88-1.88Z"/>
    <path class="r" d="M1489.11,489.79c-1.04,0-1.88.84-1.88,1.88s.84,1.88,1.88,1.88,1.88-.84,1.88-1.88-.84-1.88-1.88-1.88Z"/>
    <path class="r" d="M1498.71,489.79c-1.04,0-1.88.84-1.88,1.88s.84,1.88,1.88,1.88,1.88-.84,1.88-1.88-.84-1.88-1.88-1.88Z"/>
    <path class="r" d="M1474.71,494.59c-1.04,0-1.88.84-1.88,1.88s.84,1.88,1.88,1.88,1.88-.84,1.88-1.88-.84-1.88-1.88-1.88Z"/>
    <path class="r" d="M1484.31,494.59c-1.04,0-1.88.84-1.88,1.88s.84,1.88,1.88,1.88,1.88-.84,1.88-1.88-.84-1.88-1.88-1.88Z"/>
    <path class="r" d="M1493.91,494.59c-1.04,0-1.88.84-1.88,1.88s.84,1.88,1.88,1.88,1.88-.84,1.88-1.88-.84-1.88-1.88-1.88Z"/>
    <path class="r" d="M1479.51,499.39c-1.04,0-1.88.84-1.88,1.88s.84,1.88,1.88,1.88,1.88-.84,1.88-1.88-.84-1.88-1.88-1.88Z"/>
    <path class="r" d="M1489.11,499.39c-1.04,0-1.88.84-1.88,1.88s.84,1.88,1.88,1.88,1.88-.84,1.88-1.88-.84-1.88-1.88-1.88Z"/>
    <path class="r" d="M1498.71,499.39c-1.04,0-1.88.84-1.88,1.88s.84,1.88,1.88,1.88,1.88-.84,1.88-1.88-.84-1.88-1.88-1.88Z"/>
    <path class="r" d="M1484.31,504.19c-1.04,0-1.88.84-1.88,1.88s.84,1.88,1.88,1.88,1.88-.84,1.88-1.88-.84-1.88-1.88-1.88Z"/>
    <path class="r" d="M1493.91,504.19c-1.04,0-1.88.84-1.88,1.88s.84,1.88,1.88,1.88,1.88-.84,1.88-1.88-.84-1.88-1.88-1.88Z"/>
    <circle class="r" cx="1489.11" cy="510.87" r="1.88"/>
    <path class="r" d="M1498.71,508.99c-1.04,0-1.88.84-1.88,1.88s.84,1.88,1.88,1.88,1.88-.84,1.88-1.88-.84-1.88-1.88-1.88Z"/>
    <path class="r" d="M1493.91,513.79c-1.04,0-1.88.84-1.88,1.88s.84,1.88,1.88,1.88,1.88-.84,1.88-1.88-.84-1.88-1.88-1.88Z"/>
    <path class="r" d="M1498.71,518.59c-1.04,0-1.88.84-1.88,1.88s.84,1.88,1.88,1.88,1.88-.84,1.88-1.88-.84-1.88-1.88-1.88Z"/>
    <path class="r" d="M1305.92,307.62c-1.87.61-.67,5.05,2.37,2.87,1.69-1.21-.87-3.36-2.37-2.87Z"/>
    <path class="r" d="M1262.68,273.98c-.8.23-.92,1.85-.67,2.57.67,1.99,4.61.07,3.78-1.12-.1-.14-2.66-1.58-3.1-1.45Z"/>
    <path class="r" d="M1219.48,240.38c-.81.16-1.01,2.22-.52,2.91,5.1,2.13,2.68-3.34.52-2.91Z"/>
    <path class="r" d="M1344.27,336.38c-.81.15-1,2.23-.52,2.91,5.23,2.17,2.21-3.22.52-2.91Z"/>
    <path class="r" d="M1195.23,225.98c-.67,1.66,2.85,4.1,3.36,2.15.46-1.76-2-2.5-3.36-2.15Z"/>
    <path class="r" d="M1180.36,212.3c0,.19,2.44,2.63,2.63,2.63.4,0,1.56-1.57,1.13-2.33-.36-.64-3.8-1.64-3.76-.3Z"/>
    <path class="r" d="M1185.63,216.38c-.67,1.66,2.85,4.1,3.36,2.15.46-1.76-2-2.5-3.36-2.15Z"/>
    <path class="r" d="M1190.43,221.18c-.67,1.66,2.85,4.1,3.36,2.15.46-1.76-2-2.5-3.36-2.15Z"/>
    <path class="r" d="M1302.06,303.71c-.58-.28-.98-.62-1.71-.45-.98,5.05,6.21,2.6,1.71.45Z"/>
    <path class="r" d="M1200.03,230.78c-.82,1.48,2.9,3.94,3.36,2.15.46-1.82-2.08-2.49-3.36-2.15Z"/>
    <path class="r" d="M1219.23,249.98c-.58.49,2.8,4.28,3.36,2.15.46-1.76-2-2.5-3.36-2.15Z"/>
    <path class="r" d="M1214.43,245.18c-.58.49,2.8,4.28,3.36,2.15.46-1.76-2-2.5-3.36-2.15Z"/>
    <path class="r" d="M1209.63,240.38c-.58.49,2.8,4.28,3.36,2.15.46-1.76-2-2.5-3.36-2.15Z"/>
    <path class="r" d="M1260.5,271.82l-3.35-2.16c-.55,2.57,1.15,4.01,3.35,2.16Z"/>
    <path class="r" d="M1233.63,264.38c-.58.49,2.8,4.28,3.36,2.15.46-1.76-2-2.5-3.36-2.15Z"/>
    <path class="r" d="M1228.83,259.58c-.58.49,2.8,4.28,3.36,2.15.46-1.76-2-2.5-3.36-2.15Z"/>
    <path class="r" d="M1204.83,235.58c-.58.49,2.8,4.28,3.36,2.15.46-1.76-2-2.5-3.36-2.15Z"/>
    <path class="r" d="M1224.03,254.78c-.58.49,2.8,4.28,3.36,2.15.46-1.76-2-2.5-3.36-2.15Z"/>
    <path class="r" d="M1216.82,238.94c.58-.5-1.83-3-2.88-2.39-.34,2.38.77,2.61,2.88,2.39Z"/>
    <path class="r" d="M1243.23,273.98c.19.49,2.98,3.93,3.36,2.15.39-1.84-1.95-2.46-3.36-2.15Z"/>
    <path class="r" d="M1248.03,278.78c.19.49,2.98,3.93,3.36,2.15.39-1.84-1.95-2.46-3.36-2.15Z"/>
    <path class="r" d="M1238.43,269.18c.19.49,2.98,3.93,3.36,2.15.39-1.84-1.95-2.46-3.36-2.15Z"/>
    <path class="r" d="M1292.31,408.19c-1.04,0-1.88.84-1.88,1.88s.84,1.88,1.88,1.88,1.88-.84,1.88-1.88-.84-1.88-1.88-1.88Z"/>
    <circle class="r" cx="1297.11" cy="414.87" r="1.88"/>
    <path class="r" d="M1301.91,417.79c-1.04,0-1.88.84-1.88,1.88s.84,1.88,1.88,1.88,1.88-.84,1.88-1.88-.84-1.88-1.88-1.88Z"/>
    <path class="r" d="M1306.71,422.59c-1.04,0-1.88.84-1.88,1.88s.84,1.88,1.88,1.88,1.88-.84,1.88-1.88-.84-1.88-1.88-1.88Z"/>
    <path class="r" d="M1311.51,427.39c-1.04,0-1.88.84-1.88,1.88s.84,1.88,1.88,1.88,1.88-.84,1.88-1.88-.84-1.88-1.88-1.88Z"/>
    <path class="r" d="M1316.31,432.19c-1.04,0-1.88.84-1.88,1.88s.84,1.88,1.88,1.88,1.88-.84,1.88-1.88-.84-1.88-1.88-1.88Z"/>
    <circle class="r" cx="1321.11" cy="438.87" r="1.88"/>
    <path class="r" d="M1325.91,441.79c-1.04,0-1.88.84-1.88,1.88s.84,1.88,1.88,1.88,1.88-.84,1.88-1.88-.84-1.88-1.88-1.88Z"/>
    <path class="r" d="M1330.71,446.59c-1.04,0-1.88.84-1.88,1.88s.84,1.88,1.88,1.88,1.88-.84,1.88-1.88-.84-1.88-1.88-1.88Z"/>
    <path class="r" d="M1335.51,451.39c-1.04,0-1.88.84-1.88,1.88s.84,1.88,1.88,1.88,1.88-.84,1.88-1.88-.84-1.88-1.88-1.88Z"/>
    <path class="r" d="M1340.31,456.19c-1.04,0-1.88.84-1.88,1.88s.84,1.88,1.88,1.88,1.88-.84,1.88-1.88-.84-1.88-1.88-1.88Z"/>
    <circle class="r" cx="1345.11" cy="462.87" r="1.88"/>
    <path class="r" d="M1349.91,465.79c-1.04,0-1.88.84-1.88,1.88s.84,1.88,1.88,1.88,1.88-.84,1.88-1.88-.84-1.88-1.88-1.88Z"/>
    <path class="r" d="M1359.51,465.79c-1.04,0-1.88.84-1.88,1.88s.84,1.88,1.88,1.88,1.88-.84,1.88-1.88-.84-1.88-1.88-1.88Z"/>
    <path class="r" d="M1354.71,470.59c-1.04,0-1.88.84-1.88,1.88s.84,1.88,1.88,1.88,1.88-.84,1.88-1.88-.84-1.88-1.88-1.88Z"/>
    <path class="r" d="M1364.31,470.59c-1.04,0-1.88.84-1.88,1.88s.84,1.88,1.88,1.88,1.88-.84,1.88-1.88-.84-1.88-1.88-1.88Z"/>
    <path class="r" d="M1359.51,475.39c-1.04,0-1.88.84-1.88,1.88s.84,1.88,1.88,1.88,1.88-.84,1.88-1.88-.84-1.88-1.88-1.88Z"/>
    <path class="r" d="M1369.11,475.39c-1.04,0-1.88.84-1.88,1.88s.84,1.88,1.88,1.88,1.88-.84,1.88-1.88-.84-1.88-1.88-1.88Z"/>
    <path class="r" d="M1364.31,480.19c-1.04,0-1.88.84-1.88,1.88s.84,1.88,1.88,1.88,1.88-.84,1.88-1.88-.84-1.88-1.88-1.88Z"/>
    <path class="r" d="M1373.91,480.19c-1.04,0-1.88.84-1.88,1.88s.84,1.88,1.88,1.88,1.88-.84,1.88-1.88-.84-1.88-1.88-1.88Z"/>
    <circle class="r" cx="1369.11" cy="486.87" r="1.88"/>
    <path class="r" d="M1378.71,484.99c-1.04,0-1.88.84-1.88,1.88s.84,1.88,1.88,1.88,1.88-.84,1.88-1.88-.84-1.88-1.88-1.88Z"/>
    <path class="r" d="M1373.91,489.79c-1.04,0-1.88.84-1.88,1.88s.84,1.88,1.88,1.88,1.88-.84,1.88-1.88-.84-1.88-1.88-1.88Z"/>
    <path class="r" d="M1383.51,489.79c-1.04,0-1.88.84-1.88,1.88s.84,1.88,1.88,1.88,1.88-.84,1.88-1.88-.84-1.88-1.88-1.88Z"/>
    <path class="r" d="M1378.71,494.59c-1.04,0-1.88.84-1.88,1.88s.84,1.88,1.88,1.88,1.88-.84,1.88-1.88-.84-1.88-1.88-1.88Z"/>
    <path class="r" d="M1388.31,494.59c-1.04,0-1.88.84-1.88,1.88s.84,1.88,1.88,1.88,1.88-.84,1.88-1.88-.84-1.88-1.88-1.88Z"/>
    <path class="r" d="M1383.51,499.39c-1.04,0-1.88.84-1.88,1.88s.84,1.88,1.88,1.88,1.88-.84,1.88-1.88-.84-1.88-1.88-1.88Z"/>
    <path class="r" d="M1393.11,499.39c-1.04,0-1.88.84-1.88,1.88s.84,1.88,1.88,1.88,1.88-.84,1.88-1.88-.84-1.88-1.88-1.88Z"/>
    <path class="r" d="M1388.31,504.19c-1.04,0-1.88.84-1.88,1.88s.84,1.88,1.88,1.88,1.88-.84,1.88-1.88-.84-1.88-1.88-1.88Z"/>
    <path class="r" d="M1397.91,504.19c-1.04,0-1.88.84-1.88,1.88s.84,1.88,1.88,1.88,1.88-.84,1.88-1.88-.84-1.88-1.88-1.88Z"/>
    <circle class="r" cx="1393.11" cy="510.87" r="1.88"/>
    <path class="r" d="M1402.71,508.99c-1.04,0-1.88.84-1.88,1.88s.84,1.88,1.88,1.88,1.88-.84,1.88-1.88-.84-1.88-1.88-1.88Z"/>
    <path class="r" d="M1397.91,513.79c-1.04,0-1.88.84-1.88,1.88s.84,1.88,1.88,1.88,1.88-.84,1.88-1.88-.84-1.88-1.88-1.88Z"/>
    <path class="r" d="M1407.51,513.79c-1.04,0-1.88.84-1.88,1.88s.84,1.88,1.88,1.88,1.88-.84,1.88-1.88-.84-1.88-1.88-1.88Z"/>
    <path class="r" d="M1402.71,518.59c-1.04,0-1.88.84-1.88,1.88s.84,1.88,1.88,1.88,1.88-.84,1.88-1.88-.84-1.88-1.88-1.88Z"/>
    <path class="r" d="M1412.31,518.59c-1.04,0-1.88.84-1.88,1.88s.84,1.88,1.88,1.88,1.88-.84,1.88-1.88-.84-1.88-1.88-1.88Z"/>
    <path class="r" d="M1421.91,518.59c-1.04,0-1.88.84-1.88,1.88s.84,1.88,1.88,1.88,1.88-.84,1.88-1.88-.84-1.88-1.88-1.88Z"/>
    <path class="r" d="M1407.51,523.39c-1.04,0-1.88.84-1.88,1.88s.84,1.88,1.88,1.88,1.88-.84,1.88-1.88-.84-1.88-1.88-1.88Z"/>
    <path class="r" d="M1417.11,523.39c-1.04,0-1.88.84-1.88,1.88s.84,1.88,1.88,1.88,1.88-.84,1.88-1.88-.84-1.88-1.88-1.88Z"/>
    <path class="r" d="M1426.71,523.39c-1.04,0-1.88.84-1.88,1.88s.84,1.88,1.88,1.88,1.88-.84,1.88-1.88-.84-1.88-1.88-1.88Z"/>
    <path class="r" d="M1412.31,528.19c-1.04,0-1.88.84-1.88,1.88s.84,1.88,1.88,1.88,1.88-.84,1.88-1.88-.84-1.88-1.88-1.88Z"/>
    <path class="r" d="M1421.91,528.19c-1.04,0-1.88.84-1.88,1.88s.84,1.88,1.88,1.88,1.88-.84,1.88-1.88-.84-1.88-1.88-1.88Z"/>
    <path class="r" d="M1431.51,528.19c-1.04,0-1.88.84-1.88,1.88s.84,1.88,1.88,1.88,1.88-.84,1.88-1.88-.84-1.88-1.88-1.88Z"/>
    <circle class="r" cx="1417.11" cy="534.87" r="1.88"/>
    <path class="r" d="M1426.71,532.99c-1.04,0-1.88.84-1.88,1.88s.84,1.88,1.88,1.88,1.88-.84,1.88-1.88-.84-1.88-1.88-1.88Z"/>
    <path class="r" d="M1436.31,532.99c-1.04,0-1.88.84-1.88,1.88s.84,1.88,1.88,1.88,1.88-.84,1.88-1.88-.84-1.88-1.88-1.88Z"/>
    <path class="r" d="M1354.65,464.77c1.02,0,1.84-.82,1.84-1.84s-.82-1.84-1.84-1.84-1.84.82-1.84,1.84.82,1.84,1.84,1.84Z"/>
    <path class="r" d="M1415.12,516.05c.57,2.27,5.11,1.47,3.69-1.02-.8-1.39-4.26-1.27-3.69,1.02Z"/>
    <path class="r" d="M1286.76,403.63c-1.59.4-1.75,2.7,0,3.22,4.1,1.22,2.29-3.81,0-3.22Z"/>
    <path class="r" d="M1351.24,459.51c1.63-1.13-1.36-3.21-2.11-3.09-2.68.45-.45,4.85,2.11,3.09Z"/>
    <path class="r" d="M1413.64,512.31c1.31-.86-1.52-3.21-2.12-3.11-2.6.44-.55,4.85,2.12,3.11Z"/>
    <path class="r" d="M1281.87,398.79c-2.23,0-.82,5.06,2.18,3.13,1.27-.82-1.96-3.13-2.18-3.13Z"/>
    <path class="r" d="M1346.9,454.22c-.82-.69-1.86-2.49-3.1-2.16-2.31.61,1.1,4.79,3.1,2.16Z"/>
    <path class="r" d="M1408.82,507.74c.58-.49-2.8-4.28-3.36-2.15-.46,1.76,2,2.5,3.36,2.15Z"/>
    <path class="r" d="M1275.87,395.19c-.38,1.84,1.94,2.46,3.36,2.15.71-.59-2.98-3.98-3.36-2.15Z"/>
    <path class="r" d="M1406.43,533.18c-.57.48,2.37,3.44,2.88,2.88.31-2.56-.34-3.18-2.88-2.88Z"/>
    <path class="r" d="M1341.62,449.19c-.12-.14-3.01-1.79-3.35-1.45-.82,2.91,4.61,2.92,3.35,1.45Z"/>
  </g>
  <path id="c" data-name="&amp;lt;複合パス&amp;gt;grd" class="f" d="M1058.04,539.04h-22.67l-87.11-143.64,109.78,143.64ZM1446.34,539.04h45.04l-232.3-197.55,187.26,197.55ZM1365.75,150.1l134.25,117.5v-28.82l-134.25-88.68ZM963.66,250.97l193.85,288.07h49l-242.85-288.07ZM1163.68,158.3l336.32,331.68v-72.62l-336.32-259.06Z"/>
  <g>
    <g>
      <polygon class="k" points="932.82 376.53 913.09 383.91 910.09 385.04 877.24 397.33 833.29 263.94 841.08 260.31 845.44 265.83 932.82 376.53"/>
      <path class="s" d="M877.24,399.33c-.3,0-.59-.07-.87-.2-.49-.24-.86-.66-1.03-1.18l-43.95-133.39c-.32-.96.14-2.01,1.05-2.44l7.79-3.63c.84-.39,1.84-.15,2.41.57l91.74,116.22c.4.5.53,1.16.36,1.78-.17.62-.63,1.11-1.23,1.33l-55.58,20.8c-.23.08-.46.13-.7.13ZM835.75,265l42.74,129.73,51.06-19.11-89.06-112.83-4.75,2.21Z"/>
    </g>
    <g>
      <polygon class="k" points="994.68 344.22 959.39 362.65 959.38 362.65 932.82 376.53 849.46 259.54 861.53 256.39 994.68 344.22"/>
      <path class="s" d="M932.82,378.53c-.63,0-1.24-.3-1.63-.84l-83.36-116.99c-.38-.54-.48-1.22-.25-1.84.22-.62.74-1.09,1.38-1.25l12.07-3.15c.55-.14,1.13-.05,1.61.27l133.15,87.83c.59.39.93,1.06.9,1.77-.04.71-.44,1.34-1.07,1.67l-35.29,18.43s-.08.04-.12.06l-26.45,13.82c-.29.15-.61.23-.93.23ZM852.77,260.74l80.67,113.21,25.01-13.07s.08-.04.12-.06l32.17-16.8-129.57-85.47-8.4,2.19Z"/>
    </g>
    <g>
      <polygon class="k" points="932.82 376.53 845.44 265.83 849.46 259.54 932.82 376.53"/>
      <path class="s" d="M932.82,378.53c-.59,0-1.18-.26-1.57-.76l-87.38-110.7c-.53-.67-.57-1.6-.12-2.32l4.02-6.29c.36-.56.97-.91,1.63-.92.7-.02,1.29.3,1.68.84l83.36,116.99c.63.88.44,2.11-.43,2.76-.36.27-.78.4-1.2.4ZM847.89,265.71l36.05,45.67-34.39-48.26-1.66,2.59Z"/>
    </g>
    <g>
      <polygon class="n" points="932.82 376.53 926.41 406.09 913.09 383.91 932.82 376.53"/>
      <path class="s" d="M926.41,408.09c-.69,0-1.35-.36-1.71-.97l-13.32-22.18c-.31-.51-.37-1.13-.17-1.69.2-.56.63-1.01,1.19-1.21l19.73-7.38c.69-.25,1.46-.12,2.01.36.55.48.8,1.22.65,1.94l-6.41,29.56c-.17.8-.82,1.42-1.63,1.55-.11.02-.22.03-.33.03ZM916.04,384.94l9.48,15.79,4.56-21.04-14.05,5.25Z"/>
    </g>
    <g>
      <polygon class="n" points="910.09 385.04 907.55 408.52 877.24 397.33 910.09 385.04"/>
      <path class="s" d="M907.55,410.52c-.23,0-.47-.04-.69-.12l-30.31-11.19c-.78-.29-1.31-1.04-1.31-1.87,0-.83.52-1.58,1.3-1.88l32.85-12.29c.65-.24,1.38-.13,1.93.29.55.43.84,1.11.76,1.79l-2.54,23.48c-.07.61-.41,1.16-.93,1.49-.32.2-.69.3-1.05.3ZM882.98,397.32l22.86,8.44,1.92-17.71-24.77,9.27Z"/>
    </g>
    <g>
      <polygon class="n" points="994.68 344.22 985.95 370.26 959.39 362.65 994.68 344.22"/>
      <path class="s" d="M985.95,372.26c-.18,0-.37-.02-.55-.08l-26.56-7.61c-.79-.23-1.36-.91-1.44-1.72-.08-.81.34-1.6,1.06-1.97l35.29-18.43c.72-.38,1.6-.28,2.22.25.62.53.86,1.38.6,2.16l-8.73,26.04c-.28.83-1.06,1.36-1.9,1.36ZM964.75,362.11l19.91,5.7,6.54-19.52-26.45,13.82Z"/>
    </g>
  </g>
  <g>
    <g>
      <polygon class="q" points="1347.2 148.34 1321.93 166.24 1307.93 176.16 1198.39 51.84 1206.25 47.18 1211.72 51.1 1347.2 148.34"/>
      <path class="s" d="M1307.93,178.16c-.56,0-1.11-.23-1.5-.68l-109.54-124.32c-.39-.45-.57-1.05-.47-1.63s.44-1.1.96-1.41l7.86-4.66c.68-.4,1.54-.37,2.18.09l5.47,3.92,135.48,97.24c.53.38.84.98.83,1.63s-.32,1.25-.84,1.63l-39.27,27.82c-.35.25-.75.37-1.16.37ZM1201.49,52.33l106.75,121.16,35.51-25.16-137.61-98.76-4.66,2.76Z"/>
    </g>
    <g>
      <polygon class="q" points="1409.75 120.39 1354.52 143.55 1216.49 46.52 1228.87 43.85 1409.75 120.39"/>
      <path class="s" d="M1354.52,145.55c-.41,0-.81-.12-1.15-.36l-138.03-97.03c-.65-.46-.97-1.26-.81-2.03.16-.78.76-1.39,1.54-1.56l12.38-2.67c.4-.09.82-.05,1.2.11l180.88,76.54c.74.31,1.22,1.04,1.22,1.85,0,.8-.48,1.53-1.23,1.84l-55.23,23.16c-.25.1-.51.16-.77.16ZM1221.38,47.51l133.39,93.77,49.83-20.9-175.92-74.44-7.29,1.57Z"/>
    </g>
    <g>
      <polygon class="q" points="1335.62 184.14 1347.2 148.34 1211.72 51.1 1216.49 46.52 1354.52 143.55 1335.62 184.14"/>
      <path class="s" d="M1335.62,186.14c-.24,0-.49-.04-.73-.14-.98-.39-1.5-1.47-1.17-2.48l11.13-34.41-134.29-96.39c-.48-.35-.79-.89-.83-1.48-.04-.59.18-1.17.61-1.59l4.77-4.58c.69-.66,1.75-.74,2.54-.19l138.03,97.03c.79.56,1.07,1.6.66,2.48l-18.9,40.59c-.34.72-1.06,1.16-1.81,1.16ZM1214.84,50.88l133.53,95.84c.71.51,1,1.41.74,2.24l-1.58,4.88,4.47-9.61-135.31-95.12-1.85,1.77Z"/>
    </g>
    <polygon class="s" points="1213.12 52.52 1210.3 49.7 1213.13 52.51 1213.12 52.52"/>
    <g>
      <polygon class="n" points="1347.2 148.34 1335.62 184.14 1321.93 166.24 1347.2 148.34"/>
      <path class="s" d="M1335.62,186.14c-.62,0-1.21-.29-1.59-.79l-13.69-17.9c-.33-.43-.47-.98-.39-1.52.08-.54.38-1.02.82-1.33l25.27-17.9c.7-.5,1.65-.49,2.34.02.69.51.98,1.41.72,2.23l-11.58,35.8c-.23.71-.83,1.23-1.56,1.36-.11.02-.23.03-.34.03ZM1324.78,166.67l10.11,13.22,8.55-26.44-18.67,13.22Z"/>
    </g>
  </g>
  <g>
    <g>
      <polygon class="i" points="1248.06 330.1 1167.66 370.94 1143.08 335.43 1136.98 258.65 1135.92 245.28 1149.71 241.11 1152.72 243.84 1247.31 329.42 1248.06 330.1"/>
      <path class="s" d="M1167.66,372.94c-.64,0-1.26-.31-1.65-.86l-24.58-35.51c-.2-.29-.32-.63-.35-.98l-7.16-90.15c-.07-.94.51-1.8,1.42-2.07l13.79-4.17c.67-.2,1.4-.04,1.92.43l3.01,2.73,95.34,86.26c.49.44.73,1.1.64,1.75-.09.65-.49,1.22-1.08,1.52l-80.4,40.84c-.29.15-.6.22-.91.22ZM1145.03,334.73l23.28,33.63,76.25-38.73-95.36-86.28-11.16,3.38,6.99,88.01Z"/>
    </g>
    <g>
      <polygon class="i" points="1136.98 258.65 1107.43 254.64 1135.92 245.28 1136.98 258.65"/>
      <path class="s" d="M1136.98,260.65c-.09,0-.18,0-.27-.02l-29.55-4.01c-.92-.13-1.64-.87-1.72-1.8-.08-.93.48-1.79,1.37-2.08l28.49-9.36c.58-.19,1.22-.11,1.73.23.51.34.84.9.89,1.51l1.06,13.37c.05.6-.18,1.2-.62,1.61-.37.35-.87.55-1.37.55ZM1116.31,253.83l18.48,2.51-.66-8.36-17.81,5.85Z"/>
    </g>
    <g>
      <polygon class="i" points="1320.78 290.35 1250.79 328.66 1154.65 240.72 1168.83 236.3 1188.4 241.83 1289.43 270.38 1320.78 290.35"/>
      <path class="s" d="M1250.79,330.66c-.49,0-.97-.18-1.35-.52l-96.14-87.94c-.53-.48-.76-1.21-.6-1.91.16-.7.67-1.26,1.36-1.47l14.18-4.42c.37-.12.77-.12,1.14-.02l120.6,34.08c.19.05.37.13.53.24l31.35,19.97c.6.38.95,1.05.92,1.75s-.42,1.35-1.04,1.69l-69.99,38.31c-.3.17-.63.25-.96.25ZM1158.57,241.59l92.52,84.62,65.77-36-28.25-18-119.74-33.84-10.29,3.21Z"/>
    </g>
    <g>
      <polygon class="i" points="1250.79 328.66 1247.31 329.42 1152.72 243.84 1154.65 240.72 1250.79 328.66"/>
      <path class="s" d="M1247.31,331.42c-.49,0-.97-.18-1.34-.52l-94.59-85.58c-.72-.65-.87-1.71-.36-2.54l1.93-3.12c.31-.51.84-.85,1.43-.93s1.19.1,1.62.51l96.14,87.94c.55.5.78,1.27.58,2s-.78,1.28-1.5,1.43l-3.48.76c-.14.03-.29.05-.43.05Z"/>
    </g>
    <g>
      <polygon class="i" points="1194.72 229.67 1188.4 241.83 1168.83 236.3 1194.72 229.67"/>
      <path class="s" d="M1188.4,243.83c-.18,0-.36-.02-.54-.08l-19.57-5.53c-.87-.25-1.47-1.05-1.46-1.95.01-.9.63-1.69,1.5-1.91l25.89-6.63c.76-.2,1.57.08,2.06.69s.57,1.47.21,2.17l-6.32,12.16c-.35.67-1.04,1.08-1.77,1.08ZM1176.52,236.39l10.86,3.07,3.5-6.75-14.36,3.68Z"/>
    </g>
  </g>
  <g>
    <g>
      <polygon class="h" points="1056.99 191.03 1048.85 194.4 956.05 232.81 910.12 158.57 997.12 125.49 1011.73 141.48 1056.99 191.03"/>
      <path class="s" d="M956.05,234.81c-.68,0-1.33-.34-1.7-.95l-45.93-74.24c-.31-.51-.38-1.13-.19-1.69.19-.56.63-1.02,1.18-1.23l87-33.08c.77-.29,1.63-.09,2.19.52l59.87,65.54c.44.48.62,1.15.48,1.78-.14.64-.58,1.16-1.19,1.41l-100.94,41.78c-.25.1-.51.15-.76.15ZM913.1,159.58l43.76,70.73,96.73-40.04-57.03-62.43-83.46,31.74Z"/>
    </g>
    <g>
      <polygon class="h" points="1146.33 147.43 1060.65 189.81 1006.51 123.01 1006.38 122.85 1076.94 98.27 1146.33 147.43"/>
      <path class="s" d="M1060.65,191.81c-.59,0-1.17-.26-1.55-.74l-54.27-66.96c-.41-.51-.55-1.18-.37-1.81.18-.63.65-1.13,1.27-1.34l70.56-24.58c.61-.21,1.29-.12,1.81.26l69.39,49.16c.57.41.89,1.09.84,1.79-.06.7-.48,1.32-1.11,1.64l-85.68,42.38c-.28.14-.59.21-.89.21ZM1009.73,123.8l51.47,63.51,81.24-40.18-65.81-46.63-66.9,23.3Z"/>
    </g>
    <g>
      <polygon class="h" points="1060.65 189.81 1059.73 204.91 1056.99 191.03 1011.73 141.48 1006.51 123.01 1060.65 189.81"/>
      <path class="s" d="M1059.73,206.91c-.95,0-1.78-.67-1.96-1.61l-2.63-13.33-44.88-49.14c-.21-.23-.36-.51-.45-.8l-5.22-18.47c-.26-.91.16-1.88,1-2.32.85-.44,1.88-.22,2.47.52l54.14,66.8c.32.39.47.88.44,1.38l-.92,15.1c-.06,1-.86,1.81-1.86,1.87-.04,0-.09,0-.13,0ZM1013.53,140.48l40.55,44.39-42.99-53.05,2.45,8.66Z"/>
    </g>
    <path class="s" d="M1059.73,206.91c-.51,0-1.01-.19-1.39-.56l-10.88-10.51c-.48-.47-.7-1.15-.58-1.81.13-.66.58-1.22,1.2-1.47l8.14-3.37c.55-.23,1.18-.2,1.71.08.53.28.9.79,1.02,1.38l2.74,13.88c.17.86-.24,1.73-1,2.14-.3.16-.63.24-.96.24ZM1052.43,195.08l4.1,3.96-1.03-5.23-3.07,1.27Z"/>
    <g>
      <polygon class="n" points="997.12 125.49 930.21 116.91 973.34 102.51 981.3 110.2 981.3 110.21 997.12 125.49"/>
      <path class="s" d="M997.12,127.49c-.08,0-.17,0-.25-.02l-66.91-8.58c-.93-.12-1.65-.86-1.74-1.79s.47-1.8,1.36-2.09l43.13-14.4c.71-.24,1.49-.06,2.02.46l7.96,7.69s.08.08.12.12l15.71,15.17c.62.6.79,1.53.41,2.3-.34.7-1.04,1.13-1.8,1.13ZM939.14,116.04l52.26,6.7-11.48-11.09s-.08-.08-.12-.12l-6.97-6.74-33.69,11.25Z"/>
    </g>
    <g>
      <polygon class="n" points="997.12 125.49 910.12 158.57 904.36 149.26 930.21 116.91 997.12 125.49"/>
      <path class="s" d="M910.12,160.57c-.68,0-1.33-.34-1.7-.95l-5.76-9.31c-.44-.72-.39-1.64.14-2.3l25.85-32.35c.43-.55,1.12-.83,1.82-.74l66.91,8.58c.91.12,1.62.84,1.73,1.75.11.91-.42,1.78-1.28,2.1l-87,33.08c-.23.09-.47.13-.71.13ZM906.8,149.41l4.15,6.71,77.99-29.66-57.88-7.42-24.27,30.37Z"/>
    </g>
    <g>
      <polygon class="h" points="1155.04 131.55 1146.33 147.43 1076.94 98.27 1084.49 83.75 1155.04 131.55"/>
      <path class="s" d="M1146.33,149.43c-.41,0-.82-.13-1.16-.37l-69.39-49.16c-.82-.58-1.08-1.67-.62-2.55l7.55-14.52c.26-.51.73-.88,1.28-1.02.55-.14,1.14-.04,1.61.28l70.55,47.8c.85.58,1.13,1.71.63,2.62l-8.71,15.88c-.27.5-.75.86-1.3.99-.15.03-.3.05-.45.05ZM1079.52,97.65l66.14,46.85,6.76-12.32-67.18-45.52-5.71,10.98Z"/>
    </g>
    <g>
      <polygon class="n" points="1084.49 83.75 1076.94 98.27 1006.38 122.85 1025.48 84.67 1069.62 88.67 1084.49 83.75"/>
      <path class="s" d="M1006.38,124.85c-.56,0-1.12-.24-1.5-.68-.54-.61-.65-1.49-.29-2.22l19.1-38.18c.37-.74,1.16-1.17,1.97-1.1l43.73,3.96,14.48-4.79c.77-.25,1.62-.02,2.15.6.53.62.63,1.5.25,2.22l-7.55,14.52c-.24.45-.63.8-1.12.97l-70.56,24.58c-.22.08-.44.11-.66.11ZM1026.66,86.78l-16.29,32.56,65.16-22.7,4.91-9.45-10.2,3.37c-.26.09-.53.12-.81.09l-42.78-3.88Z"/>
    </g>
    <g>
      <polygon class="n" points="1025.48 84.67 1006.38 122.85 986.6 99.88 1025.48 84.67"/>
      <path class="s" d="M1006.38,124.85c-.58,0-1.13-.25-1.52-.69l-19.78-22.97c-.42-.49-.58-1.16-.43-1.79.16-.63.61-1.14,1.21-1.38l38.88-15.21c.77-.3,1.65-.1,2.21.51.56.61.68,1.5.31,2.24l-19.1,38.18c-.3.6-.88,1.01-1.54,1.09-.08.01-.16.02-.25.02ZM989.96,100.71l15.98,18.55,15.43-30.84-31.41,12.29Z"/>
    </g>
    <g>
      <polygon class="n" points="1011.73 141.48 997.12 125.49 981.3 110.21 981.3 110.2 986.6 99.88 1006.38 122.85 1006.51 123.01 1011.73 141.48"/>
      <path class="s" d="M1011.73,143.48c-.55,0-1.09-.22-1.48-.65l-14.57-15.94-15.78-15.24c-.39-.38-.61-.9-.61-1.44,0-.32.08-.64.22-.92l5.3-10.32c.3-.59.88-.99,1.54-1.07.67-.08,1.32.18,1.75.68l19.95,23.17c.17.21.3.46.37.72l5.22,18.47c.25.89-.14,1.84-.95,2.29-.31.17-.64.25-.97.25ZM983.75,109.8l14.76,14.25s.06.06.09.09l8.91,9.75-2.81-9.93-17.68-20.53-3.27,6.36Z"/>
    </g>
    <rect class="s" x="1004.48" y="122.83" width="4" height=".19" transform="translate(3.63 272.6) rotate(-15.45)"/>
    <g>
      <polygon class="n" points="910.12 158.57 893.38 150.93 904.36 149.26 910.12 158.57"/>
      <path class="s" d="M910.12,160.57c-.28,0-.56-.06-.83-.18l-16.74-7.64c-.8-.37-1.27-1.22-1.15-2.1.12-.88.8-1.57,1.68-1.7l10.98-1.67c.79-.12,1.58.24,2,.92l5.76,9.31c.46.75.38,1.71-.2,2.37-.39.44-.94.68-1.5.68ZM900.32,151.9l4.63,2.11-1.59-2.58-3.04.46Z"/>
    </g>
    <g>
      <polygon class="h" points="956.05 232.81 893.38 150.93 910.12 158.57 956.05 232.81"/>
      <path class="s" d="M956.05,234.81c-.6,0-1.2-.27-1.59-.78l-62.67-81.88c-.56-.73-.55-1.74.02-2.46.57-.72,1.56-.95,2.39-.57l16.74,7.64c.36.16.66.43.87.77l45.93,74.24c.56.91.31,2.09-.57,2.7-.35.24-.74.35-1.13.35ZM899.84,156.08l33.33,43.54-24.42-39.48-8.9-4.06Z"/>
    </g>
  </g>
  <g>
    <path class="t" d="M369.29,406.09c0-14.94,17.82-16.68,17.82-24.42,0-2.88-1.8-4.98-5.34-4.98-3,0-5.22.9-6.48,1.38-1.26.54-2.82.48-3.48-.96l-.9-1.98c-.66-1.5,0-2.94,1.44-3.6,1.92-.84,5.4-2.1,9.84-2.1,7.8,0,13.62,4.92,13.62,12.24,0,11.34-17.22,15.3-17.22,22.08h14.46c1.62,0,2.7,1.08,2.7,2.7v1.62c0,1.62-1.08,2.7-2.7,2.7h-21.06c-1.62,0-2.7-1.08-2.7-2.7v-1.98Z"/>
    <path class="t" d="M401.57,385.99c0-11.34,6.66-16.56,14.94-16.56s14.94,5.22,14.94,16.56v8.94c0,11.4-6.84,16.62-14.94,16.62s-14.94-5.22-14.94-16.62v-8.94ZM422.93,394.93v-8.94c0-6.9-2.76-9.3-6.42-9.3s-6.42,2.4-6.42,9.3v8.94c0,6.9,2.76,9.36,6.42,9.36s6.42-2.46,6.42-9.36Z"/>
    <path class="t" d="M436.61,406.09c0-14.94,17.82-16.68,17.82-24.42,0-2.88-1.8-4.98-5.34-4.98-3,0-5.22.9-6.48,1.38-1.26.54-2.82.48-3.48-.96l-.9-1.98c-.66-1.5,0-2.94,1.44-3.6,1.92-.84,5.4-2.1,9.84-2.1,7.8,0,13.62,4.92,13.62,12.24,0,11.34-17.22,15.3-17.22,22.08h14.46c1.62,0,2.7,1.08,2.7,2.7v1.62c0,1.62-1.08,2.7-2.7,2.7h-21.06c-1.62,0-2.7-1.08-2.7-2.7v-1.98Z"/>
    <path class="t" d="M468.89,384.73c0-8.28,5.22-15.3,15-15.3,2.94,0,5.46.48,7.74,1.08,1.5.42,2.1,1.86,1.68,3.42l-.48,1.8c-.42,1.62-1.92,2.1-3.42,1.68-1.62-.42-3.42-.72-5.52-.72-3.6,0-6.42,2.82-6.42,7.02v1.38c2.28-1.8,4.56-2.4,6.96-2.4,7.74,0,13.2,5.28,13.2,14.52s-6.66,14.34-14.4,14.34-14.34-5.04-14.34-13.86v-12.96ZM483.17,404.29c3.84,0,5.76-3.18,5.76-7.08,0-4.62-1.5-8.04-5.76-8.04-2.04,0-3.96.66-5.76,2.4v6.18c0,3.48,1.98,6.54,5.76,6.54Z"/>
    <path class="t" d="M515.51,406.99l.48-2.04c.36-1.5,1.8-2.16,3.36-1.74,1.26.3,4.08,1.08,7.44,1.08,3.54,0,6.9-2.28,6.9-6.9,0-4.02-2.88-5.82-7.68-5.82h-6.06c-1.62,0-2.7-1.08-2.64-2.7l.6-16.02c.06-1.62,1.14-2.64,2.76-2.64h17.88c1.62,0,2.46.96,2.16,2.64l-.42,2.34c-.3,1.62-1.2,2.28-2.82,2.28h-11.94l-.36,7.2h1.62c9.18,0,15.6,4.02,15.6,12.66,0,9.66-8.1,14.22-15.3,14.22-4.08,0-7.8-.84-9.66-1.32-1.56-.42-2.28-1.68-1.92-3.24Z"/>
    <path class="t" d="M557.98,369.43c.36-1.56,1.44-2.58,3.3-2.58h2.1c1.62,0,2.4,1.26,2.04,2.82l-9.96,42.3c-.36,1.56-1.5,2.58-3.3,2.58h-2.04c-1.62,0-2.46-1.02-2.1-2.58l9.96-42.54Z"/>
    <path class="t" d="M570.82,406.09c0-14.94,17.82-16.68,17.82-24.42,0-2.88-1.8-4.98-5.34-4.98-3,0-5.22.9-6.48,1.38-1.26.54-2.82.48-3.48-.96l-.9-1.98c-.66-1.5,0-2.94,1.44-3.6,1.92-.84,5.4-2.1,9.84-2.1,7.8,0,13.62,4.92,13.62,12.24,0,11.34-17.22,15.3-17.22,22.08h14.46c1.62,0,2.7,1.08,2.7,2.7v1.62c0,1.62-1.08,2.7-2.7,2.7h-21.06c-1.62,0-2.7-1.08-2.7-2.7v-1.98Z"/>
    <path class="t" d="M602.26,406.09c0-14.94,17.82-16.68,17.82-24.42,0-2.88-1.8-4.98-5.34-4.98-3,0-5.22.9-6.48,1.38-1.26.54-2.82.48-3.48-.96l-.9-1.98c-.66-1.5,0-2.94,1.44-3.6,1.92-.84,5.4-2.1,9.84-2.1,7.8,0,13.62,4.92,13.62,12.24,0,11.34-17.22,15.3-17.22,22.08h14.46c1.62,0,2.7,1.08,2.7,2.7v1.62c0,1.62-1.08,2.7-2.7,2.7h-21.06c-1.62,0-2.7-1.08-2.7-2.7v-1.98Z"/>
    <path class="t" d="M635.74,395.41v-1.68c0-1.62,1.08-2.7,2.7-2.7h16.14c1.62,0,2.7,1.08,2.7,2.7v1.68c0,1.62-1.08,2.7-2.7,2.7h-16.14c-1.62,0-2.7-1.08-2.7-2.7Z"/>
    <path class="t" d="M663.64,406.09c0-14.94,17.82-16.68,17.82-24.42,0-2.88-1.8-4.98-5.34-4.98-3,0-5.22.9-6.48,1.38-1.26.54-2.82.48-3.48-.96l-.9-1.98c-.66-1.5,0-2.94,1.44-3.6,1.92-.84,5.4-2.1,9.84-2.1,7.8,0,13.62,4.92,13.62,12.24,0,11.34-17.22,15.3-17.22,22.08h14.46c1.62,0,2.7,1.08,2.7,2.7v1.62c0,1.62-1.08,2.7-2.7,2.7h-21.06c-1.62,0-2.7-1.08-2.7-2.7v-1.98Z"/>
    <path class="t" d="M694.72,406.75l.54-1.74c.48-1.56,1.68-2.22,3.42-1.68,1.86.48,4.02.96,6.66.96,4.2,0,7.2-2.4,7.2-6.06,0-2.7-1.38-5.22-6-5.22h-2.46c-1.62,0-2.82-.66-3.12-2.22l-.42-2.16c-.36-1.86.24-2.76,1.44-3.9l7.74-7.26h-11.76c-1.62,0-2.64-.72-2.88-2.28l-.36-2.28c-.24-1.56.66-2.7,2.28-2.7h19.26c1.62,0,2.76.84,2.88,2.4l.18,2.22c.12,1.62-.54,3.06-1.56,4.02l-8.04,7.62c5.94.18,11.52,4.92,11.52,11.76,0,8.34-7.44,13.32-15.72,13.32-3.72,0-7.38-.96-9-1.44-1.56-.48-2.28-1.8-1.8-3.36Z"/>
  </g>
  <g>
    <path class="t" d="M258.02,429.24c0-.97.65-1.62,1.62-1.62h6.33c5.15,0,8.35,2.84,8.35,6.84,0,2.27-1.15,3.82-3.06,4.72,2.45.9,3.96,2.66,3.96,5.36,0,4.1-3.71,7.42-9.07,7.42h-6.52c-.97,0-1.62-.65-1.62-1.62v-21.09ZM265.58,437.34c2.2,0,3.38-1.12,3.38-2.63s-.9-2.59-3.13-2.59h-2.52v5.22h2.27ZM266.12,447.45c2.34,0,3.74-1.26,3.74-2.92s-1.12-2.92-3.46-2.92h-3.1v5.83h2.81Z"/>
    <path class="t" d="M278.65,429.24c0-.97.65-1.62,1.62-1.62h11.3c.97,0,1.62.65,1.62,1.62v1.26c0,.97-.65,1.62-1.62,1.62h-7.63v5.4h6.16c.97,0,1.58.47,1.55,1.48l-.07,1.4c-.04.97-.72,1.44-1.69,1.44h-5.94v5.62h7.96c.97,0,1.62.65,1.62,1.62v1.26c0,.97-.65,1.62-1.62,1.62h-11.63c-.97,0-1.62-.65-1.62-1.62v-21.09Z"/>
    <path class="t" d="M297.48,429.24c0-.97.65-1.62,1.62-1.62h2.05c.97,0,1.62.65,1.62,1.62v18.21h8.1c.97,0,1.58.58,1.55,1.55l-.07,1.33c-.04.97-.72,1.62-1.69,1.62h-11.55c-.97,0-1.62-.65-1.62-1.62v-21.09Z"/>
    <path class="t" d="M315.55,429.24c0-.97.65-1.62,1.62-1.62h2.05c.97,0,1.62.65,1.62,1.62v18.21h8.1c.97,0,1.58.58,1.55,1.55l-.07,1.33c-.04.97-.72,1.62-1.69,1.62h-11.55c-.97,0-1.62-.65-1.62-1.62v-21.09Z"/>
    <path class="t" d="M333.62,429.24c0-.97.65-1.62,1.62-1.62h11.3c.97,0,1.62.65,1.62,1.62v1.26c0,.97-.65,1.62-1.62,1.62h-7.63v5.4h6.16c.97,0,1.58.47,1.55,1.48l-.07,1.4c-.04.97-.72,1.44-1.69,1.44h-5.94v5.62h7.96c.97,0,1.62.65,1.62,1.62v1.26c0,.97-.65,1.62-1.62,1.62h-11.63c-.97,0-1.62-.65-1.62-1.62v-21.09Z"/>
    <path class="t" d="M351.55,449.32l.29-1.26c.22-.94,1.04-1.3,1.94-1.01.97.29,2.99.86,5.22.86,1.87,0,2.99-1.12,2.99-2.74,0-4.36-10.15-3.24-10.15-11.19,0-4.21,3.64-6.84,8.21-6.84,2.16,0,4.03.5,5.44.97.94.32,1.26,1.19.97,2.09l-.36,1.12c-.29.9-1.04,1.33-1.98,1.01-1.3-.4-2.48-.68-4.07-.68-2.05,0-2.74,1.04-2.74,2.27,0,4.07,10.15,2.81,10.15,11.23,0,4.86-4.07,7.27-8.46,7.27-2.77,0-5.11-.61-6.44-1.04-.86-.29-1.22-1.08-1.01-2.05Z"/>
    <path class="t" d="M375.92,429.16c.29-.94,1.12-1.55,2.09-1.55h2.88c.97,0,1.8.61,2.09,1.55l6.33,21.09c.29.97-.18,1.69-1.15,1.69h-2.23c-.97,0-1.62-.47-1.87-1.4l-1.22-4.46h-6.77l-1.22,4.43c-.25.94-.86,1.44-1.84,1.44h-2.27c-.97,0-1.44-.72-1.15-1.69l6.34-21.09ZM381.65,441.8l-1.26-4.61c-.32-1.12-.65-2.63-.94-4.14-.29,1.51-.65,3.02-.94,4.14l-1.26,4.61h4.39Z"/>
    <path class="t" d="M392.7,429.24c0-.97.65-1.62,1.62-1.62h2.05c.97,0,1.62.65,1.62,1.62v18.21h8.1c.97,0,1.58.58,1.55,1.55l-.07,1.33c-.04.97-.72,1.62-1.69,1.62h-11.55c-.97,0-1.62-.65-1.62-1.62v-21.09Z"/>
    <path class="t" d="M410.77,429.24c0-.97.65-1.62,1.62-1.62h2.05c.97,0,1.62.65,1.62,1.62v18.21h8.1c.97,0,1.58.58,1.55,1.55l-.07,1.33c-.04.97-.72,1.62-1.69,1.62h-11.55c-.97,0-1.62-.65-1.62-1.62v-21.09Z"/>
    <path class="t" d="M428.84,429.24c0-.97.65-1.62,1.62-1.62h11.3c.97,0,1.62.65,1.62,1.62v1.26c0,.97-.65,1.62-1.62,1.62h-7.63v5.4h6.16c.97,0,1.58.47,1.55,1.48l-.07,1.4c-.04.97-.72,1.44-1.69,1.44h-5.94v5.62h7.96c.97,0,1.62.65,1.62,1.62v1.26c0,.97-.65,1.62-1.62,1.62h-11.63c-.97,0-1.62-.65-1.62-1.62v-21.09Z"/>
    <path class="t" d="M455.23,429.24c0-.97.65-1.62,1.62-1.62h2.05c.97,0,1.62.65,1.62,1.62v8.13h7.49v-8.13c0-.97.65-1.62,1.62-1.62h2.05c.97,0,1.62.65,1.62,1.62v21.09c0,.97-.65,1.62-1.62,1.62h-2.05c-.97,0-1.62-.65-1.62-1.62v-8.57h-7.49v8.57c0,.97-.65,1.62-1.62,1.62h-2.05c-.97,0-1.62-.65-1.62-1.62v-21.09Z"/>
    <path class="t" d="M483.02,429.16c.29-.94,1.12-1.55,2.09-1.55h2.88c.97,0,1.8.61,2.09,1.55l6.33,21.09c.29.97-.18,1.69-1.15,1.69h-2.23c-.97,0-1.62-.47-1.87-1.4l-1.22-4.46h-6.77l-1.22,4.43c-.25.94-.86,1.44-1.84,1.44h-2.27c-.97,0-1.44-.72-1.15-1.69l6.34-21.09ZM488.74,441.8l-1.26-4.61c-.32-1.12-.65-2.63-.94-4.14-.29,1.51-.65,3.02-.94,4.14l-1.26,4.61h4.39Z"/>
    <path class="t" d="M499.8,429.24c0-.97.65-1.62,1.62-1.62h1.33c.97,0,1.66.54,2.2,1.44l7.49,12.46c-.07-1.37-.11-2.66-.11-3.71v-8.57c0-.97.65-1.62,1.62-1.62h2.05c.97,0,1.62.65,1.62,1.62v21.09c0,.97-.65,1.62-1.62,1.62h-1.33c-.97,0-1.73-.58-2.23-1.44l-7.49-12.38c.11,1.4.14,2.74.14,3.82v8.39c0,.97-.65,1.62-1.62,1.62h-2.05c-.97,0-1.62-.65-1.62-1.62v-21.09Z"/>
    <path class="t" d="M522.3,429.24c0-.97.65-1.62,1.62-1.62h11.3c.97,0,1.62.65,1.62,1.62v1.26c0,.97-.65,1.62-1.62,1.62h-7.63v5.4h6.16c.97,0,1.58.47,1.55,1.48l-.07,1.4c-.04.97-.72,1.44-1.69,1.44h-5.94v5.62h7.96c.97,0,1.62.65,1.62,1.62v1.26c0,.97-.65,1.62-1.62,1.62h-11.63c-.97,0-1.62-.65-1.62-1.62v-21.09Z"/>
    <path class="t" d="M541.12,430.89c0-1.04.68-1.87,1.62-2.2,1.84-.61,4.75-1.55,7.59-1.55,4.97,0,9.21,3.28,9.21,9.25v6.55c0,5.94-3.49,9-9.21,9h-7.59c-.97,0-1.62-.65-1.62-1.62v-19.44ZM550.34,447.45c2.77,0,3.92-1.19,3.92-4.9v-5.72c0-3.6-1.58-5.18-3.92-5.18-1.3,0-2.56.22-3.92.68v15.12h3.92Z"/>
    <path class="t" d="M568.66,429.16c.29-.94,1.12-1.55,2.09-1.55h2.88c.97,0,1.8.61,2.09,1.55l6.33,21.09c.29.97-.18,1.69-1.15,1.69h-2.23c-.97,0-1.62-.47-1.87-1.4l-1.22-4.46h-6.77l-1.22,4.43c-.25.94-.86,1.44-1.84,1.44h-2.27c-.97,0-1.44-.72-1.15-1.69l6.34-21.09ZM574.39,441.8l-1.26-4.61c-.32-1.12-.65-2.63-.94-4.14-.29,1.51-.65,3.02-.94,4.14l-1.26,4.61h4.39Z"/>
    <path class="t" d="M598.04,429.16c.29-.94,1.12-1.55,2.09-1.55h2.88c.97,0,1.8.61,2.09,1.55l6.34,21.09c.29.97-.18,1.69-1.15,1.69h-2.23c-.97,0-1.62-.47-1.87-1.4l-1.22-4.46h-6.77l-1.22,4.43c-.25.94-.86,1.44-1.84,1.44h-2.27c-.97,0-1.44-.72-1.15-1.69l6.34-21.09ZM603.76,441.8l-1.26-4.61c-.32-1.12-.65-2.63-.94-4.14-.29,1.51-.65,3.02-.94,4.14l-1.26,4.61h4.39Z"/>
    <path class="t" d="M614.81,429.24c0-.97.65-1.62,1.62-1.62h2.05c.97,0,1.62.65,1.62,1.62v21.09c0,.97-.65,1.62-1.62,1.62h-2.05c-.97,0-1.62-.65-1.62-1.62v-21.09Z"/>
    <path class="t" d="M624.79,429.24c0-.97.65-1.62,1.62-1.62h7.05c4.93,0,7.99,3.67,7.99,7.78,0,2.95-1.58,5.51-4.32,6.73l3.64,7.78c.54,1.12-.04,2.05-1.15,2.05h-2.34c-.97,0-1.69-.58-2.09-1.48l-3.31-7.6h-1.8v7.45c0,.97-.65,1.62-1.62,1.62h-2.05c-.97,0-1.62-.65-1.62-1.62v-21.09ZM633.21,438.67c1.69,0,2.92-1.3,2.92-3.28s-1.22-3.28-2.92-3.28h-3.13v6.55h3.13Z"/>
    <path class="t" d="M644.98,429.24c0-.97.65-1.62,1.62-1.62h7.05c4.93,0,7.99,3.67,7.99,7.78s-3.06,7.67-7.99,7.67h-3.38v7.27c0,.97-.65,1.62-1.62,1.62h-2.05c-.97,0-1.62-.65-1.62-1.62v-21.09ZM653.48,438.67c1.69,0,2.81-1.3,2.81-3.28s-1.12-3.28-2.81-3.28h-3.2v6.55h3.2Z"/>
    <path class="t" d="M664.1,437.23c0-6.7,4.32-10.08,9.61-10.08s9.65,3.38,9.65,10.08v5.15c0,6.73-4.32,10.04-9.65,10.04s-9.61-3.31-9.61-10.04v-5.15ZM678.06,441.98v-4.39c0-4.39-1.84-5.94-4.36-5.94s-4.32,1.55-4.32,5.94v4.39c0,4.5,1.76,5.94,4.32,5.94s4.36-1.44,4.36-5.94Z"/>
    <path class="t" d="M687.42,429.24c0-.97.65-1.62,1.62-1.62h7.05c4.93,0,7.99,3.67,7.99,7.78,0,2.95-1.58,5.51-4.32,6.73l3.64,7.78c.54,1.12-.04,2.05-1.15,2.05h-2.34c-.97,0-1.69-.58-2.09-1.48l-3.31-7.6h-1.8v7.45c0,.97-.65,1.62-1.62,1.62h-2.05c-.97,0-1.62-.65-1.62-1.62v-21.09ZM695.85,438.67c1.69,0,2.92-1.3,2.92-3.28s-1.22-3.28-2.92-3.28h-3.13v6.55h3.13Z"/>
    <path class="t" d="M711.9,432.12h-4.28c-.97,0-1.62-.65-1.62-1.62v-1.26c0-.97.65-1.62,1.62-1.62h13.86c.97,0,1.62.65,1.62,1.62v1.26c0,.97-.65,1.62-1.62,1.62h-4.28v18.21c0,.97-.65,1.62-1.62,1.62h-2.05c-.97,0-1.62-.65-1.62-1.62v-18.21Z"/>
  </g>
  <g>
    <path class="l" d="M702.27,305.8c0,2.19,1.77,3.96,3.95,3.96h11.18c2.18,0,3.95-1.77,3.95-3.96v-76.87c0-2.19-1.77-3.96-3.95-3.96h-11.18c-2.18,0-3.95,1.77-3.95,3.96v76.87Z"/>
    <path class="l" d="M703.1,209.51c2.43,2.44,5.31,3.66,8.63,3.66s6.3-1.22,8.63-3.66c2.43-2.44,3.65-5.32,3.65-8.64s-1.22-6.21-3.65-8.64c-2.32-2.44-5.2-3.66-8.63-3.66s-6.19,1.22-8.63,3.66c-2.43,2.44-3.65,5.32-3.65,8.64s1.22,6.21,3.65,8.64Z"/>
    <path class="m" d="M646.17,243.32h16.68c2.69,0,4.86,2.18,4.86,4.88v12.57c0,16.06-12.98,29.08-29,29.08-2.75,0-4.97-2.23-4.97-4.99v-29.08c0-6.88,5.56-12.46,12.43-12.46ZM614.69,255.78c0-17.44,14.1-31.58,31.48-31.58h16.68c13.21,0,23.92,10.74,23.92,23.99,0,21.54-.04,43.07-.04,64.61,0,17.44-14.1,31.58-31.48,31.58h-35.82c-2.19,0-3.96-1.77-3.96-3.96v-11.19c0-2.19,1.77-3.96,3.96-3.96h35.82c6.86,0,12.43-5.58,12.43-12.46v-10.97c-.07-1.49-.51-2.11-2.45-.86-7.6,5.05-16.71,7.99-26.52,7.99-13.27,0-24.03-10.79-24.03-24.1v-29.08Z"/>
    <path class="l" d="M579.67,305.8c0,2.19,1.88,3.96,4.2,3.96h11.9c2.32,0,4.2-1.77,4.2-3.96v-76.87c0-2.19-1.88-3.96-4.2-3.96h-11.9c-2.32,0-4.2,1.77-4.2,3.96v76.87Z"/>
    <path class="l" d="M580.56,209.51c2.59,2.44,5.65,3.66,9.18,3.66s6.71-1.22,9.18-3.66c2.59-2.44,3.89-5.32,3.89-8.64s-1.3-6.21-3.89-8.64c-2.47-2.44-5.53-3.66-9.18-3.66s-6.59,1.22-9.18,3.66c-2.59,2.44-3.89,5.32-3.89,8.64s1.3,6.21,3.89,8.64Z"/>
    <path class="m" d="M522.61,243.32h16.68c2.69,0,4.86,2.18,4.86,4.88v12.57c0,16.06-12.98,29.08-29,29.08-2.75,0-4.97-2.23-4.97-4.99v-29.08c0-6.88,5.56-12.46,12.43-12.46ZM491.12,255.78c0-17.44,14.1-31.58,31.48-31.58h16.68c13.21,0,23.92,10.74,23.92,23.99v57.96c0,1.55-1.69,2.81-3.77,2.81h-10.67c-2.08,0-3.77-1.26-3.77-2.81v-4.49c-.02-1.79-.35-2.65-2.48-1.27h0c-7.76,5.4-17.19,8.56-27.35,8.56-13.27,0-24.03-10.79-24.03-24.1v-29.08Z"/>
    <path class="l" d="M400.3,308.96c-2.77,0-5.02-2.25-5.02-5.02v-104.81c0-2.77,2.25-5.02,5.02-5.02h9.47c2.77,0,5.02,2.25,5.02,5.02v39.67c0,2.77,2.25,5.02,5.02,5.02h10.31c4.15,0,7.93-.77,11.32-2.3,3.5-1.64,6.23-3.99,8.2-7.06,2.08-3.06,3.12-6.73,3.12-10.99v-24.35c0-2.77,2.25-5.02,5.02-5.02h9.47c2.77,0,5.02,2.25,5.02,5.02v24.18c0,7.55-1.86,14.17-5.58,19.85-2.84,4.35-6.39,7.97-10.65,10.85-2.22,1.5-3.23,4.36-2.12,6.79l12.44,27.15c.55,1.31,1.26,2.24,2.13,2.79.88.55,2.02.82,3.44.82h4.66c2.77,0,5.02,2.25,5.02,5.02v7.35c0,2.77-2.25,5.02-5.02,5.02h-7.61c-5.14,0-9.4-1.09-12.79-3.28-3.28-2.19-5.79-5.2-7.54-9.02l-14.96-32.62c-.86-1.89-2.82-3.02-4.89-2.82h-9c-2.77,0-5.02,2.25-5.02,5.02v37.7c0,2.77-2.25,5.02-5.02,5.02h-9.47Z"/>
    <path class="o" d="M324.17,219.17c4.26-2.47,9.04-3.67,14.27-3.67,3.95,0,8.16-.08,11.95-.08,3.36,0,6.08-2.72,6.08-6.08v-9.79c0-3,2.48-5.44,5.54-5.44h7.13c3.06,0,5.54,2.43,5.54,5.44,0,9.79,0,19.57,0,29.36,0,3.09-2.31,5.64-5.3,6.03h-29.58c-1.6,0-2.96.39-4.17,1.15-1.28.8-2.27,1.81-2.99,3.07-.66,1.27-.98,2.62-.98,4.1,0,1.56.33,2.94.97,4.19.72,1.18,1.67,2.16,2.87,2.96,1.21.67,2.58,1.03,4.19,1.03h8.46c5.68,0,10.76,1.1,15.11,3.45,4.36,2.31,7.78,5.54,10.16,9.69,2.46,4.15,3.65,8.85,3.65,14.02,0,5.92-1.2,11.34-3.73,15.91-2.42,4.43-5.79,7.93-10.09,10.44h0s0,.01,0,.01c-4.24,2.43-9,3.62-14.2,3.62h-40.25c-3.39,0-6.16-2.73-6.16-6.15v-6.97c0-3.41,2.78-6.15,6.16-6.15h38.39c1.6,0,3.14-.37,4.49-1.23,1.38-.87,2.4-1.96,3.12-3.28v-.02s.02-.02.02-.02c.82-1.44,1.2-2.87,1.2-4.34,0-1.72-.38-3.2-1.09-4.5-1.5-2.73-4.43-4.26-7.5-4.26l-8.09.08c-5.33,0-10.23-1.09-14.63-3.34l-.04-.02-.04-.02c-4.29-2.34-7.73-5.6-10.26-9.74-2.59-4.23-3.82-9.15-3.82-14.63s1.18-10.38,3.65-14.67c2.43-4.3,5.77-7.71,9.99-10.16Z"/>
    <path class="p" d="M326.03,172.72h-123.69c-3.47,0-5.88,2.96-5.88,6.09v6.82c0,3.13,2.41,6.09,5.88,6.09,12.09,0,24.19,0,36.28,0,3.36,0,6.08,2.72,6.08,6.08,0,28.02.05,56.04.08,84.06,0,4.88,1.04,9.41,3.17,13.52v.02s.03.02.03.02c2.21,4.1,5.29,7.41,9.21,9.88l.02.02h.02c4,2.45,8.6,3.61,13.69,3.63h5.97c2.83,0,5.12-2.22,5.12-4.96v-9.09c0-2.74-2.29-5.02-5.12-5.02h-5.76c-1.78,0-3.08-.63-4.14-1.78-1.15-1.23-1.71-2.66-1.71-4.44.03-28.6.1-57.19.1-85.79,0-3.36,2.72-6.08,6.08-6.08,18.08,0,36.41-.08,54.58-.08,3.47,0,5.88-2.96,5.88-6.09v-6.82c0-3.13-2.41-6.09-5.88-6.09Z"/>
  </g>
</svg>