<svg width="859" height="139" viewBox="0 0 859 139" fill="none" xmlns="http://www.w3.org/2000/svg">
<path d="M94.7897 -4.51564e-05H15.4164C6.9017 -4.51564e-05 0.000366211 6.90129 0.000366211 15.416C0.000366211 24.252 7.16437 31.416 16.0004 31.416H31.415H95.2537C103.815 31.416 111.31 37.7573 112.112 46.2813C113.034 56.0626 105.33 64.3186 95.735 64.3186H31.415H16.0004C7.16437 64.3186 0.000366211 71.4826 0.000366211 80.3186V95.7346H95.735C121.859 95.7346 143.096 74.8053 143.594 48.8013C144.107 21.9653 121.63 -4.51564e-05 94.7897 -4.51564e-05Z" fill="#31F0BC"/>
<path d="M31.416 122.685C31.416 131.361 24.384 138.393 15.708 138.393C7.03333 138.393 0 131.361 0 122.685C0 114.01 7.03333 106.978 15.708 106.978C24.384 106.978 31.416 114.01 31.416 122.685Z" fill="#4756EF"/>
<path d="M254.454 53.7421C254.454 51.4368 253.992 49.5421 253.068 48.0648C252.146 46.5888 250.898 45.4328 249.33 44.6021C247.76 43.7701 245.982 43.2168 243.997 42.9394C242.01 42.6621 239.956 42.5248 237.836 42.5248H227.446V65.6541H237.42C239.636 65.6541 241.757 65.4701 243.789 65.0994C245.818 64.7314 247.644 64.0848 249.26 63.1608C250.874 62.2394 252.146 61.0141 253.068 59.4914C253.992 57.9674 254.454 56.0514 254.454 53.7421ZM278.137 53.6034C278.137 59.3301 277.076 64.1541 274.953 68.0781C272.828 72.0034 269.966 75.1648 266.366 77.5648C262.764 79.9674 258.61 81.7194 253.9 82.8274C249.192 83.9354 244.297 84.4901 239.22 84.4901H227.446V121.47H203.764V23.4101H239.773C245.128 23.4101 250.137 23.9434 254.801 25.0034C259.462 26.0661 263.526 27.7741 266.988 30.1288C270.45 32.4821 273.174 35.5768 275.161 39.4074C277.145 43.2408 278.137 47.9728 278.137 53.6034" fill="#435EEF"/>
<path d="M306.254 121.47V23.4113H330.077V100.831H368.025V121.47H306.254Z" fill="#435EEF"/>
<path d="M438.658 49.5878L426.194 83.2438H450.846L438.658 49.5878ZM464.974 121.47L457.356 102.218H419.408L412.205 121.47H386.444L427.578 23.4105H450.57L491.289 121.47H464.974Z" fill="#435EEF"/>
<path d="M513.309 23.4111H537.13V121.47H513.309V23.4111Z" fill="#435EEF"/>
<path d="M627.988 121.47L588.516 57.3432H588.098L588.652 121.47H565.662V23.4112H592.669L632.004 87.3978H632.418L631.864 23.4112H654.856V121.47H627.988Z" fill="#435EEF"/>
<path d="M683.386 121.47V23.4113H749.311V43.3553H706.24V61.914H746.957V80.8886H706.24V101.249H751.803V121.47H683.386Z" fill="#435EEF"/>
<path d="M830.057 53.4654C830.057 51.1587 829.567 49.2894 828.594 47.856C827.621 46.4254 826.367 45.3174 824.837 44.532C823.306 43.7494 821.589 43.216 819.686 42.9387C817.785 42.6627 815.951 42.524 814.19 42.524H801.526V65.3774H812.798C814.746 65.3774 816.742 65.216 818.785 64.892C820.825 64.5694 822.679 63.992 824.35 63.16C826.021 62.3294 827.387 61.1307 828.455 59.56C829.523 57.9907 830.057 55.9587 830.057 53.4654ZM831.027 121.469L809.737 82.5507H801.665V121.469H778.534V23.4107H815.93C820.639 23.4107 825.231 23.896 829.71 24.8654C834.189 25.8347 838.203 27.4747 841.759 29.7814C845.313 32.0907 848.153 35.1387 850.277 38.9227C852.401 42.7107 853.463 47.4187 853.463 53.0494C853.463 59.6974 851.663 65.2854 848.062 69.808C844.461 74.3334 839.474 77.5654 833.103 79.504L858.727 121.469H831.027Z" fill="#435EEF"/>
</svg>
