<?xml version="1.0" encoding="UTF-8"?>
<svg id="horizontal_data" data-name="horizontal data" xmlns="http://www.w3.org/2000/svg" viewBox="0 0 2000 596">
  <g id="horizontal-white_bg-2" data-name="horizontal-white bg-2">
    <path d="M244.67,136.5c-48.79-.18-96.6,13.75-137.65,40.12v-59.49C106.05,52.34,58.95.18,1,.18v365.29c0,.31.02.62.02.93,0-.12-.02-.23-.02-.34v229.55h106.01v-40.64s0,0,0,0c83.98,53.49,191.35,53.49,275.33,0,26.77-17.23,49.81-39.66,67.75-65.96,24.9-36.38,38.23-79.44,38.26-123.53v-122.96h24.8c69.37-.96,125.23-48.06,125.23-106.01H244.67ZM382.36,365.47c0,68.18-61.67,123.53-137.69,123.53s-137.54-55.2-137.65-123.35c.24-68,61.77-123.14,137.65-123.14h137.69v122.96Z"/>
    <g id="horizontal-white_bg-2-2" data-name="horizontal-white bg-2">
      <g id="tech-2">
        <path id="_パス_37-2" data-name="パス 37-2" d="M869.45,461.71h-30.61v98.9h-16.25v-98.9h-31.08v-14.56h77.93v14.56Z"/>
        <path id="_パス_38-2" data-name="パス 38-2" d="M975.13,522.76h-62.79c-.15,14.39,11.36,26.18,25.71,26.34.78,0,1.56-.02,2.33-.08,10.11.04,19.92-3.47,27.73-9.91l3.98,12.47c-9.48,7.22-21.12,10.99-33.01,10.71-22.11,1.14-40.96-15.92-42.09-38.09-.06-1.21-.07-2.41-.02-3.62,0-24.45,17.21-42.03,40-42.03s38.09,17.26,38.09,42.23l.07,1.99ZM959.52,511.89c-.82-11.82-10.65-20.98-22.47-20.94-12.02.2-22.17,9.03-24.06,20.94h46.53Z"/>
        <path id="_パス_39-2" data-name="パス 39-2" d="M1005.32,520.68c0-25.11,17.21-42.23,41.43-42.23,9.7-.07,19.19,2.78,27.25,8.18l-4.78,13.27c-6.24-4.71-13.82-7.29-21.63-7.35-15.78,0-26.45,11.16-26.45,27.8s10.52,27.96,25.97,27.96c8.67-.23,17.09-3.01,24.2-7.99l3.66,12.95c-8.55,5.96-18.75,9.09-29.16,8.95-23.6,0-40.5-16.78-40.5-41.55Z"/>
        <path id="_パス_40-2" data-name="パス 40-2" d="M1182.75,510.46v50.23h-15.14v-45.11c0-15.66-6.37-23.49-18.97-23.49-12.4-.47-22.83,9.24-23.29,21.67-.03.71-.02,1.43.02,2.14v44.75h-15.14v-120.17h15.14v53.4c5.81-10.17,16.86-16.17,28.53-15.5,18.32-.02,28.84,10.68,28.84,32.1Z"/>
        <path id="_パス_41-2" data-name="パス 41-2" d="M1298.03,510.6v50h-15.14v-44.9c0-15.66-6.37-23.49-18.96-23.49-12.33-.55-22.76,9.03-23.3,21.39-.04.86-.03,1.72.03,2.58v44.43h-15.14v-80.52h15.14v14.08c5.87-10.21,16.95-16.26,28.69-15.66,18.33-.02,28.69,10.85,28.69,32.09Z"/>
        <path id="_パス_42-2" data-name="パス 42-2" d="M1334.57,520.38c0-24.27,17.53-41.87,42.71-41.87s42.87,17.58,42.87,41.87-17.53,41.87-42.87,41.87-42.71-17.4-42.71-41.87ZM1404.53,520.38c-.23-15.05-12.58-27.06-27.59-26.83-15.01.23-26.98,12.62-26.75,27.67.23,14.86,12.28,26.79,27.1,26.83,14.38.68,26.58-10.45,27.26-24.87.04-.93.04-1.87-.02-2.8Z"/>
        <path id="_パス_43-2" data-name="パス 43-2" d="M1457.01,540.98v-100.52h15.18v98.17c0,7.19,2.87,10.07,7.65,10.07,2.71-.07,5.37-.73,7.8-1.94l2.08,12.47c-4.33,2.06-9.07,3.1-13.86,3.04-11.64-.02-18.84-6.57-18.84-21.28Z"/>
        <path id="_パス_44-2" data-name="パス 44-2" d="M1515.73,520.38c0-24.27,17.53-41.87,42.71-41.87s42.87,17.58,42.87,41.87-17.53,41.87-42.87,41.87-42.71-17.4-42.71-41.87ZM1585.69,520.38c-.23-15.05-12.58-27.06-27.59-26.83-15.01.23-26.98,12.62-26.75,27.67.23,14.85,12.28,26.79,27.09,26.83,14.38.68,26.59-10.45,27.27-24.87.04-.93.04-1.87-.02-2.8Z"/>
        <path id="_パス_45-2" data-name="パス 45-2" d="M1715.29,480.09v77.83c0,25.24-17.53,37.86-42.39,37.86-12.39.51-24.58-3.21-34.58-10.55l4.3-14.38c8.34,7.38,19.16,11.32,30.28,11.03,16.57,0,27.25-7.99,27.25-24.13v-12.91c-5.93,10.33-17.14,16.44-29,15.82-22.63,0-38.88-16.94-38.88-40.78s15.78-41.39,38.88-41.39c11.82-.41,22.93,5.65,29,15.82v-14.26l15.14.04ZM1700.63,519.41c.34-14.84-11.38-27.14-26.17-27.48-.09,0-.19,0-.28,0-14.43-.2-26.3,11.37-26.5,25.85,0,.65,0,1.31.05,1.96-.47,14.65,11,26.91,25.62,27.38,14.61.47,26.84-11.03,27.3-25.69.02-.67.02-1.34-.01-2.01h0Z"/>
        <path id="_パス_46-2" data-name="パス 46-2" d="M1755.99,454.2c-.09-5.58,4.34-10.18,9.9-10.27.12,0,.23,0,.35,0,5.63.52,9.78,5.53,9.25,11.17-.45,4.92-4.34,8.83-9.25,9.28-5.56.09-10.15-4.35-10.24-9.93,0-.09,0-.18,0-.26h0ZM1758.38,480.08h15.18v80.55h-15.14l-.03-80.55Z"/>
        <path id="_パス_47-2" data-name="パス 47-2" d="M1888.81,522.76h-62.79c-.15,14.39,11.36,26.18,25.71,26.34.78,0,1.56-.02,2.33-.08,10.11.04,19.92-3.47,27.73-9.91l3.98,12.47c-9.48,7.22-21.12,10.99-33.01,10.71-22.11,1.14-40.96-15.92-42.09-38.09-.06-1.21-.07-2.41-.02-3.62,0-24.45,17.21-42.03,40-42.03s38.15,17.23,38.15,42.14v2.07ZM1873.2,511.89c-.82-11.82-10.65-20.98-22.47-20.94-12.02.2-22.17,9.03-24.06,20.94h46.53Z"/>
        <path id="_パス_48-2" data-name="パス 48-2" d="M1920.41,553.76l3.66-12.62c7.42,5.82,16.55,9.03,25.97,9.13,9.4,0,15.3-3.99,15.3-11.03s-6.69-9.59-18.65-13.27c-12.43-3.83-24.06-8.47-24.06-23.33s11.95-24.13,29.6-24.13c8.83-.03,17.52,2.29,25.17,6.71l-2.95,12.44c-6.65-4.51-14.45-7.01-22.47-7.19-8.45,0-14.34,3.67-14.34,10.27,0,7.35,7.49,9.75,16.89,12.31,14.8,3.99,25.66,9.43,25.66,23.97s-11.32,25.24-30.92,25.24c-10.27.23-20.35-2.74-28.86-8.5Z"/>
      </g>
      <g id="kinto-2">
        <path id="_パス_32-2" data-name="パス 32-2" d="M930.31,371.51l-83.93-118.91v118.91h-54.87v-232.54h54.86v112.99l80.32-112.99h62.71l-80.32,109.72,88.83,122.81h-67.6Z"/>
        <path id="_パス_33-2" data-name="パス 33-2" d="M1083.22,138.98h54.87v232.54h-54.87v-232.54Z"/>
        <path id="_パス_34-2" data-name="パス 34-2" d="M1455.27,138.98v232.54h-52.93l-101.22-148.39v148.36h-52.25v-232.54h53.23l100.91,148.36v-148.33h52.26Z"/>
        <path id="_パス_35-2" data-name="パス 35-2" d="M1708.83,186.8h-58.78v184.71h-54.86v-184.71h-59.45v-47.82h173.08l.02,47.82Z"/>
        <path id="_パス_36-2" data-name="パス 36-2" d="M1754.71,255.25c0-72.71,52.25-119.54,122.15-119.54s122.14,47.16,122.14,118.56-51.92,120.52-122.47,120.52-121.82-46.83-121.82-119.54ZM1941.85,255.25c0-39.95-26.78-67.47-64.99-67.47s-64.67,27.51-64.67,67.47,26.45,67.47,64.67,67.47,65.06-27.84,65.06-67.47h-.07Z"/>
      </g>
    </g>
  </g>
</svg>