<svg viewBox="0 0 502.1 344.4" xmlns="http://www.w3.org/2000/svg" xmlns:xlink="http://www.w3.org/1999/xlink"><linearGradient id="a" gradientUnits="userSpaceOnUse" x1="226.6" x2="226.6" y1="317.1" y2="302.8"><stop offset="0" stop-color="#fff"/><stop offset="0" stop-color="#e3f3fa"/><stop offset="0" stop-color="#aeddf1"/><stop offset=".1" stop-color="#80caea"/><stop offset=".2" stop-color="#58bae3"/><stop offset=".2" stop-color="#38adde"/><stop offset=".3" stop-color="#1fa3da"/><stop offset=".3" stop-color="#0d9bd7"/><stop offset=".4" stop-color="#0397d5"/><stop offset=".4" stop-color="#0096d5"/><stop offset="1" stop-color="#0079c1"/></linearGradient><path d="m58.9 128.9h205.2c.8 0 1.6.3 2.1 1l171.7 197.2c1 1.1.9 2.9-.2 3.9l-3.7 3.4c-1.1 1.1-2.9 1-4-.2l-136.1-151.8c-.5-.6-1.3-.9-2.1-.9h-52.5c-1.5 0-2.8 1.2-2.8 2.8v110.1c0 1.5-1.2 2.8-2.8 2.8h-14c-1.5 0-2.8-1.2-2.8-2.8l-1.1-143.8c0-1.5-1.3-2.8-2.8-2.8h-154.1c-1.5 0-2.8-1.2-2.8-2.8v-13.3c0-1.5 1.2-2.8 2.8-2.8z" fill="#e3eef7"/><path d="m58.9 128.9h205.2c.8 0 1.6.3 2.1 1l171.7 197.2c1 1.1.9 2.9-.2 3.9l-3.7 3.4c-1.1 1.1-2.9 1-4-.2l-136.1-151.8c-.5-.6-1.3-.9-2.1-.9h-52.5c-1.5 0-2.8 1.2-2.8 2.8v110.1c0 1.5-1.2 2.8-2.8 2.8h-14c-1.5 0-2.8-1.2-2.8-2.8l-1.1-143.8c0-1.5-1.3-2.8-2.8-2.8h-154.1c-1.5 0-2.8-1.2-2.8-2.8v-13.3c0-1.5 1.2-2.8 2.8-2.8z" fill="none" stroke="#5c7885" stroke-dasharray="2 2" stroke-miterlimit="10" stroke-width=".7"/><path d="m221.2 179.3h61.9c1.5 0 2.8-1.3 2.8-2.8v-19.1c0-.7-.2-1.3-.7-1.9l-21-23.8c-.5-.6-1.3-.9-2.1-.9h-40.4c-1.5 0-2.8 1.2-2.8 2.8l-.5 42.9c0 1.6 1.2 2.8 2.8 2.8z" fill="#d6da96"/><rect fill="#d6da96" height="69.4" rx="2.8" width="156.8" x="106.4" y="56.9"/><path d="m101.4 126.2h-44.8c-1.5 0-2.8 1.2-2.8 2.8v16.1c0 1.5-1.2 2.8-2.8 2.8h-44.4c-1.5 0-2.8-1.2-2.8-2.8v-85.4c0-1.5 1.2-2.8 2.8-2.8h94.8c1.5 0 2.8 1.2 2.8 2.8v63.8c0 1.5-1.2 2.8-2.8 2.8z" fill="#b4b4b5"/><rect fill="#73adde" height="146.1" rx="2.8" width="100.4" x="3.8" y="150.8"/><rect fill="#73adde" height="146.1" rx="2.8" width="107.4" x="106.4" y="150.8"/><rect fill="#73adde" height="75.6" rx="2.8" transform="matrix(.66131187 .75011107 -.75011107 .66131187 330.4 -233.9)" width="143.1" x="352.5" y="210.9"/><rect fill="#73c2a7" height="75.6" rx="2.8" transform="matrix(.66131187 .75011107 -.75011107 .66131187 234.7 -204.5)" width="96.2" x="295.6" y="119.7"/><path d="m241.7 201h37c.8 0 1.6.4 2.1 1l50.4 57.7c1 1.2.9 3-.3 4l-40.7 34.1c-.5.4-1.2.7-1.8.7h-6.1c-.7 0-1.4-.4-2-.9l-40.6-41.3c-.5-.5-.8-1.2-.8-2v-50.4c0-1.5 1.3-2.8 2.9-2.8z" fill="#d2b3d4"/><path d="m268.4 56.9h35c.8 0 1.6.4 2.1 1l30.5 35.2c1 1.2.9 2.9-.2 3.9l-51.4 45.8c-1.1 1-2.9.9-3.9-.2l-14.1-15.5c-.5-.5-.7-1.2-.7-1.9v-65.5c0-1.5 1.3-2.8 2.8-2.8z" fill="#b4b4b5"/><rect fill="#b4b4b5" height="14.9" rx="2.8" width="19.8" x="238.8" y="183.6"/><rect fill="#b4b4b5" height="19.1" rx="2.8" transform="matrix(.66131187 .75011107 -.75011107 .66131187 285.7 -164)" width="90.4" x="279.1" y="224.6"/><path d="m291.2 183.6h-28.4c-1.5 0-2.8 1.2-2.8 2.8v9.4c0 1.5 1.2 2.8 2.8 2.8h16.1c.8 0 1.5.3 2.1.9l3.3 3.7c1 1.1 2.8 1.2 3.9.2l10.1-8.9c1.2-1 1.3-2.8.3-3.9l-5.3-6c-.5-.6-1.3-.9-2.1-.9z" fill="#d2b3d4"/><path d="m238.8 264 .7 31.6c0 1.5 1.3 2.7 2.8 2.7h30.5c2.5 0 3.7-3 2-4.8l-31.2-31.6c-1.8-1.8-4.8-.5-4.8 2z" fill="#b4b4b5"/><rect fill="#d2b3d4" height="17.3" rx="2.8" width="52.4" x="237.8" y="303.1"/><g fill="#231815"><path d="m10.3 225.9c0 .2 0 .4.3.4.5 0 3.2-.9 4.9-3.2.3-.4.3-.4.4-.4.2 0 .3.2.3.3s-.9 1.2-1.9 2.1c-1.5 1.2-3.3 1.8-3.9 1.8s-.7-.6-.7-.8v-6.5s0-.3.3-.3.3.2.3.3v6.2z"/><path d="m20.3 220.4c0 .1-.4 2.9-1.9 5.3-.2.3-.5.9-.7.9s-.3-.1-.3-.3 0-.1.3-.5 1.3-1.9 1.9-4.5c0-.2.2-.9.2-1.1 0 0 0-.1.2-.1s.3 0 .3.3zm2.6.1c1.8 3.1 2.2 5.5 2.2 5.7s-.2.3-.3.3c-.2 0-.2-.1-.4-.6-.4-1.8-1.1-3.6-2.1-5.2 0-.1-.1-.2-.1-.3s.2-.3.3-.3.2 0 .4.4zm1.5-.6c.3.5.5.8.5.9s-.1.2-.3.2-.2-.1-.3-.3c-.2-.4-.4-.7-.6-1.1 0 0 0-.1 0-.2s.2-.2.3-.2.2 0 .6.7zm1.1-.7c.1.2.6.9.6 1.1s-.1.3-.3.3-.2 0-.5-.6c-.1-.2-.2-.3-.5-.8 0 0 0-.1 0-.2s.2-.2.3-.2.2 0 .5.5z"/><path d="m28.7 225.9c0 .2 0 .4.3.4.5 0 3.2-.9 4.9-3.2.3-.4.3-.4.4-.4.2 0 .3.2.3.3s-.9 1.2-1.9 2.1c-1.5 1.2-3.3 1.8-3.9 1.8s-.7-.6-.7-.8v-6.5s0-.3.3-.3.3.2.3.3v6.2z"/><path d="m36.5 221.8c.2 0 1.5.5 1.7.6.6.3.7.3.7.5s-.1.3-.2.3-.1 0-.3-.1c-.7-.3-1.1-.5-1.9-.8-.1 0-.3-.1-.3-.3s0-.3.2-.3zm.3 5c0-.2 0-.2.5-.3 1.4-.4 3.7-1.6 5.7-4.3.2-.2.2-.3.4-.3s.3.1.3.3-1.2 1.8-2.8 3.1c-1.9 1.5-3.7 2-3.8 2-.3 0-.3-.2-.3-.3zm.5-7.3c.2 0 1.4.5 1.8.6.5.2.6.3.6.5s-.1.3-.2.3-.1 0-.3 0c-.7-.3-1-.5-1.9-.8-.1 0-.3 0-.3-.3s0-.3.2-.3zm5.1.4c.1.1.7.8.7 1s-.1.3-.3.3-.2 0-.5-.5c-.1-.1-.6-.7-.7-.9 0 0 0 0 0-.2 0-.1.1-.2.3-.2s.2 0 .6.5zm1.2-.7c.2.3.7.8.7 1s-.1.3-.3.3-.2 0-.5-.5c-.1-.1-.6-.7-.7-.8 0 0 0 0 0-.2 0-.1.1-.2.3-.2s.2 0 .5.5z"/><path d="m52.6 222.9s.3 0 .3.3-.2.3-.3.3h-7.3s-.3 0-.3-.3.2-.3.3-.3z"/><path d="m55.1 220.5s-.3 0-.3-.3.2-.3.3-.3h4.6c.5 0 .8.2.8.6 0 .6-.9 2.2-1.5 3 .6.5 1.6 1.3 2.5 2.3.4.4.5.5.5.6 0 .2-.1.3-.3.3s-.2 0-.3-.2c-.7-.8-1.5-1.7-2.6-2.6-.9 1-1.9 1.9-3.1 2.6-.2.1-.8.4-1 .4s-.3-.1-.3-.3 0-.2.4-.3c1.1-.5 2.9-1.6 4.2-3.8.5-.7.9-1.7.9-1.9s0-.2-.4-.2h-4.4zm6-1c.3.5.5.9.5 1.1s-.1.2-.3.2-.2-.1-.3-.3c-.2-.4-.4-.8-.6-1.1 0 0 0-.1 0-.2s.2-.3.3-.2c.1 0 .2 0 .4.5zm1.2-.5c.3.5.6 1 .6 1.1s-.1.2-.3.2-.2 0-.5-.7c-.1-.2-.3-.6-.4-.8 0 0 0-.1 0-.2s.2-.3.3-.2c.1 0 .2 0 .4.5z"/><path d="m66.4 227c0 .1 0 .3-.3.3s-.3-.1-.3-.3v-7.5c0-.1 0-.3.3-.3s.3.2.3.3v2.4c2 .9 3 1.6 3.9 2.2.2.2.3.2.3.4s0 .3-.3.3-.2 0-.6-.4c-1.1-.8-2.4-1.5-3.3-1.9z"/><path d="m79 221.8c.4 0 1 0 1 .7s-.6 1.9-1.6 2.9c-1.2 1.2-3.1 1.8-3.2 1.8s-.3-.1-.3-.3 0-.2.4-.3c3.3-1 4.1-3.7 4.1-4s-.3-.3-.5-.3h-5.7c-.1 0-.3 0-.3-.3s.1-.3.3-.3h5.8zm.1-2.1s.3 0 .3.3-.2.3-.3.3h-5.1s-.3 0-.3-.3.2-.3.3-.3z"/><path d="m83.1 221.7c.1 0 .2 0 .4.4.1.2.7 1.1.7 1.3s-.1.2-.3.2-.2 0-.5-.6c-.2-.5-.4-.7-.5-.9 0-.1 0-.2 0-.2 0-.1.1-.2.3-.2zm4.6 3c-1.2 2-3.4 2.7-3.5 2.7s-.2-.1-.2-.3 0-.2.4-.3c2-.8 3.3-2.3 3.7-4.7 0-.5 0-.5.3-.5s.3.1.3.2-.3 1.7-1 3zm-2.7-3.4c.1 0 .2 0 .5.7.1.2.5.9.5 1.1s-.1.2-.3.2-.2 0-.3-.3c-.3-.6-.4-.9-.5-1 0-.1-.2-.4-.2-.4 0-.1.1-.2.3-.2z"/><path d="m97.4 219.9c.3 0 .8 0 .8.6s-.4 2.9-2.5 4.9c-1.2 1.2-2.6 1.7-2.8 1.7s-.3-.1-.3-.3 0-.2.5-.4c1.2-.5 2.9-1.7 3.9-3.8.4-1 .6-1.9.6-2 0-.3-.2-.3-.4-.3h-3.2c-.2 0-.3 0-.4.3-.7 1.1-1.5 1.9-1.9 2.2 0 0-.2.1-.3.1s-.3-.1-.3-.3 0-.2.5-.5c.8-.7 1.1-1.2 1.5-2 .2-.4.4-.4 1-.4h3.1z"/><path d="m121.8 219.7c0-.2.2-.3.3-.3.2 0 .3.1.3.3v3.9c0 1.1 0 2.7 2.4 2.7s2.4-1.7 2.4-2.7v-3.9c0-.2.2-.3.3-.3.2 0 .3.1.3.3v3.9c0 1.1 0 3.3-3 3.3s-3-2.2-3-3.3z"/><path d="m129.9 226.5c0 .2-.2.3-.3.3-.2 0-.3-.1-.3-.3v-6.1c0-.3 0-.9.8-.9h1c.5 0 1 0 1.5.3.9.5 1 1.4 1 1.8 0 .7-.2 1.4-1 1.8-.5.2-.9.3-1.5.3h-1.2v2.9zm1.1-3.4c.7 0 2 0 2-1.5s-1.2-1.6-2-1.6h-.7c-.3 0-.4 0-.4.4v2.7z"/><path d="m134.9 226c.5.2.9.3 1.3.3.9 0 1.9-.4 1.9-1.5s-.8-1.3-1.6-1.6c-.9-.3-1.9-.7-1.9-1.9s.8-1.9 2.1-1.9.9.1 1.4.3c0 0 .2.1.2.3s-.1.3-.3.3-.1 0-.3-.1c-.2 0-.6-.2-1-.2-1 0-1.5.7-1.5 1.4s.7 1.2 1.6 1.4c.9.3 2 .7 2 2.1s-1.1 2-2.5 2-1.4-.3-1.7-.4c-.1 0-.3-.1-.3-.3s.1-.3.3-.3.1 0 .3.1z"/><path d="m140.3 219.7c0-.2.2-.3.3-.3s.3.1.3.3v6.9c0 .3-.2.3-.3.3-.2 0-.3-.1-.3-.3z"/><path d="m145.3 219.5c.4 0 1.1 0 1.8.3 1.7.6 1.9 2.4 1.9 3.3s0 2.1-1.3 3c-.7.5-1.4.6-2.5.6h-1.8c-.8 0-.8-.6-.8-.9v-5.4c0-.3 0-.9.8-.9h1.8zm-2 6.3c0 .3.1.4.4.4h1.6c1.1 0 1.7-.2 2.1-.5 1-.7 1.1-2.1 1.1-2.5 0-3.1-2.4-3.1-3.2-3.1h-1.6c-.3 0-.4 0-.4.4v5.4z"/><path d="m154 222.7c.2 0 .3.2.3.3 0 .2 0 .3-.3.3h-3.1v2.6c0 .3.1.4.4.4h3.2c.2 0 .3.2.3.3 0 .2 0 .3-.3.3h-3.4c-.8 0-.8-.6-.8-.9v-5.4c0-.3 0-.9.8-.9h3.2c.2 0 .3.2.3.3 0 .2-.1.3-.3.3h-3.1c-.3 0-.4 0-.4.4v2.3h3.1z"/><path d="m160.2 226.3c0 .1.1.2.1.3 0 .2-.2.3-.3.3s-.2 0-.3-.2l-2.5-3.2h-.8v3.1c0 .2-.2.3-.3.3-.2 0-.3-.1-.3-.3v-6.1c0-.3 0-.9.8-.9h1.3c1.5 0 2.1.9 2.1 1.9s-.5 1.9-2.1 2l2.2 2.9zm-2.5-3.4c.5 0 1.8 0 1.8-1.4s-1.3-1.4-1.8-1.4h-.8c-.3 0-.4 0-.4.4v2.5h1.2z"/><path d="m166.5 227c0 .1 0 .3-.3.3s-.3-.1-.3-.3v-7.5c0-.1 0-.3.3-.3s.3.2.3.3v2.4c2 .9 3 1.6 3.9 2.2.2.2.3.2.3.4s0 .3-.3.3-.2 0-.6-.4c-1.1-.8-2.4-1.5-3.3-1.9z"/><path d="m179.2 221.7c.4 0 1 0 1 .7s-.6 1.9-1.6 2.9c-1.2 1.2-3.1 1.8-3.2 1.8s-.3-.1-.3-.3 0-.2.4-.3c3.3-1 4.1-3.7 4.1-4s-.3-.3-.5-.3h-5.7c-.1 0-.3 0-.3-.3s.1-.3.3-.3h5.8zm0-2s.3 0 .3.3-.2.3-.3.3h-5.1s-.3 0-.3-.3.2-.3.3-.3z"/><path d="m183.2 221.6c.1 0 .2 0 .4.4.1.2.7 1.1.7 1.3s-.1.2-.3.2-.2 0-.5-.6c-.2-.5-.4-.7-.5-.9 0-.1 0-.2 0-.2 0-.1.1-.2.3-.2zm4.6 3c-1.2 2-3.4 2.7-3.5 2.7s-.2-.1-.2-.3 0-.2.4-.3c2-.8 3.3-2.3 3.7-4.7 0-.5 0-.5.3-.5s.3.1.3.2-.3 1.7-1 3zm-2.6-3.4c.1 0 .2 0 .5.7.1.2.5.9.5 1.1s-.1.2-.3.2-.2 0-.3-.3c-.3-.6-.4-.9-.5-1 0-.1-.2-.4-.2-.4 0-.1.1-.2.3-.2z"/><path d="m197.6 219.9c.3 0 .8 0 .8.6s-.4 2.9-2.5 4.9c-1.2 1.2-2.6 1.7-2.8 1.7s-.3-.1-.3-.3 0-.2.5-.4c1.2-.5 2.9-1.7 3.9-3.8.4-1 .6-1.9.6-2 0-.3-.2-.3-.4-.3h-3.2c-.2 0-.3 0-.4.3-.7 1.1-1.5 1.9-1.9 2.2 0 0-.2.1-.3.1s-.3-.1-.3-.3 0-.2.5-.5c.8-.7 1.1-1.2 1.5-2 .2-.4.4-.4 1-.4h3.1z"/><path d="m396.4 241.4c0 .1.1.2.1.3 0 .2-.2.3-.3.3s-.2 0-.3-.2l-2.5-3.2h-.8v3.1c0 .2-.2.3-.3.3-.2 0-.3-.1-.3-.3v-6.1c0-.3 0-.9.8-.9h1.3c1.5 0 2.1.9 2.1 1.9s-.5 1.9-2.1 2l2.2 2.9zm-2.5-3.4c.5 0 1.8 0 1.8-1.4s-1.3-1.4-1.8-1.4h-.8c-.3 0-.4 0-.4.4v2.5h1.2z"/><path d="m398.2 235c0 .3-.2.5-.5.5s-.5-.2-.5-.5.2-.5.5-.5.5.2.5.5zm-.8 1.6c0-.2.2-.3.3-.3.2 0 .3.1.3.3v5.1c0 .2-.2.3-.3.3-.2 0-.3-.1-.3-.3z"/><path d="m403.8 236.3c.3 0 .3.2.3.3 0 .2-.1.3-.3.3-.3 0-.5.1-.7.2 0 .1.3.4.3 1 0 1.4-1.3 1.7-2 1.7s-.4 0-.5 0c-.6.2-.9.5-.9.7 0 .3.4.4.5.4.2 0 .5 0 1.5.1 1.4 0 1.9.8 1.9 1.6 0 1.7-2.1 1.7-2.5 1.7-1.6 0-2.4-.7-2.4-1.6s.3-1.1.9-1.4c-.2 0-.5-.2-.5-.7s.3-.7.8-1c-.9-.5-.9-1.3-.9-1.5 0-1.1.9-1.7 2-1.7s.8 0 1.3.4c.5-.4.9-.4 1-.4zm-2.7 5.2c-1.4 0-1.4 1.1-1.4 1.2 0 1.1 1.5 1.1 1.8 1.1 1.5 0 1.9-.6 1.9-1.1 0-.9-.7-1.2-2.2-1.2zm-1.2-3.4c0 .8.7 1.2 1.4 1.2s1.5-.5 1.5-1.2-.6-1.2-1.4-1.2-1.5.6-1.5 1.3z"/><path d="m408.9 241.7c0 .2-.2.3-.3.3-.2 0-.3-.1-.3-.3v-2.9c0-.9 0-2-1.3-2s-1.3.5-1.4.8c-.2.4-.2.9-.2 1.2v2.9c0 .2-.2.3-.3.3-.2 0-.3-.1-.3-.3v-7.1c0-.2.2-.3.3-.3s.3.1.3.3v2.7c.6-.9 1.4-.9 1.7-.9.9 0 1.4.4 1.6.8s.2.8.2 1.6z"/><path d="m411.5 240.4c0 .7 0 1.1 1 1.1s.5 0 .5 0c.2 0 .3.1.3.3s-.2.3-.8.3c-1.4 0-1.5-.8-1.5-1.6v-3.4h-1c-.2 0-.2-.2-.2-.3s0-.3.2-.3h1v-1.4c0-.2.2-.3.3-.3.2 0 .3.1.3.3v1.4h1.5c.2 0 .3.2.3.3 0 .2 0 .3-.3.3h-1.5v3.4z"/><path d="m416.8 241.7c0 .2-.2.3-.3.3-.2 0-.3-.1-.3-.3v-6.5h-2.3c-.2 0-.3-.2-.3-.3 0-.2 0-.3.3-.3h5.2c.2 0 .3.2.3.3 0 .2 0 .3-.3.3h-2.3z"/><path d="m422.5 236.3c1.5 0 2.6 1.1 2.6 2.8s-1.2 2.8-2.6 2.8-2.6-1.1-2.6-2.8 1.2-2.8 2.6-2.8zm0 5.2c1 0 2-.6 2-2.3s-1.1-2.3-2-2.3-2 .6-2 2.3 1.1 2.3 2 2.3z"/><path d="m426.2 236.6c0-.2.2-.3.3-.3.2 0 .3.1.3.3v2.9c0 .9 0 2 1.3 2s1.3-.5 1.4-.8c.2-.4.2-.9.2-1.2v-2.9c0-.2.2-.3.3-.3.2 0 .3.1.3.3v5.1c0 .2-.2.3-.3.3s-.3-.1-.3-.3v-.7c-.6.9-1.4.9-1.7.9-.9 0-1.4-.4-1.6-.8s-.2-.8-.2-1.6z"/><path d="m431.4 239.2c0-1.6 1-2.8 2.7-2.8s1.1.2 1.4.3c0 0 .2.1.2.2s-.1.3-.3.3 0 0-.3-.1c-.2-.1-.6-.2-1-.2-1.2 0-2.1.8-2.1 2.3s.7 2.3 2.2 2.3.9-.1 1.1-.2h.2c.1 0 .2.1.2.3s0 .2-.2.2c-.3.1-.9.3-1.5.3-1.9 0-2.7-1.4-2.7-2.8z"/><path d="m440.8 241.7c0 .2-.2.3-.3.3-.2 0-.3-.1-.3-.3v-2.9c0-.9 0-2-1.3-2s-1.3.5-1.4.8c-.2.4-.2.9-.2 1.2v2.9c0 .2-.2.3-.3.3-.2 0-.3-.1-.3-.3v-7.1c0-.2.2-.3.3-.3s.3.1.3.3v2.7c.6-.9 1.4-.9 1.7-.9.9 0 1.4.4 1.6.8s.2.8.2 1.6z"/><path d="m417.8 255.9c0 .1 0 .3-.3.3s-.3-.1-.3-.3v-7.5c0-.1 0-.3.3-.3s.3.2.3.3v2.4c2 .9 3 1.6 3.9 2.2.2.2.3.2.3.4s0 .3-.3.3-.2 0-.6-.4c-1.1-.8-2.4-1.5-3.3-1.9z"/><path d="m430.3 250.6c.4 0 1 0 1 .7s-.6 1.9-1.6 2.9c-1.2 1.2-3.1 1.8-3.2 1.8s-.3-.1-.3-.3 0-.2.4-.3c3.3-1 4.1-3.7 4.1-4s-.3-.3-.5-.3h-5.7c-.1 0-.3 0-.3-.3s.1-.3.3-.3h5.8zm0-2s.3 0 .3.3-.2.3-.3.3h-5.1s-.3 0-.3-.3.2-.3.3-.3z"/><path d="m434.1 250.6c.1 0 .2 0 .4.4.1.2.7 1.1.7 1.3s-.1.2-.3.2-.2 0-.5-.6c-.2-.5-.4-.7-.5-.9 0-.1 0-.2 0-.2 0-.1.1-.2.3-.2zm4.6 2.9c-1.2 2-3.4 2.7-3.5 2.7s-.2-.1-.2-.3 0-.2.4-.3c2-.8 3.3-2.3 3.7-4.7 0-.5 0-.5.3-.5s.3.1.3.2-.3 1.7-1 3zm-2.6-3.4c.1 0 .2 0 .5.7.1.2.5.9.5 1.1s-.1.2-.3.2-.2 0-.3-.3c-.3-.6-.4-.9-.5-1 0-.1-.2-.4-.2-.4 0-.1.1-.2.3-.2z"/><path d="m448.3 248.8c.3 0 .8 0 .8.6s-.4 2.9-2.5 4.9c-1.2 1.2-2.6 1.7-2.8 1.7s-.3-.1-.3-.3 0-.2.5-.4c1.2-.5 2.9-1.7 3.9-3.8.4-1 .6-1.9.6-2 0-.3-.2-.3-.4-.3h-3.2c-.2 0-.3 0-.4.3-.7 1.1-1.5 1.9-1.9 2.2 0 0-.2.1-.3.1s-.3-.1-.3-.3 0-.2.5-.5c.8-.7 1.1-1.2 1.5-2 .2-.4.4-.4 1-.4h3.1z"/><path d="m149.6 81.9s-.3 0-.3-.3.2-.3.3-.3h4.6c.3 0 .8 0 .8.6s-.8 2.1-1.5 3c.5.4 1.7 1.4 2.7 2.6.1.2.2.2.2.3 0 .2-.1.3-.3.3s-.2 0-.3-.2c-1.1-1.4-2-2.1-2.6-2.6-1.7 2.1-3.9 3-4 3-.2 0-.3-.2-.3-.3s0-.2.3-.3c4.1-2 5.2-5.6 5.2-5.7 0-.2 0-.2-.4-.2h-4.4z"/><path d="m161.6 81c0-.1 0-.3.3-.3s.3 0 .3.3v1.7h3.2s.3 0 .3.3-.2.3-.3.3h-3.2v4.2c0 1-.3 1.1-1.5 1.1s-.3 0-.3-.3.2-.3.3-.3c.8 0 1 0 1-.6v-4.2h-3.4c-.1 0-.3 0-.3-.3s.2-.3.3-.3h3.4v-1.7zm-3.7 6.3s0-.1.2-.3c.8-1 1.2-1.6 1.6-2.3 0-.1.1-.2.3-.2s.3.1.3.3-.4.9-1.2 2c-.7.9-.7.9-.8.9s-.3-.1-.3-.3zm5.8-2.8c.1 0 .2 0 .6.7.6.9 1.2 1.9 1.2 2.1s-.2.3-.3.3-.2-.1-.3-.4c-.4-.8-.9-1.5-1.4-2.2 0 0 0-.1 0-.2 0-.2.2-.3.3-.3zm2.5-3.3c0 .7-.6 1.3-1.3 1.3s-1.3-.6-1.3-1.3.6-1.3 1.3-1.3 1.3.6 1.3 1.3zm-2.1 0c0 .5.4.8.8.8s.8-.4.8-.8-.4-.8-.8-.8-.8.4-.8.8z"/><path d="m169.8 82.1c.7.4.8.4.8.6s-.2.3-.3.3-.2 0-.4-.2c-.7-.4-1.5-.7-2.1-1-.1 0-.2-.1-.2-.2s.1-.3.3-.3 1 .3 1.8.7zm5 1.4c0 .2-.8 1.5-2.2 2.6-2.3 1.9-4.5 2.3-4.6 2.3-.2 0-.3-.2-.3-.3s0-.2.7-.4c1.9-.5 4.1-1.8 5.7-4 .3-.4.4-.5.5-.5s.3.1.3.3z"/><path d="m177.9 81.2s0-.3.3-.3.3.2.3.3v1.7h3.3v-1.9s0-.3.3-.3.3.2.3.3v1.9h1.5s.3 0 .3.3 0 .3-.3.3h-1.5v.9c0 1 0 2.1-.9 3.1-.6.7-1.5 1.1-1.7 1.1s-.3-.1-.3-.3 0-.2.3-.3c1.8-.8 2-2.4 2-3.6v-1h-3.3v2.3s0 .3-.3.3-.3-.2-.3-.3v-2.3h-1.5s-.3 0-.3-.3.1-.3.3-.3h1.5v-1.7z"/><path d="m193 84.4s.3 0 .3.3-.2.3-.3.3h-7.3s-.3 0-.3-.3.2-.3.3-.3z"/><path d="m195 82.1s-.3 0-.3-.3.2-.3.3-.3h5.2c.2 0 .9 0 .9.8s-.2 2.6-2.4 4.6c-1 .8-2.2 1.4-2.4 1.4s-.2-.1-.2-.3 0-.2.2-.3c1-.5 3.1-1.6 4-4.1.2-.6.3-1.2.3-1.3 0-.3-.2-.3-.5-.3h-5.1zm6.4-1.1c.2.2.7 1 .7 1.2s-.1.3-.3.3-.2 0-.5-.5c-.2-.3-.4-.6-.6-.9 0 0 0 0 0-.1s.2-.2.3-.2.2 0 .4.4zm1.4-.3c.1.1.5.7.5.8s-.1.3-.3.3-.2 0-.5-.6c0-.1-.5-.7-.6-.9 0 0 0 0 0-.1s.2-.2.3-.2.2 0 .7.7z"/><path d="m211.3 84.4s.3 0 .3.3-.2.3-.3.3h-7.3s-.3 0-.3-.3.2-.3.3-.3z"/><path d="m213.9 81.9s-.3 0-.3-.3.2-.3.3-.3h4.6c.3 0 .8 0 .8.6s-.8 2.1-1.5 3c.5.4 1.7 1.4 2.7 2.6.1.2.2.2.2.3 0 .2-.1.3-.3.3s-.2 0-.3-.2c-1.1-1.4-2-2.1-2.6-2.6-1.7 2.1-3.9 3-4 3-.2 0-.3-.2-.3-.3s0-.2.3-.3c4.1-2 5.2-5.6 5.2-5.7 0-.2 0-.2-.4-.2h-4.4z"/><path d="m225.4 88.2c-.8 0-.8-.6-.8-.9v-5.4c0-.3 0-.9.8-.9h1.3c.7 0 2.4 0 2.4 1.7s-.7 1.5-1.1 1.7c.4.1 1.4.5 1.4 1.8 0 2-1.9 2-2.6 2zm1.4-4c.4 0 1.8 0 1.8-1.4s-1.1-1.3-1.9-1.3h-1.1c-.3 0-.4 0-.4.4v2.3zm-1.6 3.1c0 .3.1.4.4.4h1.2c.7 0 2.1 0 2.1-1.4s-1.4-1.5-2-1.5h-1.6v2.6z"/><path d="m228.2 148.8s-.3 0-.3-.3.2-.3.3-.3h4.6c.3 0 .8 0 .8.6s-.8 2.1-1.5 3c.5.4 1.7 1.4 2.7 2.6.1.2.2.2.2.3 0 .2-.1.3-.3.3s-.2 0-.3-.2c-1.1-1.4-2-2.1-2.6-2.6-1.7 2.1-3.9 3-4 3-.2 0-.3-.2-.3-.3s0-.2.3-.3c4.1-2 5.2-5.6 5.2-5.7 0-.2 0-.2-.4-.2h-4.4z"/><path d="m240.2 148c0-.1 0-.3.3-.3s.3 0 .3.3v1.7h3.2s.3 0 .3.3-.2.3-.3.3h-3.2v4.2c0 1-.3 1.1-1.5 1.1s-.3 0-.3-.3.2-.3.3-.3c.8 0 1 0 1-.6v-4.2h-3.4c-.1 0-.3 0-.3-.3s.2-.3.3-.3h3.4v-1.7zm-3.7 6.2s0-.1.2-.3c.8-1 1.2-1.6 1.6-2.3 0-.1.1-.2.3-.2s.3.1.3.3-.4.9-1.2 2c-.7.9-.7.9-.8.9s-.3-.1-.3-.3zm5.8-2.8c.1 0 .2 0 .6.7.6.9 1.2 1.9 1.2 2.1s-.2.3-.3.3-.2-.1-.3-.4c-.4-.8-.9-1.5-1.4-2.2 0 0 0-.1 0-.2 0-.2.2-.3.3-.3zm2.4-3.3c0 .7-.6 1.3-1.3 1.3s-1.3-.6-1.3-1.3.6-1.3 1.3-1.3 1.3.6 1.3 1.3zm-2.1 0c0 .5.4.8.8.8s.8-.4.8-.8-.4-.8-.8-.8-.8.4-.8.8z"/><path d="m248.3 149c.7.4.8.4.8.6s-.2.3-.3.3-.2 0-.4-.2c-.7-.4-1.5-.7-2.1-1-.1 0-.2-.1-.2-.2s.1-.3.3-.3 1 .3 1.8.7zm5.1 1.4c0 .2-.8 1.5-2.2 2.6-2.3 1.9-4.5 2.3-4.6 2.3-.2 0-.3-.2-.3-.3s0-.2.7-.4c1.9-.5 4.1-1.8 5.7-4 .3-.4.4-.5.5-.5s.3.1.3.3z"/><path d="m256.5 148.2s0-.3.3-.3.3.2.3.3v1.7h3.3v-1.9s0-.3.3-.3.3.2.3.3v1.9h1.5s.3 0 .3.3 0 .3-.3.3h-1.5v.9c0 1 0 2.1-.9 3.1-.6.7-1.5 1.1-1.7 1.1s-.3-.1-.3-.3 0-.2.3-.3c1.8-.8 2-2.4 2-3.6v-1h-3.3v2.3s0 .3-.3.3-.3-.2-.3-.3v-2.3h-1.5s-.3 0-.3-.3.1-.3.3-.3h1.5v-1.7z"/><path d="m271.5 151.3s.3 0 .3.3-.2.3-.3.3h-7.3s-.3 0-.3-.3.2-.3.3-.3z"/><path d="m227.6 160.2s-.3 0-.3-.3.2-.3.3-.3h5.2c.2 0 .9 0 .9.8s-.2 2.6-2.4 4.6c-1 .8-2.2 1.4-2.4 1.4s-.2-.1-.2-.3 0-.2.2-.3c1-.5 3.1-1.6 4-4.1.2-.6.3-1.2.3-1.3 0-.3-.2-.3-.5-.3h-5.1zm6.5-1.1c.2.2.7 1 .7 1.2s-.1.3-.3.3-.2 0-.5-.5c-.2-.3-.4-.6-.6-.9 0 0 0 0 0-.1s.2-.2.3-.2.2 0 .4.4zm1.3-.3c.1.1.5.7.5.8s-.1.3-.3.3-.2 0-.5-.6c0-.1-.5-.7-.6-.9 0 0 0 0 0-.1s.2-.2.3-.2.2 0 .7.7z"/><path d="m244 162.4s.3 0 .3.3-.2.3-.3.3h-7.3s-.3 0-.3-.3.2-.3.3-.3z"/><path d="m246.5 160s-.3 0-.3-.3.2-.3.3-.3h4.6c.3 0 .8 0 .8.6s-.8 2.1-1.5 3c.5.4 1.7 1.4 2.7 2.6.1.2.2.2.2.3 0 .2-.1.3-.3.3s-.2 0-.3-.2c-1.1-1.4-2-2.1-2.6-2.6-1.7 2.1-3.9 3-4 3-.2 0-.3-.2-.3-.3s0-.2.3-.3c4.1-2 5.2-5.6 5.2-5.7 0-.2 0-.2-.4-.2h-4.4z"/><path d="m258.1 164-.8 2.1c0 .1-.1.3-.3.3s-.3-.1-.3-.3 0-.2 0-.2l2.6-6.6c0-.2.2-.4.5-.4s.4.2.5.4l2.6 6.6v.2c0 .2-.2.3-.3.3s-.2-.1-.3-.3l-.8-2.1zm3.3-.5-1.5-3.9-1.5 3.9z"/><path d="m270 191.7c0 .4-.1.5-.5.5h-.3c-.4 0-.5-.1-.5-.5v-3.5c0-.4.1-.5.5-.5h.3c.4 0 .5.1.5.5zm-.3-3.5c0-.1 0-.2-.2-.2h-.3c-.1 0-.2 0-.2.2v3.6c0 .1 0 .2.2.2h.3c.1 0 .2 0 .2-.2zm2.8 3.2c.1.2.3.4.6.7.4.4.9.6 1.2.7.2 0 .2 0 .2.2s0 .2-.2.2-.6-.2-1-.5c-.5-.3-.9-.8-1.1-1.3-.4 1.2-1.9 1.7-2 1.7s-.2-.2-.2-.2c0-.1 0-.1.1-.2.8-.2 1.4-.7 1.7-1.4h-1.5s-.2 0-.2-.2.1-.2.2-.2h1.6s0-.3 0-.3 0-.1.2-.1.2 0 .2.1 0 0 0 .3h2s.2 0 .2.2-.1.2-.2.2h-1.8zm-1.4-2.3h-.6c-.1 0-.2 0-.2-.2s0-.2.2-.2h.6v-.7h-.7c-.1 0-.2 0-.2-.2s0-.2.2-.2h.7v-.5s0-.2.2-.2.2 0 .2.2v.5h.6c.1 0 .2 0 .2.2s0 .2-.2.2h-.6v.7h.5s.2 0 .2.2 0 .2-.2.2h-.5v.9c.2 0 .2 0 .6-.2s.1 0 .1.1 0 .1-.3.2c-.4.1-1.5.4-1.6.4s-.1-.1-.1-.2c0 0 0-.1.1-.1s.7-.2.8-.2v-1zm1.5-1.3s-.2 0-.2-.2.1-.2.2-.2h1.1c.6 0 .6.2.6.6 0 .6 0 1.8-.3 2.3-.1.2-.3.2-.7.2s-.2 0-.2-.2.1-.2.2-.2.3 0 .3 0c.2 0 .2-.2.3-.4 0-.4 0-1.1 0-1.5s0-.4-.3-.4h-.4c0 1-.1 1.8-.5 2.4 0 .1-.2.3-.3.3s-.2 0-.2-.2 0 0 0-.1c.5-.5.7-1.4.6-2.4h-.4z"/><path d="m276.3 189.1c.1-.2.3-.5.3-.5.1-.2.2-.3.2-.3s.2 0 .2.2-.3.6-.7 1.1v.2 1c.2.5.5.9.7 1.1s.2.2.2.3c0 0 0 .2-.2.2s-.2-.2-.3-.3c0 0-.3-.4-.5-.8 0 .4-.2 1-.6 1.5 0 .1-.2.3-.3.3s-.2-.1-.2-.2 0 0 0-.2c.6-.8.8-1.8.8-3v-2.5c0-.1 0-.2.2-.2s.2.1.2.2v1.8zm-.8-.4c0 .3 0 1.2-.1 1.6 0 .1 0 .2-.2.2s-.2 0-.2-.2 0-.4 0-.4c0-.4 0-.8 0-1.2 0 0 0-.2.2-.2s.2.1.2.3zm3.6 2.5h1.5s.2 0 .2.2-.1.2-.2.2h-1.5v1.1h1.7s.2 0 .2.2-.1.2-.2.2h-3.9s-.2 0-.2-.2.1-.2.2-.2h1.9v-1.1h-1.5s-.2 0-.2-.2 0-.2.2-.2h1.5v-.8h-1.1c-.4 0-.5-.1-.5-.5v-1c0-.4.1-.5.5-.5h.6v-.7h-1.2s-.2 0-.2-.2.1-.2.2-.2h3.8s.2 0 .2.2-.1.2-.2.2h-1.2v.7h.6c.4 0 .5.1.5.5v1c0 .4-.1.5-.5.5h-1.1v.8zm-.9-2.5h-.5c-.2 0-.2 0-.2.2v.9c0 .2 0 .3.2.3h.5zm.3-.3h.8v-.7h-.8zm.8.3h-.8v1.4h.8zm.4 0v1.4h.6c.2 0 .2 0 .2-.3v-.9c0-.2 0-.2-.2-.2z"/><path d="m282 189.2c0-.5.2-.7.7-.7h.9c.5 0 .7.2.7.7v1c0 .5-.2.7-.7.7h-1.2c0 1.1-.2 1.7-.3 2 0 .3-.2.3-.2.3s-.2 0-.2-.2 0 0 0-.1c.4-.7.4-1.7.4-2.2v-1.4zm2.3-1.8s.2 0 .2.2-.1.2-.2.2h-2.6s-.2 0-.2-.2.1-.2.2-.2zm-1.9 3.1h1.2c.2 0 .3-.1.3-.3v-1c0-.2-.1-.3-.3-.3h-.8c-.2 0-.3.1-.3.3v1.3zm5-1.2s.2 0 .2.2-.1.2-.2.2h-.7v3.5s0 .2-.2.2-.2 0-.2-.2v-3.5h-1.2v.2c0 .9-.1 1.8-.5 2.6-.2.3-.5.8-.6.8s-.2 0-.2-.2 0 0 0-.2c.9-.9.9-2.2.9-3.1v-1.5c0-.6.1-.6.8-.7s1-.2 1.2-.2h.3s.2 0 .2.2 0 .2-.3.2-.7.2-1.4.3c-.4 0-.4.1-.4.5v.9h2.3z"/><path d="m326.4 163.3s0 .3-.2.3-.3-.1-.3-.3v-5.3c-.3.4-.5.8-.8 1.1 0 0-.1.1-.3.1s-.3-.2-.3-.3 0-.2.1-.3c1.1-1.2 1.6-2.5 1.9-3.5 0-.1 0-.2.2-.2s.3 0 .3.2-.3.8-.8 1.9v6.2zm3.3-4.9c-.6 1.3-1.5 2.5-2.4 3.3 0 0-.2.1-.3.1-.2 0-.3-.2-.3-.3s0-.2.2-.2c1.5-1.3 2.4-3 2.7-4h-2.5s-.3 0-.3-.2.2-.2.3-.2h2.5v-1.6c0-.1 0-.3.3-.3s.3.2.3.3v1.6h2.5s.3 0 .3.2-.2.2-.3.2h-2.5c.5 1.6 1.7 3.1 2.7 4 .1 0 .2.1.2.2 0 .2-.1.3-.3.3s-.1 0-.6-.5c-.9-.9-1.6-2.1-2-2.9v4.8c0 .1 0 .3-.3.3s-.3-.2-.3-.3v-4.9z"/><path d="m336.2 156.8h1.7s.3 0 .3.2-.2.2-.3.2h-1.7v1h.7c.6 0 .7.2.7.7v.6c0 .6-.2.8-.7.8h-1.9c-.6 0-.8-.2-.8-.8v-.6c0-.5.2-.7.8-.7h.7v-1h-1.6s-.3 0-.3-.2.2-.2.3-.2h1.6v-.8c-.7 0-1 0-1.4 0s-.3 0-.3-.2 0-.2.7-.2c1 0 1.9-.2 2.6-.3h.4c.1 0 .2.1.2.2s-.1.2-.2.2-.7.2-1.5.3v.9zm-.9 4.5c0 .2-.3.8-.5 1.2-.2.3-.4.7-.6.7s-.3-.1-.3-.3 0-.1.2-.4c.4-.5.6-.9.7-1.2 0-.1.1-.2.3-.2s.3 0 .3.2zm1.9-2.3c0-.2 0-.4-.3-.4h-1.8c-.2 0-.3.1-.3.4v.6c0 .2 0 .3.3.3h1.8c.2 0 .3-.1.3-.3zm-.5 3.6c0 .3.2.3.4.3h2.3c.1 0 .2-.3.3-.8 0-.2 0-.3.3-.3s.3 0 .3.3-.1.8-.3 1c-.2.3-.4.3-.9.3h-2.3c-.6 0-.6-.5-.6-.7v-1.2c0-.1 0-.3.3-.3s.3 0 .3.3v1.1zm1.7-1.4c.4.3.5.4.5.5 0 .2-.2.3-.3.3s-.1 0-.4-.3-.8-.7-.8-.7-.1 0-.1-.2 0-.2.3-.2.5.3.9.6zm1.3-5.3s.2-.6.2-.7c0 0 0-.2.2-.2s.2 0 .2.2-.1.4-.2.6h1c.6 0 .8.2.8.8v2.9c0 .6-.2.8-.8.8h-2c-.6 0-.7-.2-.7-.8v-2.9c0-.6.2-.8.7-.8h.5zm-.7 1.3h2.5v-.6c0-.2 0-.3-.3-.3h-1.8c-.2 0-.3.1-.3.3v.6zm2.5.4h-2.5v.9h2.5zm-2.5 1.3v.6c0 .2 0 .3.3.3h1.8c.2 0 .3-.1.3-.3v-.6h-2.5zm3.4 3.9c0 .1-.1.3-.3.3s-.1 0-.3-.4c-.2-.3-.4-.7-.9-1.2-.2-.3-.2-.3-.2-.3 0-.2.2-.3.3-.2.2 0 1.4 1.6 1.4 1.9z"/><path d="m345.3 155.9c0-.1 0-.3.3-.3s.3 0 .3.3v1.8c0 1.1 0 2.6-.9 4-.2.4-.9 1.4-1.2 1.4s-.3-.1-.3-.3 0-.1.2-.3c1.3-1.4 1.6-2.9 1.6-4.8zm2.8 5.9c0 .2 0 .4.2.4.5 0 1.8-1 2.8-2.5.1-.2.2-.2.2-.2.1 0 .3.1.3.3 0 .4-2.2 3-3.4 3s-.6-.4-.6-.8v-6.3c0-.1 0-.3.3-.3s.3 0 .3.3v6z"/><path d="m360.1 159s.3 0 .3.3-.2.3-.3.3h-7.3s-.3 0-.3-.3.2-.3.3-.3z"/><path d="m362.9 161.9c.9-2.1 1.6-3.7 2.3-6 .2-.5.2-.5.3-.5s.3 0 .3.2-1.1 3.2-2.4 6.2l4.6-.6c-.7-1.3-1.2-1.9-1.3-2 0-.1-.1-.2-.1-.3s.1-.2.3-.2.2 0 .3.2c1.3 1.8 2.2 3.6 2.2 3.8s-.2.3-.3.3-.2 0-.3-.3-.3-.6-.5-1l-6.3.9s-.1 0-.2 0c-.2 0-.2-.1-.2-.3s.2-.2.3-.3h1z"/><path d="m246 311.3s-.2 0-.2-.2.2-.2.2-.2h3.6c.3 0 .7 0 .7.4s-.9 1.3-1.6 1.8c.8.5 1.6.8 2.9.9.1 0 .3 0 .3.2s0 .3-.2.3-.7 0-1.4-.3c-.7-.2-1.3-.5-1.9-.9-1.5.9-3.4 1.1-3.4 1.1-.2 0-.2-.1-.2-.3s0-.2.2-.2c1.4-.2 2.4-.6 3.1-.9-.2-.1-.5-.4-.9-.9-.1-.1-.5-.6-.5-.7s.1-.2.2-.2.1 0 .2.1c.4.5.9 1 1.4 1.4 1.1-.8 1.5-1.4 1.5-1.5s0-.1-.3-.1h-3.4zm4.8-1.6c.6 0 .8.2.8.8v.9s0 .2-.2.2-.2-.1-.2-.2v-.9c0-.3-.1-.4-.4-.4h-5.1c-.3 0-.4.1-.4.4v.9s0 .2-.2.2-.2-.1-.2-.2v-.9c0-.6.2-.8.8-.8h4c.3-.5.5-.8.6-1.2.2-.3.2-.4.3-.4s.3 0 .3.2-.6 1.1-.7 1.4h.7zm-.2-1.9c-1.1.2-2.8.4-4.7.4s-.7 0-.8 0c0 0 0-.1 0-.2 0-.2.1-.2.2-.2 1.3 0 2.1 0 3.4-.1.8 0 1.5-.2 2.3-.4h.1c.2 0 .2.1.2.2s0 .1-.5.2zm-4.4 1c0 .1.3.5.3.6s-.1.2-.2.2-.1 0-.3-.3c0 0-.2-.3-.3-.5s-.1-.2-.1-.2c0-.1.1-.2.2-.2s.2 0 .4.4zm2-.1c.1.1.4.6.4.7s-.1.2-.2.2-.1 0-.3-.3c-.1-.2-.3-.4-.4-.6v-.1s0-.2.2-.2c.1 0 .2 0 .4.3z"/><path d="m253.9 314.4s0 .2-.2.2-.2-.2-.2-.2v-4.4c-.1.2-.4.5-.7.9 0 0-.1.1-.2.1s-.2-.1-.2-.3 0-.1 0-.2c.8-.9 1.4-2.1 1.7-3.1 0-.1 0-.2.2-.2s.2 0 .2.2-.3.9-.8 1.8v5.1zm4.6-.7c0 .6-.2.8-.8.8s-1 0-1.1 0c-.2 0-.2-.2-.2-.2 0-.2.2-.2.2-.2h.9c.2 0 .4 0 .4-.4v-4.2h-3.3s-.2 0-.2-.2.1-.2.2-.2h3.3v-1.5s0-.2.2-.2.2.1.2.2v1.5h1c.1 0 .2 0 .2.2s0 .2-.2.2h-1v4.3zm-2-1.2c-.1 0-.1 0-.3-.4-.3-.5-.5-.8-.8-1.2q-.2-.2-.2-.3c0-.1.1-.2.2-.2s.1 0 .3.2c.5.7 1 1.5 1 1.6s-.1.2-.3.2z"/><path d="m264.6 311c0 .3-.3.6-.6.6s-.6-.3-.6-.6.3-.6.6-.6.6.3.6.6z"/><path d="m273.6 312.7s.2 0 .2.2-.2.2-.2.2h-1.6v1.3s0 .2-.2.2-.2-.1-.2-.2v-1.3h-1.6s-.2 0-.2-.2.2-.2.2-.2h1.6v-3.1c-.5 1.2-1.3 2.1-2.2 3-.2.2-.8.7-1 .7s-.2-.1-.2-.3 0-.1.2-.2c1.9-1.3 2.6-2.6 3-3.4h-2.9s-.2 0-.2-.2.2-.2.2-.2h3.2v-1.4s0-.2.2-.2.2.1.2.2v1.4h3.2s.2 0 .2.2-.2.2-.2.2h-3c1 2 2.4 3 3.1 3.4 0 0 .1 0 .1.2 0 .1-.1.3-.2.3-.2 0-1.1-.8-1.5-1.2-.7-.7-1.3-1.6-1.7-2.5v3.2h1.6z"/><path d="m278 308.2v-.7s0-.2.2-.2.2.2.2.2v.7h1.5s.2 0 .2.2-.2.2-.2.2h-.4c-.2.8-.2.9-.4 1.8h1s.2 0 .2.2-.1.2-.2.2h-3.7s-.2 0-.2-.2.2-.2.2-.2h1c0-.6 0-.7-.4-1.8h-.4s-.2 0-.2-.2.2-.2.2-.2h1.5zm1 3.5c.6 0 .8.2.8.8v1.2c0 .6-.2.8-.8.8h-1.6c-.6 0-.8-.2-.8-.8v-1.2c0-.6.2-.8.8-.8zm.4.8c0-.3-.1-.4-.4-.4h-1.5c-.3 0-.4.1-.4.4v1.2c0 .3.1.4.4.4h1.5c.3 0 .4-.1.4-.4zm-2.1-3.9c.2.7.3 1.2.4 1.8h.9c0-.3.3-.9.4-1.8zm3.7 5.8s0 .2-.2.2-.2-.1-.2-.2v-6.2c0-.5.2-.6.6-.6h1.1.5s.2.2.2.4-.4 1.1-.6 1.4c0 .1-.3.6-.3.6v.1c.4.4.7.6.9 1.2.2.4.2.7.2.9 0 .8-.5 1.3-1 1.4-.1 0-.1 0-.6 0s-.3 0-.3-.2 0-.2.2-.2.4 0 .5 0c.8 0 .9-.7.9-1 0-.7-.5-1.3-.7-1.5-.4-.4-.4-.5-.5-.5 0 0 0-.1 0-.2s0-.2 0-.3c.1-.3.8-1.5.8-1.8s-.2-.2-.3-.2h-1c-.2 0-.3.1-.3.3v6.2z"/></g><path d="m226.6 302.8-8.4 6.5h3.1v7.7h10.5v-7.7h3.1z" fill="url(#a)"/><path d="m190.6 154v-14" fill="none" stroke="#c30d23" stroke-linecap="round" stroke-miterlimit="10" stroke-width=".8"/><path d="m194.6 148.3c-.2-.1-.5 0-.6.1l-3.4 5.4-3.4-5.4c-.1-.2-.4-.3-.6-.1-.2.1-.3.4-.1.6l3.8 6c0 .1.2.2.4.2s.3 0 .4-.2l3.8-6s0-.1 0-.2 0-.3-.2-.4z" fill="#c30d23"/><path d="m180.6 141v14" fill="none" stroke="#c30d23" stroke-linecap="round" stroke-miterlimit="10" stroke-width=".8"/><path d="m176.5 146.7c.2.1.5 0 .6-.1l3.4-5.4 3.4 5.4c.1.2.4.3.6.1.2-.1.3-.4.1-.6l-3.8-6c0-.1-.2-.2-.4-.2s-.3 0-.4.2l-3.8 6v.2c0 .1 0 .3.2.4z" fill="#c30d23"/><path d="m280.9 247c0-.1 0-.2.2-.2s.3 0 .3.2 0 .1 0 .1l-1.7 5.7c0 .2-.1.4-.4.4s-.4-.2-.4-.4l-1.6-5.5-1.6 5.5c0 .2-.1.4-.4.4s-.4-.2-.4-.4l-1.7-5.7s0 0 0-.1c0-.2.2-.2.3-.2s.2 0 .2.2l1.7 5.6 1.6-5.6c0-.3.2-.3.4-.3s.3 0 .4.3l1.6 5.6 1.7-5.6z" fill="#231815"/><path d="m282.1 250c0-1.8 1.3-3.2 3.3-3.2s1.3.2 1.7.4c.1 0 .2.2.2.2 0 .1-.1.2-.2.2s0 0-.2-.1c-.5-.3-1.1-.3-1.3-.3-1.6 0-2.7 1.2-2.7 2.7s.9 2.7 2.8 2.7 1-.1 1.3-.3c0 0 .3-.1.3-.1s.2 0 .2.2 0 .2-.2.2c-.6.3-1.3.4-1.7.4-2.1 0-3.3-1.5-3.3-3.2z" fill="#231815"/><path d="m88 154v-14" fill="none" stroke="#c30d23" stroke-linecap="round" stroke-miterlimit="10" stroke-width=".8"/><path d="m92.1 148.3c-.2-.1-.5 0-.6.1l-3.4 5.4-3.4-5.4c-.1-.2-.4-.3-.6-.1-.2.1-.3.4-.1.6l3.8 6c0 .1.2.2.4.2s.3 0 .4-.2l3.8-6s0-.1 0-.2 0-.3-.2-.4z" fill="#c30d23"/><path d="m78 141v14" fill="none" stroke="#c30d23" stroke-linecap="round" stroke-miterlimit="10" stroke-width=".8"/><path d="m74 146.7c.2.1.5 0 .6-.1l3.4-5.4 3.4 5.4c.1.2.4.3.6.1.2-.1.3-.4.1-.6l-3.8-6c0-.1-.2-.2-.4-.2s-.3 0-.4.2l-3.8 6v.2c0 .1 0 .3.2.4z" fill="#c30d23"/><path d="m242.6 132.7v-14" fill="none" stroke="#c30d23" stroke-linecap="round" stroke-miterlimit="10" stroke-width=".8"/><path d="m246.6 127c-.2-.1-.5 0-.6.1l-3.4 5.4-3.4-5.4c-.1-.2-.4-.3-.6-.1-.2.1-.3.4-.1.6l3.8 6c0 .1.2.2.4.2s.3 0 .4-.2l3.8-6s0-.1 0-.2 0-.3-.2-.4z" fill="#c30d23"/><path d="m232.5 119.7v14" fill="none" stroke="#c30d23" stroke-linecap="round" stroke-miterlimit="10" stroke-width=".8"/><path d="m228.5 125.4c.2.1.5 0 .6-.1l3.4-5.4 3.4 5.4c.1.2.4.3.6.1.2-.1.3-.4.1-.6l-3.8-6c0-.1-.2-.2-.4-.2s-.3 0-.4.2l-3.8 6v.2c0 .1 0 .3.2.4z" fill="#c30d23"/><path d="m140.5 132v-14" fill="none" stroke="#c30d23" stroke-linecap="round" stroke-miterlimit="10" stroke-width=".8"/><path d="m144.5 126.3c-.2-.1-.5 0-.6.1l-3.4 5.4-3.4-5.4c-.1-.2-.4-.3-.6-.1-.2.1-.3.4-.1.6l3.8 6c0 .1.2.2.4.2s.3 0 .4-.2l3.8-6s0-.1 0-.2 0-.3-.2-.4z" fill="#c30d23"/><path d="m130.4 119v14" fill="none" stroke="#c30d23" stroke-linecap="round" stroke-miterlimit="10" stroke-width=".8"/><path d="m126.4 124.7c.2.1.5 0 .6-.1l3.4-5.4 3.4 5.4c.1.2.4.3.6.1.2-.1.3-.4.1-.6l-3.8-6c0-.1-.2-.2-.4-.2s-.3 0-.4.2l-3.8 6v.2c0 .1 0 .3.2.4z" fill="#c30d23"/><path d="m298.1 174.8 10.5-9.2" fill="none" stroke="#c30d23" stroke-linecap="round" stroke-miterlimit="10" stroke-width=".8"/><path d="m305.1 174.1c0-.2-.3-.4-.5-.3l-6.3 1 1.8-6.2c0-.2 0-.5-.3-.5-.2 0-.5 0-.5.3l-2 6.8v.4c0 .1.2.2.4.1l7-1.1h.2c.1 0 .2-.2.1-.4z" fill="#c30d23"/><path d="m301.2 158.7-10.5 9.3" fill="none" stroke="#c30d23" stroke-linecap="round" stroke-miterlimit="10" stroke-width=".8"/><path d="m294.3 159.5c0 .2.3.4.5.3l6.3-1-1.8 6.2c0 .2 0 .5.3.5.2 0 .5 0 .5-.3l2-6.8c0-.1 0-.3 0-.4s-.2-.2-.4-.1l-7 1.1h-.2c-.1 0-.2.2-.1.4z" fill="#c30d23"/><path d="m330.7 210.6 10.6-9.3" fill="none" stroke="#c30d23" stroke-linecap="round" stroke-miterlimit="10" stroke-width=".8"/><path d="m337.7 209.8c0-.2-.3-.4-.5-.3l-6.3 1 1.8-6.2c0-.2 0-.5-.3-.5s-.5 0-.5.3l-2 6.8v.4s.2.2.4.1l7-1.1h.2c.1 0 .2-.2.1-.4z" fill="#c30d23"/><path d="m333.9 194.4-10.6 9.3" fill="none" stroke="#c30d23" stroke-linecap="round" stroke-miterlimit="10" stroke-width=".8"/><path d="m326.9 195.2c0 .2.3.4.5.3l6.3-1-1.8 6.2c0 .2 0 .5.3.5s.5 0 .5-.3l2-6.8c0-.1 0-.3 0-.4s-.2-.2-.4-.1l-7 1.1h-.2c-.1 0-.2.2-.1.4z" fill="#c30d23"/><path d="m362.1 246.2 10.6-9.3" fill="none" stroke="#c30d23" stroke-linecap="round" stroke-miterlimit="10" stroke-width=".8"/><path d="m369.1 245.4c0-.2-.3-.4-.5-.3l-6.3 1 1.8-6.2c0-.2 0-.5-.3-.5-.2 0-.5 0-.5.3l-2 6.8v.4c0 .1.2.2.4.1l7-1.1h.2c.1 0 .2-.2.1-.4z" fill="#c30d23"/><path d="m365.3 230-10.6 9.3" fill="none" stroke="#c30d23" stroke-linecap="round" stroke-miterlimit="10" stroke-width=".8"/><path d="m358.3 230.8c0 .2.3.4.5.3l6.3-1-1.8 6.2c0 .2 0 .5.3.5.2 0 .5 0 .5-.3l2-6.8c0-.1 0-.3 0-.4s-.2-.2-.4-.1l-7 1.1h-.2c-.1 0-.2.2-.1.4z" fill="#c30d23"/><path d="m394.6 281.5 10.5-9.3" fill="none" stroke="#c30d23" stroke-linecap="round" stroke-miterlimit="10" stroke-width=".8"/><path d="m401.5 280.7c0-.2-.3-.4-.5-.3l-6.3 1 1.8-6.2c0-.2 0-.5-.3-.5-.2 0-.5 0-.5.3l-2 6.8v.4c0 .1.2.2.4.1l7-1.1h.2c.1 0 .2-.2.1-.4z" fill="#c30d23"/><path d="m397.7 265.3-10.5 9.3" fill="none" stroke="#c30d23" stroke-linecap="round" stroke-miterlimit="10" stroke-width=".8"/><path d="m390.7 266.1c0 .2.3.4.5.3l6.3-1-1.8 6.2c0 .2 0 .5.3.5.2 0 .5 0 .5-.3l2-6.8c0-.1 0-.3 0-.4s-.2-.2-.4-.1l-7 1.1h-.2c-.1 0-.2.2-.1.4z" fill="#c30d23"/><path d="m424.1 317 10.5-9.2" fill="none" stroke="#c30d23" stroke-linecap="round" stroke-miterlimit="10" stroke-width=".8"/><path d="m431.1 316.3c0-.2-.3-.4-.5-.3l-6.3 1 1.8-6.2c0-.2 0-.5-.3-.5-.2 0-.5 0-.5.3l-2 6.8v.4c0 .1.2.2.4.1l7-1.1h.2c.1 0 .2-.2.1-.4z" fill="#c30d23"/><path d="m427.2 300.9-10.5 9.3" fill="none" stroke="#c30d23" stroke-linecap="round" stroke-miterlimit="10" stroke-width=".8"/><path d="m420.3 301.6c0 .2.3.4.5.3l6.3-1-1.8 6.2c0 .2 0 .5.3.5.2 0 .5 0 .5-.3l2-6.8c0-.1 0-.3 0-.4s-.2-.2-.4-.1l-7 1.1h-.2c-.1 0-.2.2-.1.4z" fill="#c30d23"/><rect fill="#73c2a7" height="67.9" rx="2.8" width="9.5" x="218.4" y="227.9"/><path d="m411.6 85.2-.6 1.5s0 .2-.2.2-.2 0-.2-.2 0-.1 0-.2l1.9-4.7c0-.1.1-.3.3-.3s.3.2.3.3l1.9 4.7v.2c0 .1-.1.2-.2.2s-.2-.1-.2-.2l-.6-1.5h-2.5zm2.3-.4-1.1-2.8-1.1 2.8z" fill="#231815"/><path d="m416 86.4c.2 0 .4.1.7.1s1.1 0 1.1-.7-.4-.6-1-.8c-.5-.2-1-.3-1-1s.6-1.1 1.3-1.1.7 0 .8.1c0 0 .2 0 .2.2s0 .2-.2.2-.2 0-.2 0c-.2 0-.4 0-.5 0-.5 0-.9.2-.9.7s.3.6 1 .8c.4.1 1.1.3 1.1 1.1s-.7 1.1-1.5 1.1-.6 0-1-.2c0 0-.2 0-.2-.2s0-.2.2-.2.2 0 .3 0z" fill="#231815"/><path d="m421.3 83c.1 0 .1-.1.2-.1 0 0 .2 0 .2.2s0 .1-.1.2l-1.5 1.3 1.8 1.9s.1.1.1.2c0 0-.1.2-.2.2s-.1 0-.2-.1l-2-2.2v2.1c0 .2-.1.2-.2.2s-.2 0-.2-.2v-5.1c0-.2.1-.2.2-.2s.2 0 .2.2v2.9z" fill="#231815"/><path d="m425.8 85.8c0 .5 0 .8.7.8s.3 0 .3 0c.1 0 .2 0 .2.2s-.2.2-.6.2c-1 0-1-.5-1-1.2v-2.4h-.7c-.2 0-.2-.2-.2-.2 0-.1 0-.2.2-.2h.7v-1c0-.2.1-.2.2-.2s.2 0 .2.2v1h1.1c.2 0 .2.1.2.2s0 .2-.2.2h-1.1z" fill="#231815"/><path d="m430.8 86.7c0 .2-.1.2-.2.2s-.2 0-.2-.2v-2.1c0-.6 0-1.4-1-1.4s-.9.4-1 .5c-.2.3-.2.6-.2.9v2.1c0 .2-.1.2-.2.2s-.2 0-.2-.2v-5.1c0-.2.1-.2.2-.2s.2 0 .2.2v1.9c.5-.7 1-.7 1.2-.7.6 0 1 .3 1.1.6.2.3.2.6.2 1.2v2.1z" fill="#231815"/><path d="m432.1 85c0 .3 0 1.5 1.5 1.5s.6 0 .8-.1h.2s.2 0 .2.2 0 .2-.1.2c-.2 0-.6.2-1.1.2-1.6 0-1.9-1.2-1.9-2 0-1.1.6-2 1.7-2s1.6 1.1 1.6 1.8-.3.4-.6.4h-2.4zm2.4-.4s.2 0 .2-.1c0-.3-.3-1.3-1.3-1.3s-1.3.6-1.3 1.4z" fill="#231815"/><path d="m438.3 86.3c.3.2.6.2.9.2.6 0 1.3-.3 1.3-1.1s-.5-.9-1.1-1.1-1.4-.5-1.4-1.4.6-1.4 1.5-1.4.7 0 1 .2c0 0 .2 0 .2.2s0 .2-.2.2 0 0-.2 0c-.1 0-.4-.1-.7-.1-.7 0-1.1.5-1.1 1s.5.8 1.1 1 1.4.5 1.4 1.5-.8 1.5-1.8 1.5-1-.2-1.2-.3c0 0-.2-.1-.2-.2s0-.2.2-.2 0 0 .2 0z" fill="#231815"/><path d="m442.3 83.6c.1-.2.5-.8 1.4-.8s1.7.7 1.7 2-.8 2-1.7 2-1.2-.5-1.4-.8v2.2c0 .1 0 .2-.2.2s-.2 0-.2-.2v-5.3c0-.1 0-.2.2-.2s.2 0 .2.2v.6zm1.4 2.9c.7 0 1.4-.5 1.4-1.7s-.7-1.7-1.4-1.7-1.3.5-1.3 1.7.6 1.7 1.3 1.7z" fill="#231815"/><path d="m446.5 85c0 .3 0 1.5 1.5 1.5s.6 0 .8-.1h.2s.2 0 .2.2 0 .2-.1.2c-.2 0-.6.2-1.1.2-1.6 0-1.9-1.2-1.9-2 0-1.1.6-2 1.7-2s1.6 1.1 1.6 1.8-.3.4-.6.4h-2.4zm2.4-.4s.2 0 .2-.1c0-.3-.3-1.3-1.3-1.3s-1.3.6-1.3 1.4z" fill="#231815"/><path d="m453.3 86.1v.4s0 .2 0 .2c0 .1-.1.2-.2.2-.3 0-.3-.5-.3-.8-.5.7-1.2.8-1.5.8-.8 0-1.2-.5-1.2-1.1s.3-1 1.2-1.2c.2 0 .9-.1 1.1-.2.1 0 .3 0 .3-.4 0-.5-.5-.8-1.1-.8s-.7 0-.8.2c-.1 0-.2 0-.2 0-.1 0-.2 0-.2-.2s0-.2.2-.2.5-.2 1-.2 1 .1 1.3.5c.2.2.2.5.2.9v1.8zm-.4-1.5c-.2.1-.3.1-1.1.2-.6 0-1.2.2-1.2.9s.1.8.8.8 1.2-.5 1.4-1v-.9z" fill="#231815"/><path d="m456.5 83c.1 0 .1-.1.2-.1 0 0 .2 0 .2.2s0 .1-.1.2l-1.5 1.3 1.8 1.9s.1.1.1.2c0 0-.1.2-.2.2s-.1 0-.2-.1l-2-2.2v2.1c0 .2-.1.2-.2.2s-.2 0-.2-.2v-5.1c0-.2.1-.2.2-.2s.2 0 .2.2v2.9z" fill="#231815"/><path d="m458.2 85c0 .3 0 1.5 1.5 1.5s.6 0 .8-.1h.2s.2 0 .2.2 0 .2-.1.2c-.2 0-.6.2-1.1.2-1.6 0-1.9-1.2-1.9-2 0-1.1.6-2 1.7-2s1.6 1.1 1.6 1.8-.3.4-.6.4h-2.4zm2.4-.4s.2 0 .2-.1c0-.3-.3-1.3-1.3-1.3s-1.3.6-1.3 1.4z" fill="#231815"/><path d="m462.4 83.5c.3-.5.8-.7 1.1-.7s.2 0 .2.2-.1.2-.2.2c-.2 0-.2 0-.3 0-.8.2-.8 1.1-.8 1.4v2.1c0 .1 0 .2-.2.2s-.2 0-.2-.2v-3.6c0-.1 0-.2.2-.2s.2 0 .2.2v.5z" fill="#231815"/><path d="m415.1 92c.5 0 .8 0 .8.7v2.8c0 .7-.4.7-.8.7h-3.8s-.2 0-.2-.2 0-.2.2-.2h3.7c.5 0 .5-.2.5-.5v-2.6c0-.2 0-.5-.5-.5h-3.6s-.2 0-.2-.2 0-.2.2-.2h3.7z" fill="#231815"/><path d="m422.8 93.9s.2 0 .2.2-.1.2-.2.2h-5.2s-.2 0-.2-.2.2-.2.2-.2z" fill="#231815"/><path d="m425 95.4c0 .7.2.9 2.1.9s1 0 1.6 0h.4c.1 0 .2 0 .2.2s0 .2-.3.2-1.5 0-1.8 0c-1.9 0-2.7 0-2.7-1.2v-4s0-.2.2-.2.2 0 .2.2v2.1c1.4-.3 2.7-.8 3.5-1.2.2-.1.2-.1.3-.1s.2.1.2.2 0 .1-.7.4c-1.2.6-2 .8-3.3 1.1v1.4z" fill="#231815"/><path d="m435.9 93.9s.2 0 .2.2-.1.2-.2.2h-5.2s-.2 0-.2-.2.2-.2.2-.2z" fill="#231815"/><path d="m441.4 92c.5 0 .8 0 .8.7v2.8c0 .7-.4.7-.8.7h-3.8s-.2 0-.2-.2 0-.2.2-.2h3.7c.5 0 .5-.2.5-.5v-2.6c0-.2 0-.5-.5-.5h-3.6s-.2 0-.2-.2 0-.2.2-.2h3.7z" fill="#231815"/><path d="m449 93.9s.2 0 .2.2-.1.2-.2.2h-5.2s-.2 0-.2-.2.2-.2.2-.2z" fill="#231815"/><path d="m455.6 93s.2 0 .2.2-.1.2-.2.2h-2.2c0 1.3-.2 2.2-1.2 2.9-.3.3-.9.6-1 .6s-.2 0-.2-.2 0-.1.2-.2c1.7-.8 1.8-2.1 1.8-3.1h-2.7s-.2 0-.2-.2 0-.2.2-.2h2.7v-1.4s0-.2.2-.2.2 0 .2.2v1.4z" fill="#231815"/><path d="m462.1 93.9s.2 0 .2.2-.1.2-.2.2h-5.2s-.2 0-.2-.2.2-.2.2-.2z" fill="#231815"/><path d="m415.7 101.9c.3 0 .5 0 .5.3s-.2.4-.3.6c-.7 1-1.3 1.7-2 2.6.2.2.5.5.7.7.1.2.2.2.2.3s-.1.2-.2.2 0 0-.2-.2c-.9-1-1.6-1.6-2-2 0 0-.2-.1-.2-.2s0-.2.2-.2 1 .8 1.3 1.1c.9-.9 2.1-2.5 2.1-2.7s0 0-.2 0h-4.3c-.1 0-.2 0-.2-.2s.1-.2.2-.2h4.6z" fill="#231815"/><path d="m418.3 102.9s.1 0 .3.3c.1.2.5.8.5.9s-.1.2-.2.2-.1 0-.3-.4c-.2-.3-.3-.5-.4-.6 0 0 0-.1 0-.2 0 0 0-.2.2-.2zm3.3 2.1c-.9 1.5-2.4 1.9-2.5 1.9 0 0-.2 0-.2-.2s0-.1.3-.2c1.4-.6 2.3-1.7 2.6-3.4 0-.3 0-.4.2-.4s.2 0 .2.2-.2 1.2-.7 2.1zm-1.9-2.4s.2 0 .4.5c0 .1.3.7.3.8s0 .2-.2.2-.1 0-.2-.2c-.2-.4-.3-.6-.4-.7 0-.1-.1-.3-.1-.3s0-.2.2-.2z" fill="#231815"/><path d="m425.2 101.5s0-.2.2-.2.2.1.2.2v1.2h2.4v-1.4s0-.2.2-.2.2.1.2.2v1.4h1.1s.2 0 .2.2 0 .2-.2.2h-1.1v.6c0 .7 0 1.5-.7 2.2-.4.5-1.1.8-1.2.8s-.2 0-.2-.2 0-.1.2-.2c1.3-.6 1.4-1.7 1.4-2.6v-.7h-2.4v1.7s0 .2-.2.2-.2-.2-.2-.2v-1.7h-1.1s-.2 0-.2-.2 0-.2.2-.2h1.1v-1.2z" fill="#231815"/><path d="m435.9 103.7s.2 0 .2.2-.1.2-.2.2h-5.2s-.2 0-.2-.2.2-.2.2-.2z" fill="#231815"/><path d="m437.5 102.9c.2 0 1.1.4 1.2.5.4.2.5.2.5.3s0 .2-.2.2 0 0-.2 0c-.5-.2-.8-.3-1.3-.5-.1 0-.2 0-.2-.2s0-.2.2-.2zm.3 3.6c0-.1 0-.1.4-.2 1-.3 2.7-1.1 4.1-3.1.1-.2.2-.2.3-.2s.2 0 .2.2-.8 1.3-2 2.2c-1.4 1.1-2.6 1.4-2.7 1.4-.2 0-.2-.2-.2-.2zm.3-5.2c.2 0 1 .3 1.3.5s.5.2.5.3 0 .2-.2.2 0 0-.2 0c-.5-.2-.7-.3-1.3-.5 0 0-.2 0-.2-.2s0-.2.2-.2zm3.6.3s.5.6.5.7 0 .2-.2.2-.1 0-.4-.4c0 0-.4-.5-.5-.6 0 0 0 0 0-.1 0 0 0-.2.2-.2s.1 0 .4.4zm.9-.5c.2.2.5.6.5.7s0 .2-.2.2-.1 0-.4-.4c0 0-.4-.5-.5-.6 0 0 0 0 0-.1 0 0 0-.2.2-.2s.1 0 .4.3z" fill="#231815"/><path d="m414.9 111.3c0-.2.1-.2.2-.2s.2 0 .2.2v4.6c0 .2 0 .5-.4.5s-.3-.1-.4-.3l-3.2-4.6v4.7c0 .2-.1.2-.2.2s-.2 0-.2-.2v-4.6c0-.2 0-.5.4-.5s.3.1.4.3l3.2 4.6z" fill="#231815"/><path d="m419.1 113.5c.2 0 .2.1.2.2s0 .2-.2.2h-2.2v2.3c0 .2-.1.2-.2.2s-.2 0-.2-.2v-4.4c0-.2 0-.6.6-.6h2.3c.2 0 .2.1.2.2s0 .2-.2.2h-2.2c-.2 0-.3 0-.3.3v1.7h2.2z" fill="#231815"/><path d="m420.3 113.7c0-1.5 1-2.7 2.7-2.7s1.1.2 1.4.3c.1 0 .1.1.1.2s0 .2-.2.2 0 0-.2 0c-.4-.2-.9-.3-1.1-.3-1.4 0-2.3 1-2.3 2.3s.7 2.3 2.3 2.3.8 0 1.1-.2c0 0 .2-.1.3-.1 0 0 .2 0 .2.2s0 .2-.1.2c-.5.2-1 .3-1.4.3-1.8 0-2.7-1.2-2.7-2.7z" fill="#231815"/><path d="m430.3 112.2c.3 0 .7 0 .7.6s-.2 1.9-.3 2.6c-.2.8-.5.9-1.3.9s-.5 0-.5-.2 0-.2.2-.2.4 0 .5 0c.5 0 .7 0 .9-1.3.1-.7.2-1.4.2-1.7s0-.4-.5-.4h-1.5c-.1.9-.3 2-1.1 3-.3.4-.9.9-1 .9s-.2-.1-.2-.2 0 0 .2-.3c1.5-1.1 1.6-2.5 1.8-3.4h-2s-.2 0-.2-.2 0-.2.2-.2h2c0-.3 0-.7 0-1s0-.3.2-.3.2.1.2.3 0 .5 0 1h1.7z" fill="#231815"/><path d="m437.8 113.6s.2 0 .2.2-.1.2-.2.2h-5.2s-.2 0-.2-.2.2-.2.2-.2z" fill="#231815"/><path d="m440.9 116.5s0 .2-.2.2-.2-.1-.2-.2v-5.4s0-.2.2-.2.2 0 .2.2v1.7c1.1.5 2.1 1.1 2.7 1.5.2.2.3.2.3.3s0 .2-.2.2-.1 0-.4-.3c-.6-.4-1.4-1-2.4-1.4v3.2zm2.1-4.5c.1.1.6.6.6.7s0 .2-.2.2-.1 0-.4-.3c0 0-.5-.5-.5-.5s0 0 0-.1.1-.2.2-.2c0 0 .1 0 .4.3zm.7-.7c.2.2.6.6.6.7s0 .2-.2.2-.1 0-.4-.4c0 0-.4-.4-.5-.5 0 0 0 0 0-.1s.1-.2.2-.2.1 0 .4.3z" fill="#231815"/><path d="m451.5 111.9s.2 0 .2.1-.1.1-.2.1h-.5v.2c0 .4-.1.5-.5.5h-1.7v.4h2.3s.2 0 .2.1-.1.1-.2.1h-2.3v.4h2.7s.2 0 .2.1-.1.1-.2.1h-5.7s-.2 0-.2-.1 0-.1.2-.1h2.6v-.4h-2.2s-.2 0-.2-.1.1-.1.2-.1h2.2v-.4h-2s-.2 0-.2-.1 0-.2.2-.2h2v-.4h-2.6s-.2 0-.2-.1 0-.1.2-.1h2.6v-.4h-2s-.2 0-.2-.1 0-.2.2-.2h2v-.2s0-.2.2-.2.2.1.2.2v.2h1.7c.4 0 .5.1.5.5v.2zm-.5 4.3c0 .4-.1.5-.5.5h-3.5c-.4 0-.5-.1-.5-.5v-.8c0-.4.1-.5.5-.5h3.5c.4 0 .5.1.5.5zm-.4-.6v-.3c0-.2 0-.2-.2-.2h-3.3c-.2 0-.2 0-.2.2v.3h3.8zm0 .3h-3.8v.3c0 .2 0 .2.2.2h3.3c.2 0 .2 0 .2-.2v-.3zm.1-4v-.2c0-.2 0-.3-.2-.3h-1.6v.4h1.9zm0 .3h-1.9v.4h1.6c.2 0 .2 0 .2-.2v-.2z" fill="#231815"/><path d="m458.1 116.4s.2 0 .2.1c0 .2-.1.2-.2.2h-2.8c-.8 0-1.3-.2-1.5-.4-.3-.2-.4-.4-.5-.6-.4.5-.6.8-.7.8-.2.2-.2.2-.3.2 0 0-.2 0-.2-.2s0-.1.2-.3c.4-.4.6-.7.7-.8v-1.5c0-.2 0-.2-.2-.2h-.5s-.2 0-.2-.2.1-.2.2-.2h.6c.4 0 .5.1.5.5v1.2c0 .7.5.9.7 1 .4.2.9.2 1.1.2h2.8zm-5.5-5.5c.1 0 .6.4.8.5.4.3.4.3.4.4s0 .2-.2.2 0 0-.3-.2-.6-.4-.7-.6c-.1 0-.1 0-.2-.1 0 0 0-.2.2-.2zm2.1.4s-.2 0-.2-.2.1-.2.2-.2h1.1c.5 0 .5.1.6.8 0 .5.2 1.1.3 1.4.2.6.6 1.4 1.4 2.1 0 0 .1.1.1.2 0 0-.1.2-.2.2-.2 0-.6-.6-.9-1-.4-.6-.7-1.4-.9-2.2-.3 1.1-.9 2.2-1.6 2.9-.1.1-.3.3-.4.3s-.2-.1-.2-.2 0 0 0-.2c.6-.5 1.2-1.3 1.7-2.6.1-.3.3-.8.3-1.1s0-.3-.3-.3h-1.1z" fill="#231815"/><path d="m459.3 112s-.2 0-.2-.2.1-.2.2-.2h3.7c.1 0 .7 0 .7.5s-.1 1.9-1.7 3.3c-.7.6-1.6 1-1.7 1s-.2 0-.2-.2 0-.1.2-.2c.7-.4 2.2-1.1 2.8-2.9.2-.4.2-.8.2-1s-.2-.2-.4-.2h-3.6zm4.6-.8c.1.2.5.7.5.8s0 .2-.2.2-.1 0-.3-.4c-.1-.2-.3-.4-.4-.6 0 0 0 0 0-.1 0 0 .1-.2.2-.2 0 0 .1 0 .3.3zm.9-.2s.3.5.3.6-.1.2-.2.2-.1 0-.4-.4c0 0-.3-.5-.4-.6 0 0 0 0 0-.1s.1-.2.2-.2c0 0 .1 0 .5.5z" fill="#231815"/><path d="m471 113.6s.2 0 .2.2-.1.2-.2.2h-5.2s-.2 0-.2-.2.2-.2.2-.2z" fill="#231815"/><path d="m472.8 111.8s-.2 0-.2-.2.1-.2.2-.2h3.3c.2 0 .6 0 .6.4s-.6 1.5-1.1 2.1c.4.3 1.2 1 1.9 1.9 0 .1.1.2.1.2 0 .1-.1.2-.2.2s-.1 0-.2-.2c-.8-1-1.5-1.5-1.9-1.9-1.2 1.5-2.8 2.1-2.9 2.1s-.2-.1-.2-.2 0-.1.2-.2c3-1.4 3.7-4 3.7-4 0-.1 0-.2-.3-.2h-3.1z" fill="#231815"/><path d="m367.3 149.2 40.8-28.8h69.2" fill="none" stroke="#108357" stroke-linecap="round" stroke-miterlimit="10" stroke-width="1.3"/><path d="m222.8 270.6-45.3 73.3h-86.8" fill="none" stroke="#108357" stroke-linecap="round" stroke-miterlimit="10" stroke-width="1.3"/><path d="m100.4 315.8s.2 0 .2.2 0 .2-.2.2h-5.1s-.2 0-.2-.2 0-.2.2-.2h2.4v-3.5h-1.9s-.2 0-.2-.2 0-.2.2-.2h4.2s.2 0 .2.2 0 .2-.2.2h-1.9v3.5h2.4z" fill="#231815"/><path d="m103.5 312.2c.5.3.6.3.6.4s-.1.2-.2.2-.1 0-.3-.1c-.5-.3-1-.5-1.5-.7 0 0-.2 0-.2-.2s0-.2.2-.2.7.2 1.3.5zm3.6.9c0 .1-.6 1-1.6 1.9-1.6 1.4-3.2 1.7-3.3 1.7s-.2-.1-.2-.2 0-.1.5-.3c1.4-.4 2.9-1.3 4.1-2.9.2-.3.3-.4.4-.4s.2 0 .2.2z" fill="#231815"/><path d="m110.2 316.7s0 .2-.2.2-.2-.1-.2-.2v-5.4s0-.2.2-.2.2.1.2.2v1.7c1.5.6 2.1 1.1 2.8 1.6.2.1.2.2.2.3s0 .2-.2.2-.1 0-.4-.3c-.8-.6-1.7-1.1-2.4-1.4v3.2z" fill="#231815"/><path d="m119.3 312.9c.3 0 .7 0 .7.5s-.5 1.4-1.2 2.1c-.9.9-2.2 1.3-2.3 1.3s-.2-.1-.2-.2 0-.2.3-.2c2.4-.7 2.9-2.6 2.9-2.8s-.2-.2-.4-.2h-4.1s-.2 0-.2-.2 0-.2.2-.2h4.2zm0-1.4s.2 0 .2.2-.1.2-.2.2h-3.6s-.2 0-.2-.2.1-.2.2-.2z" fill="#231815"/><path d="m123.2 312.2c.5.3.6.3.6.4s-.1.2-.2.2-.1 0-.3-.1c-.5-.3-1-.5-1.5-.7 0 0-.2 0-.2-.2s0-.2.2-.2.7.2 1.3.5zm3.6.9c0 .1-.6 1-1.6 1.9-1.6 1.4-3.2 1.7-3.3 1.7s-.2-.1-.2-.2 0-.1.5-.3c1.4-.4 2.9-1.3 4.1-2.9.2-.3.3-.4.4-.4s.2 0 .2.2z" fill="#231815"/><path d="m128.5 312s-.2 0-.2-.2.1-.2.2-.2h3.3c.2 0 .6 0 .6.4s-.6 1.5-1.1 2.1c.4.3 1.2 1 1.9 1.9 0 .1.1.2.1.2 0 .1-.1.2-.2.2s-.1 0-.2-.2c-.8-1-1.5-1.5-1.9-1.9-1.2 1.5-2.8 2.1-2.9 2.1s-.2-.1-.2-.2 0-.1.2-.2c3-1.4 3.7-4 3.7-4 0-.1 0-.2-.3-.2h-3.1z" fill="#231815"/><path d="m137 311.5c-.8 1-1.6 1.4-1.9 1.6-.2.1-.7.4-.8.4s-.2-.1-.2-.2 0-.1.2-.2c1.4-.6 2.2-1.5 2.6-1.9 0-.1.1-.2.3-.2s.2 0 .3.2c1.1 1.3 2.2 1.8 2.6 1.9 0 0 .2 0 .2.2s0 .2-.2.2-1.3-.5-2.5-1.7c0 0-.2-.2-.3-.3s0 0-.2.1zm.4 4.9h2.5s.2 0 .2.2-.1.2-.2.2h-5.6s-.2 0-.2-.2 0-.2.2-.2h.8v-2.7s0-.2.2-.2.2 0 .2.2v2.7h1.5v-3.6s0-.2.2-.2.2.1.2.2v1.3h2s.2 0 .2.2-.1.2-.2.2h-2z" fill="#231815"/><path d="m144.8 312.4c.5 0 .7.2.7.7v2.1c0 .5-.2.7-.7.7h-2.1c-.5 0-.7-.2-.7-.7v-2.1c0-.5.2-.7.7-.7h.9v-.8h-2.7s-.2 0-.2-.2.1-.2.2-.2h5.8s.2 0 .2.2-.1.2-.2.2h-2.7v.8h.9zm1.7 3.8c0 .5-.2.7-.7.7h-4.3c-.5 0-.7-.2-.7-.7v-3.7s0-.2.2-.2.2 0 .2.2v3.7c0 .2.1.3.3.3h4.2c.2 0 .3-.1.3-.3v-3.7s0-.2.2-.2.2 0 .2.2v3.7zm-3-2.3v-1.2h-.8c-.2 0-.3.1-.3.3v.9h1.2zm0 .3h-1.2v.9c0 .2 0 .3.3.3h.8v-1.3zm.4-.3h1.2v-.9c0-.2-.1-.3-.3-.3h-.8v1.2zm0 .3v1.3h.8c.2 0 .3-.1.3-.3v-.9h-1.2z" fill="#231815"/><path d="m148 311.8c.1 0 .2 0 .5.5.2.2.8.9.8 1.1s-.1.2-.2.2-.2 0-.2-.2c-.5-.7-.6-.8-.9-1.2 0-.1-.1-.1-.1-.2s0-.2.2-.2zm.7 4.8c0-.1 0-.1.3-.2 1.8-.7 2.7-2.2 3-3.5 0-.1 0-.3.2-.3s.2.1.2.2-.3 1.6-1.4 2.7-2.1 1.3-2.2 1.3-.2 0-.2-.2zm3.6-5.1c.2.2.6.6.6.8s0 .2-.2.2-.1 0-.4-.4c-.2-.2-.3-.4-.5-.6 0 0 0 0 0-.2s0-.2.2-.2.1 0 .3.3zm.9-.5s.5.5.5.7-.1.2-.2.2-.1 0-.4-.4c0 0-.3-.4-.4-.5 0 0 0 0 0-.1 0 0 0-.2.2-.2 0 0 .1 0 .4.4z" fill="#231815"/><path d="m159.4 313.8s.2 0 .2.2-.1.2-.2.2h-5.2s-.2 0-.2-.2.2-.2.2-.2z" fill="#231815"/><path d="m162.6 312.2c.5.3.6.3.6.4s-.1.2-.2.2-.1 0-.3-.1c-.5-.3-1-.5-1.5-.7 0 0-.2 0-.2-.2s0-.2.2-.2.7.2 1.3.5zm3.6.9c0 .1-.6 1-1.6 1.9-1.6 1.4-3.2 1.7-3.3 1.7s-.2-.1-.2-.2 0-.1.5-.3c1.4-.4 2.9-1.3 4.1-2.9.2-.3.3-.4.4-.4s.2 0 .2.2z" fill="#231815"/><path d="m97 321.2c.3 0 .8 0 1.3.2 1.2.5 1.4 1.7 1.4 2.4s0 1.5-1 2.1c-.5.3-1 .4-1.8.4h-1.3c-.6 0-.6-.4-.6-.6v-3.8c0-.2 0-.6.6-.6h1.3zm-1.5 4.5c0 .2 0 .3.3.3h1.2c.8 0 1.2-.1 1.5-.4.7-.5.8-1.5.8-1.8 0-2.2-1.7-2.2-2.3-2.2h-1.2c-.2 0-.3 0-.3.3z" fill="#231815"/><path d="m103.4 325.6v.4.2c0 .1-.1.2-.2.2-.3 0-.3-.5-.3-.8-.5.7-1.2.8-1.5.8-.8 0-1.2-.5-1.2-1.1s.3-1 1.2-1.2c.2 0 .9-.1 1.1-.2.1 0 .3 0 .3-.4 0-.5-.5-.8-1.1-.8s-.7 0-.8.2c-.1 0-.2 0-.2 0-.1 0-.2 0-.2-.2s0-.2.2-.2.5-.2 1-.2 1 .1 1.3.5c.2.2.2.5.2.9v1.8zm-.4-1.4c-.2.1-.3.1-1.1.2-.6 0-1.2.2-1.2.9s.1.8.8.8 1.2-.5 1.4-1v-.9z" fill="#231815"/><path d="m105.5 326.1-1.3-3.4s0-.1 0-.2c0 0 .1-.2.2-.2s.2 0 .2.1l1.2 3 1.2-3s0-.1.2-.1.2 0 .2.2 0 0 0 .1l-2.1 5.2s0 .2-.2.2-.2 0-.2-.2 0 0 0-.1l.7-1.7z" fill="#231815"/><path d="m108.8 322.2s0 0-.1 0-.2-.1-.2-.2 0-.1.1-.2l1-.7c.1 0 .2-.1.3-.1.2 0 .2.2.2.3v4.8c0 .2-.1.2-.2.2s-.2 0-.2-.2v-4.5l-.8.6z" fill="#231815"/><path d="m115.6 322.2c0 .2-.2.4-.4.4s-.4-.2-.4-.4.2-.4.4-.4.4.2.4.4zm0 3.3c0 .2-.2.4-.4.4s-.4-.2-.4-.4.2-.4.4-.4.4.2.4.4z" fill="#231815"/><path d="m121.9 326.5c0 .1 0 .2-.2.2s-.2 0-.2-.2v-2.2c-.9.6-2.2 1-2.4 1s-.2 0-.2-.2 0-.2.3-.2c2.2-.6 3.8-2.2 3.8-2.4s0 0-.2 0h-3.3s-.2 0-.2-.2 0-.2.2-.2h3.5c.1 0 .5 0 .5.3s0 .3-.5.7c-.3.3-.7.7-1.1.9v2.4zm-1.1-5.6c.1 0 .9.2 1.5.4.2 0 .2 0 .2.2s0 .2-.2.2-.7-.2-.8-.3c-.1 0-.6-.2-.7-.2s-.2 0-.2-.2 0-.2.2-.2zm2 3.3c.1 0 1.1.6 1.2.7.3.2.3.2.3.3s0 .2-.2.2 0 0-.4-.2c-.3-.2-.7-.4-1.1-.6 0 0-.2 0-.2-.2s0-.2.2-.2z" fill="#231815"/><path d="m128.7 326.5s0 .2-.2.2-.2-.1-.2-.2v-3.5c-1.2.7-2.4 1.1-2.5 1.1s-.2-.1-.2-.2 0-.1.3-.2c1.6-.6 2.9-1.4 3.9-2.2.2-.1.2-.2.4-.4h.2s.2 0 .2.2 0 .1-.2.2c-.7.6-1.3 1-1.8 1.3v3.7z" fill="#231815"/><path d="m133.4 321.4s0-.2.2-.2.2 0 .2.2v1.3c0 .8 0 1.9-.6 2.9-.2.3-.6 1-.8 1s-.2 0-.2-.2 0 0 .1-.2c.9-1 1.1-2.1 1.1-3.4v-1.3zm2 4.2c0 .2 0 .3.1.3.3 0 1.3-.7 2-1.8 0-.1.1-.2.2-.2 0 0 .2.1.2.2 0 .3-1.6 2.2-2.5 2.2s-.4-.3-.4-.5v-4.5c0-.1 0-.2.2-.2s.2 0 .2.2z" fill="#231815"/><path d="m143.8 321.6c.2 0 .3.1.3.2 0 .3-1.5 2.3-1.8 2.3s-.2 0-.2-.2 0 0 .3-.4c.6-.6 1.1-1.4 1.1-1.5s0 0-.1 0h-4.6s-.2 0-.2-.2 0-.2.2-.2h4.9zm-4.6 4.8c0-.1 0-.1.2-.2.4-.3 1.6-.9 1.6-3s0-.3.2-.3.2.1.2.3 0 1.2-.4 2c-.2.4-.5.8-1.3 1.3-.1 0-.2 0-.3 0s-.2-.1-.2-.2z" fill="#231815"/><path d="m150.5 323.6s.2 0 .2.2-.1.2-.2.2h-5.2s-.2 0-.2-.2.2-.2.2-.2z" fill="#231815"/><path d="m153.8 326.5s0 .2-.2.2-.2-.1-.2-.2v-5.4s0-.2.2-.2.2.1.2.2v1.7c1.5.6 2.1 1.1 2.8 1.6.2.1.2.2.2.3s0 .2-.2.2-.1 0-.4-.3c-.8-.6-1.7-1.1-2.4-1.4v3.2z" fill="#231815"/><path d="m97 331c.3 0 .8 0 1.3.2 1.2.5 1.4 1.7 1.4 2.4s0 1.5-1 2.1c-.5.3-1 .4-1.8.4h-1.3c-.6 0-.6-.4-.6-.6v-3.8c0-.2 0-.6.6-.6h1.3zm-1.5 4.5c0 .2 0 .3.3.3h1.2c.8 0 1.2-.1 1.5-.4.7-.5.8-1.5.8-1.8 0-2.2-1.7-2.2-2.3-2.2h-1.2c-.2 0-.3 0-.3.3z" fill="#231815"/><path d="m103.4 335.5v.4.2c0 .1-.1.2-.2.2-.3 0-.3-.5-.3-.8-.5.7-1.2.8-1.5.8-.8 0-1.2-.5-1.2-1.1s.3-1 1.2-1.2c.2 0 .9-.1 1.1-.2.1 0 .3 0 .3-.4 0-.5-.5-.8-1.1-.8s-.7 0-.8.2c-.1 0-.2 0-.2 0-.1 0-.2 0-.2-.2s0-.2.2-.2.5-.2 1-.2 1 .1 1.3.5c.2.2.2.5.2.9v1.8zm-.4-1.5c-.2.1-.3.1-1.1.2-.6 0-1.2.2-1.2.9s.1.8.8.8 1.2-.5 1.4-1v-.9z" fill="#231815"/><path d="m105.5 335.9-1.3-3.4s0-.1 0-.2c0 0 .1-.2.2-.2s.2 0 .2.1l1.2 3 1.2-3s0-.1.2-.1.2 0 .2.2 0 0 0 .1l-2.1 5.2s0 .2-.2.2-.2 0-.2-.2 0 0 0-.1l.7-1.7z" fill="#231815"/><path d="m111.3 335.8c.2 0 .2.1.2.2s0 .2-.2.2h-2.8c-.3 0-.6 0-.6-.3s0-.3.5-.6c.3-.2 1.2-1 1.8-1.7.4-.4.5-.8.5-1.2 0-.6-.4-1-1-1s-.8.2-1.1.5c-.1.1-.1.2-.2.2s-.2 0-.2-.2.6-.8 1.5-.8 1.5.4 1.5 1.4-.3 1-.6 1.3c-.6.6-1.8 1.7-2.3 2.1h2.9z" fill="#231815"/><path d="m115.6 332.1c0 .2-.2.4-.4.4s-.4-.2-.4-.4.2-.4.4-.4.4.2.4.4zm0 3.2c0 .2-.2.4-.4.4s-.4-.2-.4-.4.2-.4.4-.4.4.2.4.4z" fill="#231815"/><path d="m119.3 331.8s-.2 0-.2-.2.1-.2.2-.2h4.1c.3 0 .7 0 .7.5s0 1.8-1.5 3.2c-.8.9-1.9 1.3-2 1.3s-.2 0-.2-.2 0-.1.3-.2c1-.5 1.9-1.2 2.4-2.2.4-.8.5-1.5.5-1.6 0-.2-.2-.2-.4-.2h-4z" fill="#231815"/><path d="m130.3 335.8s.2 0 .2.2 0 .2-.2.2h-4.2s-.2 0-.2-.2 0-.2.2-.2h1.9v-2.8h-1.5s-.2 0-.2-.2 0-.2.2-.2h3.4s.2 0 .2.2 0 .2-.2.2h-1.5v2.8z" fill="#231815"/><path d="m135.2 336.3s0 .2-.2.2-.2-.1-.2-.2v-3.5c-1.2.7-2.4 1.1-2.5 1.1s-.2-.1-.2-.2 0-.1.3-.2c1.6-.6 2.9-1.4 3.9-2.2.2-.1.2-.2.4-.4h.2s.2 0 .2.2 0 .1-.2.2c-.7.6-1.3 1-1.8 1.3v3.7z" fill="#231815"/><path d="m139.2 331.7s-.2 0-.2-.2.1-.2.2-.2h3.3c.2 0 .6 0 .6.4s-.6 1.5-1.1 2.1c.4.3 1.2 1 1.9 1.9 0 .1.1.2.1.2 0 .1-.1.2-.2.2s-.1 0-.2-.2c-.8-1-1.5-1.5-1.9-1.9-1.2 1.5-2.8 2.1-2.9 2.1s-.2-.1-.2-.2 0-.1.2-.2c3-1.4 3.7-4 3.7-4 0-.1 0-.2-.3-.2h-3.1z" fill="#231815"/><path d="m148.3 332.5c1 1.4 1.7 2.3 2.4 3.1.2.2.2.2.2.3 0 .2-.1.2-.2.2s-.2 0-1-1.2c-.5-.7-.7-.9-1.9-2.6-.1-.2-.2-.3-.3-.3s-.2 0-.4.3c-.8 1.2-1.2 1.7-1.5 2 0 0-.1.1-.2.1s-.2 0-.2-.2 0-.1.2-.3c.5-.6 1.2-1.6 1.6-2.2 0-.1.2-.3.5-.3s.3 0 .9.9zm2.7-.4c0 .5-.4 1-.9 1s-1-.4-1-1 .4-.9 1-.9.9.4.9.9zm-1.6 0c0 .3.3.6.6.6s.6-.3.6-.6-.3-.6-.6-.6-.6.3-.6.6z" fill="#231815"/><path d="m154.9 336.3s0 .2-.2.2-.2-.1-.2-.2v-3.5c-1.2.7-2.4 1.1-2.5 1.1s-.2-.1-.2-.2 0-.1.3-.2c1.6-.6 2.9-1.4 3.9-2.2.2-.1.2-.2.4-.4h.2s.2 0 .2.2 0 .1-.2.2c-.7.6-1.3 1-1.8 1.3v3.7z" fill="#231815"/><path d="m160.2 331.8c.5.3.6.3.6.4s-.1.2-.2.2-.1 0-.3-.1c-.5-.3-1-.5-1.5-.7 0 0-.2 0-.2-.2s0-.2.2-.2.7.2 1.3.5zm3.6 1c0 .1-.6 1-1.6 1.9-1.6 1.4-3.2 1.7-3.3 1.7s-.2-.1-.2-.2 0-.1.5-.3c1.4-.4 2.9-1.3 4.1-2.9.2-.3.3-.4.4-.4s.2 0 .2.2z" fill="#231815"/><path d="m166.9 336.4s0 .2-.2.2-.2-.1-.2-.2v-5.4s0-.2.2-.2.2.1.2.2v1.7c1.5.6 2.1 1.1 2.8 1.6.2.1.2.2.2.3s0 .2-.2.2-.1 0-.4-.3c-.8-.6-1.7-1.1-2.4-1.4v3.2z" fill="#231815"/><path d="m4.1 54.3 300.4-.7c.9 0 1.7.4 2.2 1l194.3 221.1c1.1 1.2 1 3.1-.3 4.2l-66.2 58.6c-1.2 1.1-3.1 1-4.2-.2l-64.8-72.6c-1.1-1.2-3-1.3-4.2-.3l-11.6 10.2c-1.2 1.1-3.1 1-4.2-.3l-9.2-10.3c-1.1-1.2-2.9-1.3-4.2-.3l-40.8 35.3c-.5.5-1.2.7-2 .7l-286.2-1c-1.6 0-3-1.3-3-3l1-239.4c0-1.6 1.3-3 3-3z" fill="none" stroke="#2052a2" stroke-miterlimit="10" stroke-width=".7"/><path d="m213.7 324.7c-.6.7-1.2 1.2-2.3 1.9-.2.1-.9.5-1 .5s-.2-.2-.2-.3 0-.2.2-.2c.7-.3 1.9-.8 3-2.3.2-.3.2-.3.4-.3s.2 0 .4.3c.3.4 1.3 1.5 3 2.3.1 0 .2 0 .2.2s-.1.3-.2.3-2.1-1-3.2-2.4c-.1-.1-.1-.2-.2-.2s0 0-.2.1zm-.5 3.6c-.4 1-1 2-1.2 2.2.9 0 3.1-.2 4.1-.3-.5-.6-.9-1-1.1-1.2 0 0-.1-.1-.1-.2s.1-.2.2-.2c.3 0 2.1 2 2.1 2.4s-.1.2-.3.2-.1 0-.1 0-.3-.5-.4-.5c-1.8.1-4.7.3-5.7.3s-.3 0-.3-.2.1-.2.3-.2.2 0 .7 0c.3-.4.9-1.5 1.2-2.3h-2.1s-.2 0-.2-.2.2-.2.2-.2h6.6s.2 0 .2.2-.2.2-.2.2zm2.6-2s.2 0 .2.2-.1.2-.2.2h-3.7s-.2 0-.2-.2.1-.2.2-.2z" fill="#231815"/><path d="m219.2 326.3h-.9s-.2 0-.2-.2.2-.2.2-.2h.9v-1.6s0-.2.2-.2.2 0 .2.2v1.6h.7s.2 0 .2.2-.2.2-.2.2h-.7v2.5c.2 0 .4-.1.6-.2 0 0 .3-.1.3-.1.1 0 .1.2.1.2 0 .1 0 .2-.3.3-.5.2-2 .7-2.1.7-.2 0-.2-.2-.2-.2 0-.1.1-.2.2-.2.6-.2.7-.2.9-.2v-2.7zm2.1 2.6c-.9 1-1.5 1.1-1.5 1.1-.1 0-.2-.1-.2-.2s0-.1.1-.2c.4-.2.8-.4 1.3-1 .2-.2.4-.5.5-.8h-.9s-.2 0-.2-.2.2-.2.2-.2h4.6s.2 0 .2.2-.2.2-.2.2h-3.2c-.2.3-.3.5-.4.7h2.7c.6 0 .8 0 .8.6s0 1-.2 1.6c-.1.5-.5.5-.8.5h-.7c-.2 0-.2-.2-.2-.2 0-.2.2-.2.2-.2s.6 0 .7 0c.2 0 .3 0 .4-.3 0-.3.1-1 .1-1.4s-.2-.3-.4-.3h-.3c-.1.4-.5 1.3-1.4 2.1-.2.2-.5.4-.7.4s-.2-.1-.2-.2 0-.1.1-.2c1.3-.8 1.6-1.7 1.7-2.1h-.9c-.2.4-.6 1.1-1.8 1.8-.2.1-.7.4-.8.4s-.2-.2-.2-.2 0-.1.1-.1c1.5-.7 2-1.5 2.2-1.9h-1zm3.6-2.6c0 .5-.2.6-.6.6h-2.6c-.5 0-.6-.1-.6-.6v-1.2c0-.5.2-.6.6-.6h2.6c.5 0 .6.2.6.6zm-.5-.8v-.4c0-.2 0-.3-.3-.3h-2.4c-.2 0-.3.1-.3.3v.4zm0 .3h-3v.4c0 .2 0 .3.3.3h2.4c.2 0 .3-.1.3-.3z" fill="#231815"/><path d="m227.4 324.9s-.2 0-.2-.2.2-.2.2-.2h1.6c.9 0 .9.2 1 1.1 0 .6.2 2 1.1 3.3.3.5.9 1.2 2.1 1.9 0 0 .1 0 .1.2s0 .3-.3.3-.1 0-.2 0c-.8-.5-1.7-1.3-2.3-2.4-.6-1-.7-1.9-.8-2.3-.2 1-.6 2.3-1.7 3.5-.7.7-1.6 1.3-1.8 1.3s-.2-.2-.2-.3.1-.2.2-.2c3-1.6 3.2-5 3.2-5.4s-.2-.5-.6-.5h-1.5z" fill="#231815"/><path d="m240.6 330.1c0 .7-.2 1-1 1h-4.2c-.7 0-1-.2-1-1v-4.4c0-.7.2-1 1-1h4.2c.7 0 1 .2 1 1zm-.5-4.4c0-.4-.1-.6-.5-.6h-4.2c-.4 0-.5.2-.5.6v4.4c0 .4.2.6.5.6h4.2c.4 0 .5-.2.5-.6z" fill="#231815"/><rect fill="none" height="42.9" rx="3.5" stroke="#b4b4b5" stroke-dasharray="2.2" stroke-miterlimit="10" stroke-width=".7" width="301.7" x=".3" y=".5"/><rect fill="#73adde" height="7.9" rx="1.9" width="13.7" x="20.4" y="7.1"/><rect fill="#d6da96" height="7.9" rx="1.9" width="13.7" x="20.4" y="18.9"/><rect fill="#73c2a7" height="7.9" rx="1.9" width="13.7" x="20.4" y="30.6"/><rect fill="#d2b3d4" height="7.9" rx="1.9" width="13.7" x="123.7" y="7.1"/><rect fill="#e3eef7" height="7.9" rx="1.9" stroke="#5c7885" stroke-dasharray="2" stroke-miterlimit="10" stroke-width=".7" width="13.7" x="123.7" y="18.9"/><rect fill="#b4b4b5" height="7.9" rx="1.9" width="13.7" x="123.7" y="30.6"/><path d="m43.7 11.9c0 .9.2 1 1.6 1s1.3 0 1.7 0h.4c.1 0 .2 0 .2.2s-.1.3-.4.3-1.7 0-1.9 0c-1.4 0-2.1-.1-2.1-1.4v-2.8h-1.7c0 .1-.3.1-.3-.1s.2-.2.2-.2h1.8v-1.9s0-.2.2-.2.2.1.2.2v1.8l3.3-.2h.3c.2 0 .4.1.4.3 0 .3-.8 1.3-1.2 1.7-.2.2-.5.5-.6.5s-.2 0-.2-.2 0-.1.2-.3c.9-.9 1.3-1.5 1.3-1.6s0 0-.1 0l-3.3.2z" fill="#231815"/><path d="m50.2 8.9s.1 0 .3.4c.1.2.6 1 .6 1.1s-.1.2-.2.2-.1 0-.4-.5c-.2-.4-.3-.6-.4-.8 0-.1 0-.1 0-.2s.1-.2.2-.2zm3.9 2.5c-1.1 1.7-2.9 2.3-3 2.3s-.2 0-.2-.2 0-.1.4-.3c1.7-.7 2.8-2 3.2-4 0-.4 0-.5.3-.5s.2 0 .2.2-.2 1.5-.9 2.5zm-2.2-2.9c.1 0 .2 0 .5.6 0 .2.4.8.4.9s-.1.2-.2.2-.2 0-.3-.3c-.2-.5-.3-.7-.4-.9 0-.1-.2-.3-.2-.4s.1-.2.2-.2z" fill="#231815"/><path d="m57.5 8.9c.2 0 1.3.5 1.5.5.5.2.6.2.6.4s-.1.2-.2.2-.1 0-.2 0c-.6-.3-.9-.4-1.6-.6-.1 0-.2 0-.2-.3s0-.2.2-.2zm.3 4.3c0-.2 0-.2.4-.3 1.2-.3 3.2-1.4 4.9-3.7.2-.2.2-.3.3-.3s.3 0 .3.2-1 1.6-2.4 2.7c-1.7 1.3-3.1 1.7-3.3 1.7s-.3-.2-.3-.3zm.4-6.2c.2 0 1.2.4 1.5.6.4.2.6.2.6.4s0 .2-.2.2-.1 0-.2 0c-.6-.3-.9-.4-1.6-.6 0 0-.2 0-.2-.2s0-.2.2-.2z" fill="#231815"/><path d="m66.3 11.1s-.2 0-.2-.2.1-.2.2-.2h3.6v-1.1c0-.2 0-.4-.5-.4h-3.3s-.2 0-.2-.2.1-.2.2-.2h3.4c.4 0 .8 0 .8.7v3c0 .7-.4.7-.8.7h-3.5s-.2 0-.2-.2.1-.2.2-.2h3.4c.5 0 .5-.2.5-.4v-1.2h-3.6z" fill="#231815"/><path d="m75 8c.6.3.7.4.7.5s-.1.3-.2.3-.1 0-.3-.1c-.6-.3-1.3-.6-1.8-.8-.1 0-.2 0-.2-.2s0-.2.3-.2.9.3 1.6.6zm4.3 1.2c0 .1-.7 1.3-1.9 2.3-1.9 1.6-3.9 2-4 2-.2 0-.3-.1-.3-.3s0-.2.6-.3c1.6-.4 3.5-1.5 4.9-3.4.3-.4.3-.4.4-.4s.3.1.3.2z" fill="#231815"/><path d="m83.1 13.5s0 .2-.2.2-.3-.1-.3-.2v-6.5s0-.2.2-.2.3.1.3.2v2.1c1.7.8 2.6 1.3 3.3 1.9.2.1.3.2.3.3s0 .3-.2.3-.1 0-.5-.3c-.9-.7-2.1-1.3-2.8-1.6v3.9z" fill="#231815"/><path d="m93.9 8.9c.4 0 .9 0 .9.6s-.5 1.7-1.4 2.5c-1 1-2.6 1.5-2.8 1.5s-.2-.1-.2-.2 0-.2.4-.3c2.8-.9 3.5-3.2 3.5-3.4s-.3-.2-.4-.2h-4.9s-.2 0-.2-.2.1-.2.2-.2h5zm.1-1.7s.2 0 .2.2-.2.2-.2.2h-4.4s-.2 0-.2-.2.2-.2.2-.2z" fill="#231815"/><path d="m97.4 8.9s.1 0 .3.4c.1.2.6 1 .6 1.1s-.1.2-.2.2-.1 0-.4-.5c-.2-.4-.3-.6-.4-.8 0-.1 0-.1 0-.2s.1-.2.2-.2zm3.9 2.5c-1.1 1.7-2.9 2.3-3 2.3s-.2 0-.2-.2 0-.1.4-.3c1.7-.7 2.8-2 3.2-4 0-.4 0-.5.3-.5s.2 0 .2.2-.2 1.5-.9 2.5zm-2.2-2.9c.1 0 .2 0 .5.6 0 .2.4.8.4.9s-.1.2-.2.2-.2 0-.3-.3c-.2-.5-.3-.7-.4-.9 0-.1-.2-.3-.2-.4s.1-.2.2-.2z" fill="#231815"/><path d="m109.7 7.4c.2 0 .7 0 .7.5s-.3 2.5-2.1 4.2c-1.1 1-2.2 1.5-2.4 1.5s-.2-.1-.2-.2 0-.2.4-.3c1-.4 2.5-1.5 3.3-3.2.4-.8.5-1.6.5-1.7 0-.2-.2-.2-.3-.2h-2.7c-.2 0-.2 0-.4.3-.6 1-1.3 1.6-1.6 1.9 0 0-.1.1-.2.1s-.2-.1-.2-.2 0-.1.4-.5c.7-.6.9-1 1.3-1.7.2-.3.4-.3.9-.3h2.7z" fill="#231815"/><path d="m42 19.5s-.2 0-.2-.2.1-.2.2-.2h3.9c.3 0 .7 0 .7.5s-.7 1.8-1.3 2.6c.4.3 1.4 1.2 2.3 2.3.1.1.2.2.2.3s-.1.3-.3.3-.2 0-.3-.2c-.9-1.2-1.7-1.8-2.2-2.2-1.5 1.8-3.3 2.6-3.4 2.6s-.2-.1-.2-.3 0-.1.3-.3c3.6-1.7 4.4-4.8 4.4-4.9s0-.2-.3-.2h-3.8z" fill="#231815"/><path d="m52.3 18.8c0-.1 0-.2.2-.2s.3 0 .3.2v1.5h2.8s.2 0 .2.2-.2.2-.2.2h-2.8v3.6c0 .8-.3 1-1.3 1s-.3 0-.3-.2.2-.2.3-.2c.7 0 .9 0 .9-.5v-3.6h-2.9s-.2 0-.2-.2.1-.2.2-.2h2.9v-1.5zm-3.2 5.4s0-.1.2-.3c.7-.8 1-1.4 1.4-2 0 0 0-.2.2-.2s.3.1.3.2-.3.8-1 1.7c-.6.8-.6.8-.7.8s-.3-.1-.3-.2zm5-2.4c.1 0 .1 0 .5.6.5.8 1.1 1.6 1.1 1.8s-.1.2-.3.2-.2-.1-.3-.3c-.4-.7-.8-1.3-1.2-1.9v-.1c0-.1.1-.2.2-.2zm2.1-2.8c0 .6-.5 1.1-1.1 1.1s-1.1-.5-1.1-1.1.5-1.1 1.1-1.1 1.1.5 1.1 1.1zm-1.8 0c0 .4.3.7.7.7s.7-.3.7-.7-.3-.7-.7-.7-.7.3-.7.7z" fill="#231815"/><path d="m59.3 19.7c.6.3.7.4.7.5s-.1.3-.2.3-.1 0-.3-.1c-.6-.3-1.3-.6-1.8-.8-.1 0-.2 0-.2-.2s0-.2.3-.2.9.3 1.6.6zm4.3 1.2c0 .1-.7 1.3-1.9 2.3-1.9 1.6-3.9 2-4 2-.2 0-.3-.1-.3-.3s0-.2.6-.3c1.6-.4 3.5-1.5 4.9-3.4.3-.4.3-.4.4-.4s.3.1.3.2z" fill="#231815"/><path d="m66.3 19s0-.2.2-.2.2.2.2.2v1.4h2.8v-1.7s0-.2.2-.2.2.2.2.2v1.7h1.3s.2 0 .2.2 0 .2-.2.2h-1.3v.7c0 .8 0 1.8-.8 2.7-.5.6-1.3 1-1.5 1s-.2 0-.2-.3 0-.2.3-.3c1.5-.7 1.7-2 1.7-3.1v-.8h-2.8v2s0 .3-.2.3-.2-.2-.2-.3v-2h-1.3s-.2 0-.2-.2 0-.2.2-.2h1.3v-1.4z" fill="#231815"/><path d="m79.2 21.7s.2 0 .2.2-.2.2-.2.2h-6.2s-.2 0-.2-.2.2-.2.2-.2z" fill="#231815"/><path d="m80.9 19.8s-.2 0-.2-.2.2-.2.2-.2h4.5c.1 0 .8 0 .8.7s-.1 2.3-2.1 4c-.8.7-1.9 1.2-2.1 1.2s-.2-.1-.2-.2 0-.2.2-.2c.9-.5 2.6-1.3 3.4-3.5.2-.5.3-1 .3-1.1 0-.3-.2-.3-.4-.3h-4.4zm5.5-1c.2.2.6.8.6 1s-.1.2-.3.2-.1 0-.4-.5c-.1-.2-.4-.5-.5-.8 0 0 0 0 0-.1s.1-.2.3-.2c.1 0 .1 0 .3.3zm1.2-.3c0 .1.4.6.4.7s-.1.2-.3.2-.1 0-.4-.5c0-.1-.4-.6-.5-.7 0 0 0 0 0-.1s.1-.2.3-.2c.1 0 .2 0 .6.6z" fill="#231815"/><path d="m94.9 21.7s.2 0 .2.2-.2.2-.2.2h-6.2s-.2 0-.2-.2.2-.2.2-.2z" fill="#231815"/><path d="m97.1 19.5s-.2 0-.2-.2.1-.2.2-.2h3.9c.3 0 .7 0 .7.5s-.7 1.8-1.3 2.6c.4.3 1.4 1.2 2.3 2.3.1.1.2.2.2.3s-.1.3-.3.3-.2 0-.3-.2c-.9-1.2-1.7-1.8-2.2-2.2-1.5 1.8-3.3 2.6-3.4 2.6s-.2-.1-.2-.3 0-.1.3-.3c3.6-1.7 4.4-4.8 4.4-4.9s0-.2-.3-.2h-3.8z" fill="#231815"/><path d="m44.4 30.6c-1 1.2-1.9 1.7-2.2 1.9-.2.1-.8.5-1 .5s-.2-.1-.2-.3 0-.1.2-.2c1.7-.7 2.7-1.8 3.1-2.3 0-.1.2-.2.4-.2s.3 0 .4.2c1.3 1.6 2.6 2.1 3.1 2.3.1 0 .2 0 .2.2s0 .3-.2.3-1.6-.6-3-2.1c-.1-.1-.3-.3-.4-.4 0 0 0 0-.1 0s0 0-.2.1zm.5 6h3s.2 0 .2.2-.2.2-.2.2h-6.7s-.2 0-.2-.2.1-.2.2-.2h1v-3.2s0-.2.2-.2.2.1.2.2v3.2h1.7v-4.3s0-.2.2-.2.2.1.2.2v1.6h2.4s.2 0 .2.2-.1.2-.2.2h-2.4v2.3z" fill="#231815"/><path d="m53.7 31.7c.6 0 .8.2.8.8v2.5c0 .6-.2.8-.8.8h-2.5c-.6 0-.8-.2-.8-.8v-2.5c0-.6.2-.8.8-.8h1v-1h-3.2s-.2 0-.2-.2.2-.2.2-.2h6.9s.2 0 .2.2-.2.2-.2.2h-3.3v1zm2.1 4.7c0 .6-.2.8-.8.8h-5.1c-.6 0-.8-.2-.8-.8v-4.5s0-.2.2-.2.2 0 .2.2v4.4c0 .3.1.4.4.4h5c.3 0 .4-.1.4-.4v-4.4s0-.2.2-.2.2 0 .2.2v4.5zm-3.6-2.9v-1.4h-1c-.3 0-.4.1-.4.4v1zm0 .4h-1.4v1.1c0 .3.1.4.4.4h1zm.4-.4h1.4v-1c0-.3-.1-.4-.4-.4h-1zm0 .4v1.5h1c.3 0 .4-.1.4-.4v-1.1z" fill="#231815"/><path d="m57.5 31c.1 0 .2.1.6.5.2.3.9 1.1.9 1.3s-.1.3-.3.3-.2 0-.3-.2c-.6-.9-.7-.9-1.1-1.4-.1-.1-.1-.2-.1-.3s.1-.2.3-.2zm.9 5.8c0-.1 0-.2.4-.3 2.2-.9 3.3-2.6 3.6-4.2 0-.2 0-.3.3-.3s.3.2.3.3-.3 1.9-1.6 3.2c-1.2 1.2-2.5 1.6-2.6 1.6-.2 0-.2-.1-.2-.2zm4.3-6.2c.2.2.7.8.7.9s-.1.2-.2.2-.1 0-.4-.4c-.2-.3-.4-.5-.5-.7 0 0 0-.1 0-.2s.1-.2.2-.2.1 0 .4.3zm1.1-.5s.6.6.6.8-.1.2-.2.2-.1 0-.5-.5c0-.1-.4-.5-.5-.6 0 0 0 0 0-.1 0 0 0-.2.2-.2.1 0 .1 0 .5.5z" fill="#231815"/><path d="m71.3 33.4s.2 0 .2.2-.2.2-.2.2h-6.2s-.2 0-.2-.2.2-.2.2-.2z" fill="#231815"/><path d="m75 31.5c.6.3.7.4.7.5s-.1.3-.2.3-.1 0-.3-.1c-.6-.3-1.3-.6-1.8-.8-.1 0-.2 0-.2-.2s0-.2.3-.2.9.3 1.6.6zm4.3 1.1c0 .1-.7 1.3-1.9 2.3-1.9 1.6-3.9 2-4 2-.2 0-.3-.1-.3-.3s0-.2.6-.3c1.6-.4 3.5-1.5 4.9-3.4.3-.4.3-.4.4-.4s.3.1.3.2z" fill="#231815"/><path d="m149.6 12s.2 0 .2.2-.2.2-.2.2h-1.6v1.3s0 .2-.2.2-.2-.1-.2-.2v-1.3h-1.6s-.2 0-.2-.2.2-.2.2-.2h1.6v-3.1c-.5 1.2-1.3 2.1-2.2 3-.2.2-.8.7-1 .7s-.2-.1-.2-.3 0-.1.2-.2c1.9-1.3 2.6-2.6 3-3.4h-2.9s-.2 0-.2-.2.2-.2.2-.2h3.2v-1.4s0-.2.2-.2.2.1.2.2v1.4h3.2s.2 0 .2.2-.1.2-.2.2h-3c1 2 2.4 3 3.1 3.4 0 0 .1 0 .1.2 0 .1-.1.3-.2.3-.2 0-1.1-.8-1.5-1.2-.7-.7-1.3-1.6-1.7-2.5v3.2h1.6z" fill="#231815"/><path d="m154 7.5v-.7s0-.2.2-.2.2.2.2.2v.7h1.5s.2 0 .2.2-.2.2-.2.2h-.4c-.2.8-.2.9-.4 1.8h1s.2 0 .2.2-.1.2-.2.2h-3.7s-.2 0-.2-.2.2-.2.2-.2h1c0-.6 0-.7-.4-1.8h-.4s-.2 0-.2-.2.2-.2.2-.2h1.5zm1 3.4c.6 0 .8.2.8.8v1.2c0 .6-.2.8-.8.8h-1.6c-.6 0-.8-.2-.8-.8v-1.2c0-.6.2-.8.8-.8zm.4.8c0-.3-.1-.4-.4-.4h-1.5c-.3 0-.4.1-.4.4v1.2c0 .3.1.4.4.4h1.5c.3 0 .4-.1.4-.4zm-2-3.9c.2.7.3 1.2.4 1.8h.9c0-.3.3-.9.4-1.8zm3.6 5.9s0 .2-.2.2-.2-.1-.2-.2v-6.2c0-.5.1-.6.6-.6h1.1.5s.2.2.2.4-.4 1.1-.6 1.4c0 .1-.3.6-.3.6v.1c.4.4.7.6.9 1.2.2.4.2.7.2.9 0 .8-.5 1.3-1 1.4-.1 0-.1 0-.6 0s-.3 0-.3-.2 0-.2.2-.2.4 0 .5 0c.8 0 .9-.7.9-1 0-.7-.5-1.3-.7-1.5-.4-.4-.4-.5-.5-.5 0 0 0-.1 0-.2s0-.2 0-.3c.1-.3.8-1.5.8-1.8s-.2-.2-.3-.2h-1c-.2 0-.3.1-.3.3v6.2z" fill="#231815"/><path d="m164.2 10.2c0 .3-.3.6-.6.6s-.6-.3-.6-.6.3-.6.6-.6.6.3.6.6z" fill="#231815"/><path d="m170.6 9.6c.7-.1 3.4-.5 4-.5s.2.1.2.2c0 .2-.2.2-.4.2-2.3.2-3.6 1.5-3.6 2.3s1.4 1.1 2.1 1.2c.4 0 .5 0 .5.2s-.2.2-.3.2c-.7 0-2.7-.2-2.7-1.6s1.6-2 2.2-2.2c-.6 0-1.9.3-3.4.6-.3 0-.9.2-1 .2-.2 0-.2-.1-.2-.2 0-.2.1-.2.3-.2s1.4-.2 1.5-.2c.9-.6 1.8-1.2 3.1-2.2-1.6.2-3.2.2-3.4.2s-.3 0-.3-.2 0-.1 0-.2h.5 2.1c.2 0 1.4-.1 1.4-.1.3 0 .3.2.3.3 0 0 0 .2-.2.2-.1 0-.3.2-.5.3l-2.4 1.7z" fill="#231815"/><path d="m178.7 11.6c-.4.9-.7 1.5-1.2 1.5s-1.5-1.2-1.5-2.6 1.4-3.4 3.5-3.4 3.2 1.3 3.2 3.1-2.3 3.3-2.5 3.3-.2-.1-.2-.2 0-.2.3-.2c1-.4 2-1.4 2-2.8s-.4-1.7-1-2.1-1.1-.5-1.5-.5c-.2 1.4-.4 2.8-1 4.1zm-2.2-1.1c0 1.1.5 2.1 1 2.1s.8-.9 1-1.5c.4-1.1.6-2.3.8-3.5-1.6.1-2.8 1.3-2.8 3z" fill="#231815"/><path d="m185.1 13.7s0 .2-.2.2-.2-.1-.2-.2v-4.4c-.2.3-.4.6-.6.8-.1.1-.2.1-.2.1-.1 0-.2-.1-.2-.3s0-.1 0-.2c.8-.9 1.4-1.9 1.7-3.1 0-.1 0-.2.2-.2s.2 0 .2.2-.3.9-.8 1.8v5.1zm.6-3.9s0 0 0 0c-.1 0-.2-.1-.2-.2s.1-.2.2-.2l.9-.2v-1.7s0-.2.2-.2.2.2.2.2v1.6l1.3-.3v-1.9s0-.2.2-.2.2 0 .2.2v1.8l.8-.2h.5c.6 0 .6.5.6.7s0 .9 0 1.4c0 1.1-.2 1.3-1 1.3s-.4 0-.4 0-.1-.1-.1-.2c0-.2.1-.2.2-.2s.4 0 .5 0c.3 0 .3-.1.3-.4 0-.5 0-1.3 0-1.7s0-.5-.3-.5-.2 0-.3 0l-.9.2v3s0 .2-.2.2-.2-.2-.2-.2v-2.9l-1.3.4v3.5c0 .4.3.4.5.4h2.5c.3 0 .4 0 .5-.8 0-.5 0-.5.2-.5s.2 0 .2.1v.1c0 .3 0 1-.3 1.2-.1.3-.4.3-.7.3s-2.7 0-2.8 0c-.5 0-.6-.3-.6-.8v-3.4l-.7.2z" fill="#231815"/><path d="m151.3 25c.1 0 .2 0 .2.2s-.1.2-.2.2h-3.5c-.8 0-1.8-.2-2.2-1.1-.5.6-1 1.1-1.1 1.1s-.2-.1-.2-.3 0 0 .3-.3c.3-.2.6-.5.8-.8v-1.8c0-.2 0-.3-.3-.3h-.6s-.2 0-.2-.2.2-.2.2-.2h.7c.5 0 .6.2.6.6v1.5c0 .3.2.8.7 1.1s1.3.3 1.3.3h3.6zm-6.7-6.6c.1 0 .8.5 1 .7.1.1.4.4.4.5s-.1.2-.2.2-.1 0-.4-.3c-.3-.2-.5-.5-.8-.7-.2-.1-.2-.1-.2-.2s0-.3.2-.3zm4 1.8c-.2-.1-.4-.3-.8-.5-.3-.2-.3-.2-.3-.3s.1-.2.2-.2.7.3 1.1.6c.7-.3 1.5-.6 1.5-.8s0 0-.2 0h-3.4c-.2 0-.2 0-.2-.2s.1-.2.2-.2h3.6c.2 0 .5 0 .5.3s0 .3-.6.6c-.4.2-.8.4-1.1.6 0 0 .1 0 .1.1h1.3c.5 0 .6.2.6.6v3.1c0 .5-.2.6-.6.6h-.6c-.2 0-.2-.2-.2-.2 0-.2.1-.2.2-.2s.4 0 .5 0 .3 0 .3-.3v-.9h-1.7v1.2s0 .2-.2.2-.2-.1-.2-.2v-1.2h-1.7v1.4c0 .1 0 .2-.2.2s-.2-.2-.2-.2v-3.5c0-.5.2-.6.6-.6h1.4zm.1 1.2v-.9h-1.4c-.2 0-.3 0-.3.3v.6zm0 .4h-1.7v.9h1.7zm.4-.4h1.7v-.6c0-.2 0-.3-.3-.3h-1.4zm1.7.4h-1.7v.9h1.7z" fill="#231815"/><path d="m152.5 21.9s0-.2.2-.2.2.2.2.2v2.9c.2 0 .4-.1.6-.1v-3.7h-.5c-.5 0-.6-.2-.6-.6v-1.1c0-.5.2-.6.6-.6h1.2c.5 0 .6.2.6.6v1.1c0 .5-.1.6-.6.6h-.3v1.3h.8s.2 0 .2.2-.2.2-.2.2h-.8v1.8c.3 0 .7-.2.9-.2h.1c.1 0 .2.1.2.2 0 .2 0 .2-.7.4-.9.3-2 .5-2.1.5s-.2-.1-.2-.2c0-.2 0-.2.4-.2v-3zm1.9-2.6c0-.2 0-.3-.3-.3h-1.1c-.2 0-.3.1-.3.3v1.1c0 .2 0 .3.3.3h1.1c.2 0 .3-.1.3-.3zm3.8-.3c.3 0 .6 0 .6.4s-.4.9-1.3 1.6c.5.4 1 .6 1.7.8.1 0 .2 0 .2.2s0 .3-.2.3-1-.3-2-1c-.9.7-1.9 1.1-2 1.1s-.2-.1-.2-.2 0-.2.2-.2c.6-.2 1.1-.4 1.7-.9-.4-.3-.7-.6-1-1.1-.1.1-.5.4-.6.4s-.2-.1-.2-.2 0-.1.1-.2c.5-.3 1-.9 1.3-1.5 0 0 0-.1.2-.1s.2 0 .2.2-.1.4-.2.5h1.6zm.7 5.6c0 .6-.2.8-.8.8h-1.7c-.6 0-.8-.2-.8-.8v-1.3c0-.6.2-.8.8-.8h1.7c.6 0 .8.2.8.8zm-.5-1.2c0-.3-.1-.4-.4-.4h-1.6c-.3 0-.4.1-.4.4v1.3c0 .3.1.4.4.4h1.6c.3 0 .4-.1.4-.4zm-2.1-4c-.1.1-.1.1-.2.3.4.5.8.9 1.1 1.1.7-.6 1.1-1.1 1.1-1.3s0-.1-.2-.1z" fill="#231815"/><path d="m145 37.1s0 .2-.2.2-.2-.2-.2-.2v-6.2c0-.5.2-.6.6-.6h1.6c.5 0 .6.2.6.6v1.2c0 .5-.2.6-.6.6h-1.8zm2-5.9v-.3c0-.2 0-.3-.3-.3h-1.4c-.2 0-.3 0-.3.3v.3zm-2 1.1h1.7c.2 0 .3 0 .3-.3v-.4h-2zm.7 2.9s-.2 0-.2-.2 0-.2.2-.2h1.9c0-.3 0-.5 0-.7h-1.7c-.1 0-.2 0-.2-.2s.1-.2.2-.2h.9s0-.2-.1-.4v-.2c0-.1.1-.2.2-.2s.2 0 .3.3c0 0 .1.4.1.4s0 0 0 0h1.4c0-.3.2-.5.2-.6 0 0 0-.2.2-.2s.2 0 .2.2 0 .3-.2.6h.9c.1 0 .2 0 .2.2s0 .2-.2.2h-1.7v.7h2.1s.2 0 .2.2-.1.2-.2.2h-1.8c.5.9 1 1.1 1.4 1.3 0 0 .2 0 .2.2s0 .2-.2.2-1.1-.5-1.6-1.5c-.1.3-.3.8-1.1 1.3-.4.2-.8.3-.9.3s-.2-.1-.2-.2.1-.2.2-.2c1.2-.4 1.4-1 1.6-1.3h-1.8zm3.3-2.5c-.5 0-.6-.2-.6-.6v-1.2c0-.5.1-.6.6-.6h1.6c.5 0 .6.2.6.6v5.7c0 .5-.2.6-.6.6s-.6 0-.6 0-.2-.1-.2-.2c0-.2.2-.2.2-.2s.4 0 .5 0c.2 0 .3-.1.3-.3v-3.8zm1.8-1.5v-.3c0-.2 0-.3-.3-.3h-1.4c-.2 0-.3.1-.3.3v.3zm0 1.1v-.7h-2v.4c0 .2 0 .3.3.3z" fill="#231815"/><path d="m153.5 37.1s0 .2-.2.2-.2-.1-.2-.2v-4.3c-.3.5-.6.8-.6.8s0 0-.2 0c-.1 0-.2-.1-.2-.3s0-.1.1-.2c1.1-1.3 1.5-2.5 1.7-3.1 0 0 0-.2.2-.2s.2 0 .2.2-.3.9-.8 1.9v5zm3.4 0s0 .2-.2.2-.2-.1-.2-.2v-2.8c-.6 0-2 0-2.3 0s-.2 0-.2-.2.2-.2.2-.2h1.5c.3-.3.5-.5.6-.6-.5-.5-.8-.7-1.5-1.2-.2-.1-.2-.2-.2-.3s0-.2.2-.2.5.3.6.4c.4-.4.7-.9.9-1.3-.3 0-.7 0-1.3 0s-.5 0-.5-.2.1-.2.2-.2c1.2 0 2.4 0 3.5-.3 0 0 .4-.1.4-.1.1 0 .2.1.2.2s0 .1-.1.2c-.1 0-1 .3-2 .4-.3.5-.7 1.1-1.1 1.6.3.3.5.5.9.8.6-.7 1-1.3 1.2-1.7 0 0 0-.1.2-.1.1 0 .2.1.2.2 0 .2-1.2 1.8-1.9 2.5 1 0 2 0 2.4-.1-.1-.2-.3-.4-.5-.8 0 0 0-.1 0-.2s.1-.2.2-.2.2 0 .4.4c.1.2.7 1.1.7 1.2s-.1.2-.2.2-.1 0-.2 0c0 0-.1-.3-.2-.3-.7 0-1.7.1-1.9.1zm-1.4-2c0 .3-1 1.9-1.3 1.9s-.2-.1-.2-.2 0-.1.1-.2c.6-.6.9-1.4 1-1.5 0-.1 0-.2.2-.2s.2 0 .2.2zm2.7 0c.3.7.7 1.2 1 1.5v.2c0 .1-.1.2-.2.2-.3 0-1.3-1.6-1.3-1.9s.1-.2.2-.2.2 0 .2.2z" fill="#231815"/><path d="m167 32.4s.2 0 .2.2-.2.2-.2.2h-2.9c-.5.3-.9.6-1.4.9h2.8c.6 0 .8.2.8.8v1.8c0 .6-.2.8-.8.8h-3.2c-.6 0-.8-.2-.8-.8v-1.8s0-.1 0-.2c-.4.2-1.1.5-1.3.5s-.2-.1-.2-.2 0-.2.2-.2c1.1-.4 2.2-.9 3.2-1.6h-3.2s-.2 0-.2-.2.2-.2.2-.2h2.6v-1.2h-2c-.2 0-.2 0-.2-.2s0-.2.2-.2h2v-.7s0-.2.2-.2.2 0 .2.2v.7h1.7c.1 0 .2 0 .2.2s-.1.2-.2.2h-1.7v1.2h.7c.9-.7 1.7-1.5 2.3-2.2 0-.1.1-.2.2-.2s.2 0 .2.2 0 .1 0 .2c-.6.7-1.3 1.4-2 2zm-1.1 2.8v-.7c0-.3-.1-.4-.4-.4h-3.2c-.3 0-.4.1-.4.4v.7zm-4 .4v.8c0 .3.1.4.4.4h3.2c.3 0 .4-.1.4-.4v-.8z" fill="#231815"/><path d="m173.4 34.9h1.5s.2 0 .2.2-.2.2-.2.2h-1.5v1.2c0 .5-.1.7-.6.8 0 0-.2 0-1.2 0s-.3 0-.3-.3.1-.2.2-.2h1.2c.2 0 .3-.2.3-.4v-1.1h-4.9s-.2 0-.2-.2.1-.2.2-.2h4.9v-.6h-3.6c-.5 0-.6-.2-.6-.6v-1.4c0-.5.1-.6.6-.6h1.9v-.6h-3.1s-.2 0-.2-.2.1-.2.2-.2h3.1v-.4s0-.2.2-.2.2.1.2.2v.4h3.1c.1 0 .2 0 .2.2s0 .2-.2.2h-3.1v.6h2c.5 0 .6.2.6.6v1.4c0 .5-.2.6-.6.6h-.2v.6zm-2.1-2.2v-.8h-1.8c-.2 0-.3.1-.3.3v.5zm0 .4h-2.1v.5c0 .2 0 .3.3.3h1.8zm-1.8 2.3s0 0 .4.3.6.6.7.7.2.2.2.2c0 .1-.1.2-.2.2s-.1 0-.2-.2c-.4-.4-.5-.5-.9-.9-.1-.1-.2-.1-.2-.2s0-.1 0-.1zm2.2-2.7h2.2v-.5c0-.2 0-.3-.3-.3h-1.9zm0 .4v.8h1.9c.2 0 .3-.1.3-.3v-.5z" fill="#231815"/><path d="m179.7 34.8v2.2c0 .1 0 .2-.2.2s-.2-.1-.2-.2v-2.2h-2.2c0 .7-.2 1.3-.6 2-.1.2-.3.5-.4.5s-.2-.1-.2-.2 0 0 0-.2c.5-.7.8-1.5.8-2.6v-3c0-.6.2-.8.8-.8h4.3c.6 0 .8.2.8.8v5.3c0 .4 0 .8-.7.8h-.7s-.2 0-.2-.2.1-.2.2-.2.5 0 .6 0c.3 0 .4 0 .4-.4v-1.6h-2.4zm-.5-2.5v-1.6h-1.8c-.3 0-.4.1-.4.4v1.1h2.2zm0 .4h-2.2v1.7h2.2zm.5-.4h2.4v-1.1c0-.3-.1-.4-.4-.4h-2v1.6zm2.4.4h-2.4v1.7h2.4z" fill="#231815"/><path d="m11.4 20.7c0 .4.3.4.5.4s.4 0 .5 0c.2 0 .2-.6.2-1.2 0-.2 0-.4.2-.4s.2.1.2.2c0 .2 0 .9-.1 1.3s-.4.4-.8.4c-.5 0-.6 0-.7 0-.4 0-.4-.4-.4-.8v-5.2c0-.3-.1-.4-.4-.4h-2.5c-.3 0-.4.1-.4.4v2.2c0 .4 0 1.6-.5 2.6-.3.8-.9 1.3-1 1.3s-.3-.1-.3-.2 0-.1.1-.2c.4-.4.8-.8 1.1-1.9.1-.5.2-1.2.2-1.6v-2.2c0-.6.2-.8.8-.8h2.6c.6 0 .8.2.8.8v5.2zm-2.3-3.7c.7.9 1.2 1.7 1.2 1.8s-.2.3-.3.3-.2 0-.2-.2c-.4-.8-.8-1.3-1.4-2 0 0 0-.1 0-.2s.2-.2.2-.2c.1 0 .4.4.6.5z" fill="#231815"/><path d="m7.1 31s0 .2-.2.2-.2-.1-.2-.2v-4.3c-.1.3-.3.5-.4.8 0 0 0 .1-.2.1-.1 0-.2-.1-.2-.3s0-.1 0-.2c.3-.4.7-1.1 1.1-2.2 0-.3.2-.6.2-.9 0 0 0-.2.2-.2s.2 0 .2.2-.2.9-.5 1.7zm.8-6.4s-.2 0-.2-.2.2-.2.2-.2h2.4s.2 0 .2.2-.2.2-.2.2h-1.3c0 .6-.1 1.1-.2 1.3h.8c.3 0 .7 0 .7.6s0 1.5-.8 2.9c-.6 1-1.4 1.7-1.6 1.7s-.2-.1-.2-.3 0-.1 0-.2c.5-.4 1.1-1.1 1.6-2.1-.5-.4-.7-.7-1.2-1-.1.2-.5.8-.7.8s-.2-.1-.2-.2 0 0 0-.1c.7-.9 1.1-1.7 1.2-3.4h-.7zm.9 1.8c0 .3-.2.6-.4.9.6.4.8.6 1.2.9.3-.8.3-1.5.3-1.6 0-.3-.2-.3-.4-.3h-.7zm2.5 2.8s0 .2-.2.2-.2-.1-.2-.2v-4.6s0-.2.2-.2.2.1.2.2zm1.5 1.2c0 .4 0 .6-.5.6 0 0-.1 0-.8 0s-.3 0-.3-.2.2-.2.2-.2h.8c.2 0 .2-.1.2-.3v-6.3s0-.2.2-.2.2.1.2.2z" fill="#231815"/><circle cx="230.2" cy="22" fill="#afccd9" r="11.2"/><circle cx="230.2" cy="22" fill="none" r="7.3"/><path d="m224.9 30.7-.4-.2.5-3.1.4.2v.8c-.1 0 1 .7 1 .7l.6-.5.4.2-2.6 1.8zm.3-1.9-.2 1c0 .1 0 .4-.1.5.1 0 .3-.3.4-.3l.8-.6z" fill="#00478d"/><path d="m222.4 28.7-.9-1.2.3-.2.7.9.7-.6-.6-.8.3-.2.6.8 1-.8.3.3-2.3 1.7z" fill="#00478d"/><path d="m220.9 25.5.3.8h-.3c0 .1-.7-1.9-.7-1.9h.3c0-.1.3.7.3.7l2.4-.8v.4c.1 0-2.2.8-2.2.8z" fill="#00478d"/><path d="m220 22.9v-1.6s.3 0 .3 0v1.2s.9 0 .9 0v-1.1s.3 0 .3 0v1.1s1 0 1 0v-1.2s.3 0 .3 0v1.6s-2.9 0-2.9 0z" fill="#00478d"/><path d="m220.2 19.6.2-.7c.2-.7.5-1 1.1-.8.4.1.5.4.4.8.1-.2.3-.2.5-.3h1.1c0-.1-.1.3-.1.3h-1c-.3.1-.4.2-.6.6 0 .1 1.2.5 1.2.5v.4c-.1 0-2.9-.9-2.9-.9zm1.4-.2c.2-.5.1-.8-.2-.9s-.5.1-.7.6v.2s.8.3.8.3v-.2z" fill="#00478d"/><path d="m222.7 15 .5-.4c.5-.4 1-.7 1.4-.2.5.5.2 1-.3 1.4l-.2.2.8.8-.3.3zm1.4.6c.4-.3.5-.6.2-.9s-.6-.2-.9.2h-.1c0 .1.7.9.7.9h.2z" fill="#00478d"/><path d="m226 12.7.4-.2 2.3 2.2-.4.2-.6-.6-1.3.5v.8s-.4.2-.4.2zm1.4 1.4-.7-.7s-.3-.3-.4-.4v.6 1s1.1-.4 1.1-.4z" fill="#00478d"/><path d="m229.1 11.8h.7c.7 0 1.1.2 1.1.7 0 .4-.3.6-.6.7.2 0 .3.2.4.4l.5 1h-.5s-.4-.9-.4-.9c-.1-.3-.2-.4-.7-.4h-.1s0 1.3 0 1.3h-.4s0-2.9 0-2.9zm.6 1.3c.5 0 .8-.1.8-.5s-.3-.4-.8-.4h-.2s0 .9 0 .9z" fill="#00478d"/><path d="m233.1 12.6-.9-.3v-.3c.1 0 2.2.7 2.2.7v.3c-.1 0-.9-.3-.9-.3l-.8 2.4h-.4c0-.1.8-2.5.8-2.5z" fill="#00478d"/><path d="m235.3 15.2v-2c.1 0 .5.3.5.3v.7c0 .2-.1.7-.2.9.2 0 .6-.2.8-.3l.7-.2.4.3-1.9.6-.8 1-.3-.3.8-.9z" fill="#00478d"/><path d="m239.3 17.4.3.7c.3.6.2 1.1-.3 1.3-.4.1-.7 0-.9-.4 0 .2 0 .4-.2.5l-.8.8-.2-.4.7-.7c.2-.2.3-.4.1-.7 0-.1-1.2.4-1.2.4l-.2-.4zm-.9 1.1c.2.5.4.7.7.6s.3-.4.1-.9v-.2s-.9.3-.9.3v.2z" fill="#00478d"/><path d="m238.9 20.8c.9 0 1.5.6 1.4 1.5 0 .8-.6 1.3-1.5 1.3s-1.5-.6-1.5-1.4.6-1.4 1.5-1.3zm0 2.3c.7 0 1.2-.3 1.2-.9s-.4-1-1.1-1-1.2.3-1.2.9.4 1 1.1 1z" fill="#00478d"/><path d="m238.6 24.6c.8.4 1.1 1.2.7 1.9s-1.1 1-1.9.6-1.1-1.2-.7-1.9c.4-.8 1.1-1 2-.6zm-1 2.1c.6.3 1.2.2 1.5-.3s0-1.1-.6-1.4-1.2-.2-1.5.3 0 1.1.6 1.4z" fill="#00478d"/><path d="m237.4 29.3-.6.4-1.7-1.1c-.1 0-.4-.3-.5-.4 0 .2.2.5.2.6l.5 1.9-.5.4-1.7-2.3.3-.2 1.1 1.5c0 .1.3.4.4.6 0-.2-.1-.4-.2-.6l-.6-2.1.3-.2 1.8 1.2c.1 0 .4.3.5.4-.1-.2-.3-.4-.4-.6l-1.1-1.5.3-.2 1.7 2.3z" fill="#00478d"/><path d="m232.8 19.4c0-.5-.4-.9-.8-.9 0 0 0 0 0-.1 0-.6-.5-1-1-1s-.2 0-.3 0c-.2-.3-.5-.5-.9-.5s-.7.2-.9.5c-.1 0-.3-.2-.5-.2-.5 0-.9.4-.9.9s0 .3 0 .4c0 0 0 0-.1 0-.5 0-.9.4-.9.9s.1.5.4.7v.3h5.6v-.3c.2-.2.3-.4.3-.6z" fill="none" stroke="#00478d" stroke-miterlimit="10" stroke-width=".4"/><path d="m234.5 23.5-1.5 1.2c-.2.2-.5 0-.5-.2v-3.5c0-.2.1-.3.3-.3h1.5c.2 0 .3.1.3.3v2.3s0 .2-.1.2z" fill="none" stroke="#00478d" stroke-miterlimit="10"/><path d="m226.6 20v5.6c0 .9.7 1.5 1.5 1.5h3.1c.9 0 1.5-.7 1.5-1.5v-5.6h-6.2zm2.7 3.6c0 .3-.2.5-.5.5s-.5-.2-.5-.5.2-.5.5-.5.5.2.5.5zm-1.8-1.9c0-.4.3-.7.7-.7s.7.3.7.7-.3.7-.7.7-.7-.3-.7-.7zm.8 3.7c-.2 0-.4-.2-.4-.4s.2-.4.4-.4.4.2.4.4-.2.4-.4.4zm.8 1.1c-.2 0-.3-.2-.3-.3s.2-.3.3-.3.3.2.3.3-.2.3-.3.3z" fill="#00478d"/><path d="m248.9 19.5c.2.3.2.3.2.3s0 .1-.1.1-.2 0-.4-.3c-1-1.4-1.1-2.6-1.1-3s.1-1.7 1.1-3c.2-.3.3-.3.4-.3s.1 0 .1.1 0 0-.2.3c0 0-.9 1.3-.9 2.9s.9 2.9.9 2.9z" fill="#231815"/><path d="m251.9 13.4c.3 0 .9 0 1.5.2 1.3.5 1.5 1.9 1.5 2.6s0 1.6-1 2.4c-.5.4-1.1.5-1.9.5h-1.4c-.6 0-.6-.5-.6-.7v-4.2c0-.2 0-.7.6-.7h1.4zm-1.6 4.9c0 .2 0 .3.3.3h1.3c.9 0 1.3-.2 1.7-.4.8-.6.9-1.7.9-2 0-2.4-1.9-2.4-2.5-2.4h-1.3c-.2 0-.3 0-.3.3v4.2z" fill="#231815"/><path d="m258.8 18.3v.4.2c0 .1-.1.2-.2.2-.3 0-.3-.5-.3-.8-.5.8-1.3.8-1.6.8-.9 0-1.3-.6-1.3-1.2s.3-1.1 1.3-1.3c.2 0 1-.1 1.2-.2.2 0 .4 0 .4-.5 0-.6-.6-.8-1.2-.8s-.7 0-.9.2c-.1 0-.2 0-.2 0-.1 0-.2 0-.2-.2s.1-.2.3-.3c.2 0 .6-.2 1.1-.2s1.1.2 1.4.6c.2.3.3.6.3 1v2zm-.4-1.7c-.2.1-.3.1-1.2.3-.7.1-1.3.2-1.3 1s.2.8.9.8 1.3-.6 1.6-1.1z" fill="#231815"/><path d="m261 18.7-1.5-3.7s0-.1 0-.2.1-.2.2-.2.2 0 .2.2l1.3 3.3 1.3-3.3s0-.2.2-.2.2 0 .2.2 0 0 0 .2l-2.3 5.7c0 .1 0 .2-.2.2s-.2 0-.2-.2 0 0 0-.1l.7-1.9z" fill="#231815"/><path d="m267.1 18.6c.2 0 .2.1.2.2s0 .2-.2.2h-3c-.3 0-.6 0-.6-.4s0-.3.5-.7c.3-.3 1.3-1.1 2-1.8.4-.5.6-.9.6-1.3 0-.6-.5-1.1-1.1-1.1s-.9.2-1.2.5c-.1.2-.2.2-.3.2s-.2-.1-.2-.2c0-.2.7-.9 1.7-.9s1.6.5 1.6 1.6-.3 1-.6 1.5c-.6.7-1.9 1.8-2.5 2.3h3.2z" fill="#231815"/><path d="m268.1 13.7c-.2-.2-.2-.3-.2-.3s0-.1.1-.1.2 0 .4.3c1 1.4 1.1 2.6 1.1 3s-.1 1.7-1.1 3c-.2.3-.3.3-.4.3s-.1 0-.1-.1 0 0 .2-.3c0 0 .9-1.3.9-2.9s-.9-2.9-.9-2.9z" fill="#231815"/><path d="m250.8 23.2h.2s.2.1.2.2 0 .1-.1.2c-.2.1-.7.5-1.3.8.3.4 1.1 1.3 1.1 2.4s-.2 1.2-1.1 1.2-.7 0-.7 0c-.2 0-.2-.2-.2-.2 0-.2.2-.2.3-.2s.6 0 .7 0c.4 0 .6-.2.6-.7s0-.6-.1-.7c-1.4 1.1-2.8 1.6-2.8 1.6-.1 0-.2-.1-.2-.3s0-.1.4-.3c.9-.3 1.7-.7 2.5-1.4 0-.1-.1-.2-.2-.5-1.1.8-2.3 1.1-2.4 1.1s-.2-.2-.2-.2c0-.1 0-.1.4-.3.3 0 1.2-.4 2-1-.1-.1-.2-.2-.3-.3-.8.4-1.9.6-2 .6s-.2-.1-.2-.2.1-.2.2-.2c1.2-.2 2-.6 2.4-.8 0 0 0 0-.2-.3 0 0-.2-.3-.2-.4s0-.1 0-.1c-1.3.3-2 .4-2.1.4-.2 0-.2-.1-.2-.2s0-.2.2-.2c.7 0 1.7-.3 2.4-.5.1 0 .7-.3.8-.3s.2.1.2.2 0 .1-.1.2c0 0-.7.3-1 .3.1 0 .1 0 .3.3 0 0 .2.3.1.4.1 0 .4-.2.7-.5zm-2.2 5.4c0 .1-.3.8-.6 1.2-.1.2-.4.6-.6.6s-.3-.1-.3-.3 0-.1.2-.3c.3-.3.6-.8.8-1.3 0 0 0-.2.2-.2s.3.1.3.2zm.1-5c.1.2.2.3.2.4s-.1.2-.3.2-.1 0-.3-.3c0 0-.2-.4-.2-.5s.1-.2.2-.2c.2 0 .2 0 .3.3zm1.2 6.2c0 .3.2.3.5.3h1.9c.3 0 .4 0 .5-.7 0-.2 0-.3.2-.3s.3 0 .3.2-.1.9-.4 1.1c-.2.1-.5.1-.7.1h-1.6c-.8 0-.9 0-1-.1-.2-.1-.3-.4-.3-.6v-1c0-.1 0-.3.3-.3s.3 0 .3.3v.9zm1.5-.7c-.4-.3-.6-.4-.9-.5 0 0-.1 0-.1-.2s0-.2.3-.2.8.4 1.1.6.3.2.3.3-.1.3-.3.3 0 0-.3-.2zm.2-6c0-.5.2-.8.7-.8h1.9c.6 0 .8.2.8.8v1.4c0 .6-.2.8-.7.8h-1c.2.5.5.9.7 1.2.4-.3.8-.7 1-.9 0 0 .1-.1.2-.1s.2.1.2.2 0 .1-.1.2c-.3.3-.8.7-1.1.9.5.5.7.6 1.2.9 0 0 .1 0 .1.2s-.1.3-.3.3-.6-.3-.8-.5c-.5-.4-1.2-1.1-1.6-2.3h-.7v1.9c.4 0 .4 0 .9-.2h.2c.1 0 .2.1.2.2 0 .2-.1.2-.2.2-.8.2-2 .4-2 .4-.2 0-.2-.2-.2-.2s0-.1.1-.2h.5v-4.2zm.5.5h2.5v-.5c0-.2-.1-.3-.3-.3h-1.8c-.2 0-.3.1-.3.3v.5zm2.5.4h-2.5v.9h2.1c.2 0 .3-.1.3-.3v-.5zm-.1 4.6c.4.4 1 1.3 1 1.5s-.2.2-.3.2-.2 0-.3-.3c-.3-.5-.5-.8-.9-1.3-.1-.2-.2-.2-.2-.3s0-.2.3-.2.1 0 .4.3z" fill="#231815"/><path d="m257.9 23v-.6s0-.3.2-.3.2.2.2.3v.6h1.4s.3 0 .3.2-.2.2-.3.2h-.4c0 .4-.3 1.3-.4 1.7h.9c.2 0 .3 0 .3.2s-.1.2-.3.2h-1.6v1.1h1.5c.2 0 .2 0 .2.2s-.1.2-.2.2h-1.5c.2.4.6.8 1 1.1s.4.4.4.5-.1.3-.2.3-.2 0-.4-.3c-.3-.4-.6-.7-.8-1v2.9c0 .1 0 .3-.2.3s-.2-.2-.2-.3v-2.6c-.2.4-.7 1-.9 1.2s-.6.7-.8.7-.2-.2-.2-.3 0-.1.1-.2c.2-.1 1.2-1.1 1.8-2.2h-1.5c-.2 0-.3 0-.3-.2s.2-.2.3-.2h1.5v-1.1h-1.6c-.2 0-.3 0-.3-.2s.2-.2.3-.2h1c-.1-.7-.2-1-.4-1.7h-.4c-.1 0-.3 0-.3-.2s.2-.2.3-.2h1.4zm-.5.5c.1.5.3 1.1.4 1.7h.8c0-.2.3-1.1.4-1.7zm5.6 6.3c0 .2 0 .4.6.3.2 0 .3 0 .4-.9 0-.3 0-.5.2-.5s.3.2.3.3c0 .5-.1 1.2-.3 1.4-.1.1-.3.2-1.1.2-.5 0-.6-.3-.6-.7v-2.3h-.7c0 .4-.2 1.7-1.3 2.6-.3.3-.8.5-.9.5s-.2-.1-.2-.3 0-.2.2-.2c1.4-.6 1.7-1.7 1.8-2.6-.5 0-.8 0-.8-.8v-3.7c0-.6.2-.8.8-.8h2.1c.6 0 .7.2.7.8v3.7c0 .6-.2.8-.7.8h-.4v2.2zm-2-5.8h2.6v-.8c0-.2 0-.3-.3-.3h-1.9c-.2 0-.3.1-.3.3v.8zm2.6.4h-2.6v1.1h2.6zm-2.6 1.5v.9c0 .2 0 .3.3.3h1.9c.2 0 .3-.1.3-.3v-.9h-2.6z" fill="#231815"/><path d="m269.1 22.9c-.7.8-1.4 1.4-2.6 2.2-.2.1-1 .6-1.2.6s-.2-.2-.2-.3.1-.2.2-.3c.8-.3 2.2-1 3.5-2.6.2-.3.3-.3.5-.3s.3 0 .5.3c.3.4 1.5 1.8 3.5 2.7.1 0 .3.1.3.3s-.1.3-.3.3-2.5-1.1-3.8-2.8c-.1-.2-.1-.2-.2-.2s0 0-.2.2zm-.6 4.2c-.5 1.1-1.2 2.3-1.4 2.6 1 0 3.6-.2 4.8-.3-.6-.7-1.1-1.1-1.3-1.4 0 0-.1-.1-.1-.2s.1-.2.3-.2c.3 0 2.5 2.4 2.5 2.7s-.2.3-.3.3-.1 0-.2-.1c0 0-.4-.5-.5-.6-2.1.2-5.4.4-6.7.4s-.3 0-.3-.3.1-.2.4-.2.2 0 .9 0c.3-.5 1.1-1.8 1.4-2.6h-2.5c-.1 0-.3 0-.3-.2s.2-.2.3-.2h7.7s.3 0 .3.2-.2.2-.3.2h-4.6zm3-2.3s.3 0 .3.2-.2.2-.3.2h-4.4s-.3 0-.3-.2.1-.2.3-.2z" fill="#231815"/><path d="m278 22.9c-.7.8-1.4 1.4-2.6 2.2-.2.1-1 .6-1.2.6s-.2-.2-.2-.3.1-.2.2-.3c.8-.3 2.2-1 3.5-2.6.2-.3.3-.3.5-.3s.3 0 .5.3c.3.4 1.5 1.8 3.5 2.7.1 0 .3.1.3.3s-.1.3-.3.3-2.5-1.1-3.8-2.8c-.1-.2-.1-.2-.2-.2s0 0-.2.2zm-.6 4.2c-.5 1.1-1.2 2.3-1.4 2.6 1 0 3.6-.2 4.8-.3-.6-.7-1.1-1.1-1.3-1.4 0 0-.1-.1-.1-.2s.1-.2.3-.2c.3 0 2.5 2.4 2.5 2.7s-.2.3-.3.3-.1 0-.2-.1c0 0-.4-.5-.5-.6-2.1.2-5.4.4-6.7.4s-.3 0-.3-.3.1-.2.4-.2.2 0 .9 0c.3-.5 1.1-1.8 1.4-2.6h-2.5c-.1 0-.3 0-.3-.2s.2-.2.3-.2h7.7s.3 0 .3.2-.2.2-.3.2h-4.6zm3-2.3s.3 0 .3.2-.2.2-.3.2h-4.4s-.3 0-.3-.2.1-.2.3-.2z" fill="#231815"/><path d="m284.2 24.8h-1s-.3 0-.3-.2.2-.2.3-.2h1v-1.8s0-.3.2-.3.3 0 .3.3v1.8h.8s.3 0 .3.2-.2.2-.3.2h-.8v3c.3 0 .5-.2.7-.2 0 0 .3-.1.4-.1.2 0 .2.2.2.2 0 .1 0 .2-.4.3-.6.3-2.3.8-2.5.8s-.2-.3-.2-.3c0-.2.1-.2.2-.2.7-.2.8-.2 1.1-.3v-3.1zm2.5 3c-1 1.2-1.7 1.3-1.7 1.3-.2 0-.2-.1-.2-.2s0-.1.1-.2c.5-.2.9-.5 1.5-1.2.2-.3.4-.6.6-.9h-1.1s-.3 0-.3-.2.2-.2.3-.2h5.4s.3 0 .3.2-.2.2-.3.2h-3.7c-.2.4-.4.6-.5.8h3.2c.6 0 .9 0 .9.7s0 1.2-.2 1.8c-.1.6-.6.6-1 .6h-.8c-.2 0-.2-.2-.2-.2 0-.2.2-.2.3-.2s.7 0 .8 0c.3 0 .4-.1.5-.3 0-.3.2-1.2.2-1.6s-.2-.4-.5-.4h-.3c-.2.5-.5 1.5-1.6 2.4-.2.2-.6.5-.8.5s-.2-.1-.2-.3 0-.1.1-.2c1.5-.9 1.9-2 2-2.4h-1c-.2.4-.7 1.3-2 2.1-.2.1-.8.5-.9.5s-.2-.2-.2-.2c0-.1 0-.1.1-.2 1.8-.8 2.3-1.8 2.6-2.2h-1.1zm4.1-3.1c0 .6-.2.7-.8.7h-3c-.6 0-.8-.2-.8-.7v-1.4c0-.6.2-.8.8-.8h3c.6 0 .8.2.8.8zm-.5-.9v-.5c0-.2 0-.3-.3-.3h-2.8c-.2 0-.3.1-.3.3v.5h3.5zm0 .4h-3.5v.5c0 .2 0 .3.3.3h2.8c.2 0 .3-.1.3-.3v-.5z" fill="#231815"/><circle cx="184.8" cy="106.5" fill="#afccd9" r="9.3"/><circle cx="184.8" cy="106.5" fill="none" r="6.1"/><path d="m180.5 113.8-.3-.2.4-2.6.3.2v.6s.9.6.9.6l.5-.4.3.2-2.1 1.5zm.3-1.6v.8c-.2.1-.2.3-.2.5s.3-.2.4-.3l.7-.5-.8-.5z" fill="#00478d"/><path d="m178.5 112.2-.8-1 .2-.2.6.7.6-.5-.6-.7.2-.2.6.7.8-.7.2.3-1.9 1.5z" fill="#00478d"/><path d="m177.1 109.5.3.7h-.3c0 .1-.6-1.6-.6-1.6h.3c0-.1.2.6.2.6l2-.7v.3c.1 0-1.8.7-1.8.7z" fill="#00478d"/><path d="m176.3 107.4v-1.3s.3 0 .3 0v1s.7 0 .7 0v-.9s.3 0 .3 0v.9s.8 0 .8 0v-1s.3 0 .3 0v1.4s-2.4 0-2.4 0z" fill="#00478d"/><path d="m176.5 104.6.2-.6c.2-.5.4-.8.9-.7.3.1.4.4.4.7.1-.1.2-.2.4-.2h1c0-.1-.1.3-.1.3h-.8c-.3.1-.4.2-.5.5s1 .4 1 .4v.3c-.1 0-2.4-.7-2.4-.7zm1.1-.2c.1-.4.1-.7-.2-.7s-.4.1-.5.5v.2s.7.2.7.2z" fill="#00478d"/><path d="m178.5 100.7.4-.4c.4-.4.8-.6 1.2-.1.4.4.1.9-.2 1.2h-.1c0 .1.7.8.7.8l-.3.2-1.6-1.8zm1.2.5c.3-.3.4-.5.2-.8-.2-.2-.5-.2-.8.1h-.1c0 .1.6.7.6.7z" fill="#00478d"/><path d="m181.2 98.7h.3c0-.1 1.9 1.7 1.9 1.7l-.4.2-.5-.5-1.1.5v.7s-.3.1-.3.1v-2.6zm1.2 1.2-.6-.6s-.2-.2-.3-.3v.5.8s.9-.4.9-.4z" fill="#00478d"/><path d="m183.9 98h.6c.6 0 .9.1.9.6 0 .3-.2.5-.5.6.2 0 .3.2.3.3l.4.9h-.4s-.4-.8-.4-.8c-.1-.2-.2-.3-.5-.3h-.1s0 1.1 0 1.1h-.3s0-2.4 0-2.4zm.5 1c.4 0 .7-.1.7-.4s-.2-.4-.7-.4h-.2s0 .7 0 .7h.2z" fill="#00478d"/><path d="m187.2 98.6-.7-.2v-.3s1.8.6 1.8.6v.3s-.8-.2-.8-.2l-.7 2h-.3c0-.1.7-2.1.7-2.1z" fill="#00478d"/><path d="m189.1 100.8v-1.7c.1 0 .5.3.5.3v.6c0 .2-.1.6-.1.7.1 0 .5-.2.7-.2l.5-.2.3.3-1.6.5-.6.8-.3-.2.6-.8z" fill="#00478d"/><path d="m192.4 102.8.2.6c.2.5.2.9-.3 1.1-.3.1-.5 0-.7-.3 0 .2 0 .3-.2.4l-.7.7v-.4c-.1 0 .5-.6.5-.6.2-.2.2-.3 0-.6s-1 .3-1 .3v-.3c-.1 0 2.1-.9 2.1-.9zm-.7.8c.2.4.3.6.6.5s.3-.4.1-.8v-.2s-.8.3-.8.3v.2z" fill="#00478d"/><path d="m192.1 105.6c.8 0 1.2.5 1.2 1.2s-.5 1.1-1.3 1.1-1.2-.5-1.2-1.2.5-1.1 1.3-1.1zm-.1 1.9c.6 0 1-.3 1-.7 0-.5-.4-.8-.9-.8-.6 0-1 .3-1 .8s.3.8.9.8z" fill="#00478d"/><path d="m191.8 108.8c.7.4.9 1 .5 1.6-.3.6-1 .8-1.6.4-.7-.4-.9-1-.6-1.6s1-.8 1.6-.4zm-1 1.8c.5.3 1 .2 1.2-.2s0-.9-.5-1.1c-.5-.3-1-.2-1.2.3-.2.4 0 .9.5 1.1z" fill="#00478d"/><path d="m190.6 112.7-.5.3-1.4-.9s-.3-.2-.4-.3c0 .2.1.4.1.5l.4 1.6-.5.3-1.4-2 .3-.2.9 1.3s.2.3.3.5c0-.2 0-.4-.1-.5l-.4-1.8.3-.2 1.5 1s.3.2.4.3c-.1-.2-.3-.4-.3-.5l-.9-1.3.3-.2 1.4 2z" fill="#00478d"/><path d="m187 104.3c0-.4-.3-.7-.7-.7 0 0 0 0 0-.1 0-.5-.4-.9-.9-.9s-.1 0-.2 0c-.1-.3-.4-.5-.8-.5s-.6.2-.7.4c-.1 0-.3-.1-.4-.1-.4 0-.8.3-.8.8s0 .2 0 .3c-.4 0-.8.3-.8.8s.1.5.3.6v.2h4.6v-.2c.1-.1.2-.3.2-.5z" fill="none" stroke="#00478d" stroke-miterlimit="10" stroke-width=".3"/><path d="m188.4 107.7-1.2 1c-.2.1-.4 0-.4-.2v-2.9c0-.1.1-.3.3-.3h1.2c.1 0 .3.1.3.3v2 .2z" fill="none" stroke="#00478d" stroke-miterlimit="10" stroke-width=".8"/><path d="m181.8 104.8v4.7c0 .7.6 1.3 1.3 1.3h2.6c.7 0 1.3-.6 1.3-1.3v-4.7zm2.3 3c0 .2-.2.4-.4.4s-.4-.2-.4-.4.2-.4.4-.4.4.2.4.4zm-1.6-1.6c0-.3.3-.6.6-.6s.6.3.6.6-.3.6-.6.6-.6-.3-.6-.6zm.7 3.1c-.2 0-.3-.1-.3-.3s.1-.3.3-.3.3.1.3.3-.1.3-.3.3zm.7.9c-.2 0-.3-.1-.3-.3s.1-.3.3-.3.3.1.3.3-.1.3-.3.3z" fill="#00478d"/><circle cx="54" cy="246.1" fill="#afccd9" r="9.3"/><circle cx="54" cy="246.1" fill="none" r="6.1"/><path d="m49.8 253.5-.3-.2.3-2.6.3.2v.6s.9.6.9.6l.5-.4.3.2-2.1 1.5zm.2-1.6v.8c-.2.1-.2.3-.2.5s.3-.2.4-.3l.7-.5-.8-.5z" fill="#00478d"/><path d="m47.7 251.8-.8-1 .2-.2.6.7.6-.5-.6-.7.2-.2.6.7.8-.7.2.3-1.9 1.5z" fill="#00478d"/><path d="m46.4 249.1.3.7h-.3c0 .1-.6-1.6-.6-1.6h.3c0-.1.2.6.2.6l2-.7v.3c.1 0-1.8.7-1.8.7z" fill="#00478d"/><path d="m45.5 247v-1.3s.3 0 .3 0v1s.7 0 .7 0v-.9s.3 0 .3 0v.9s.8 0 .8 0v-1s.3 0 .3 0v1.4s-2.4 0-2.4 0z" fill="#00478d"/><path d="m45.7 244.2.2-.6c.2-.5.4-.8.9-.7.3.1.4.4.4.7.1-.1.2-.2.4-.2h1c0-.1-.1.3-.1.3h-.8c-.3.1-.4.2-.5.5s1 .4 1 .4v.3c-.1 0-2.4-.7-2.4-.7zm1.1-.2c.1-.4.1-.7-.2-.7s-.4.1-.5.5v.2s.7.2.7.2z" fill="#00478d"/><path d="m47.7 240.3.4-.4c.4-.4.8-.6 1.2-.1.4.4.1.9-.2 1.2h-.1c0 .1.7.8.7.8l-.3.2-1.6-1.8zm1.2.5c.3-.3.4-.5.2-.8-.2-.2-.5-.2-.8.1h-.1c0 .1.6.7.6.7z" fill="#00478d"/><path d="m50.5 238.4h.3c0-.1 1.9 1.7 1.9 1.7l-.4.2-.5-.5-1.1.5v.7s-.3.1-.3.1v-2.6zm1.2 1.1-.6-.6s-.2-.2-.3-.3v.5.8s.9-.4.9-.4z" fill="#00478d"/><path d="m53.1 237.6h.6c.6 0 .9.1.9.6 0 .3-.2.5-.5.6.2 0 .3.2.3.3l.4.9h-.4s-.4-.8-.4-.8c-.1-.2-.2-.3-.5-.3h-.1s0 1.1 0 1.1h-.3s0-2.4 0-2.4zm.5 1.1c.4 0 .7-.1.7-.4s-.2-.4-.7-.4h-.2s0 .7 0 .7h.2z" fill="#00478d"/><path d="m56.5 238.3-.7-.2v-.3s1.8.6 1.8.6v.3s-.8-.2-.8-.2l-.7 2h-.3c0-.1.7-2.1.7-2.1z" fill="#00478d"/><path d="m58.3 240.5v-1.7c.1 0 .5.3.5.3v.6c0 .2-.1.6-.1.7.1 0 .5-.2.7-.2l.5-.2.3.3-1.6.5-.6.8-.3-.2.6-.8z" fill="#00478d"/><path d="m61.7 242.4.2.6c.2.5.2.9-.3 1.1-.3.1-.5 0-.7-.3 0 .2 0 .3-.2.4l-.7.7v-.4c-.1 0 .5-.6.5-.6.2-.2.2-.3 0-.6s-1 .3-1 .3v-.3c-.1 0 2.1-.9 2.1-.9zm-.8.9c.2.4.3.6.6.5s.3-.4.1-.8v-.2s-.8.3-.8.3v.2z" fill="#00478d"/><path d="m61.3 245.2c.8 0 1.2.5 1.2 1.2s-.5 1.1-1.3 1.1-1.2-.5-1.2-1.2.5-1.1 1.3-1.1zm-.1 2c.6 0 1-.3 1-.7 0-.5-.4-.8-.9-.8-.6 0-1 .3-1 .8s.3.8.9.8z" fill="#00478d"/><path d="m61 248.5c.7.4.9 1 .5 1.6-.3.6-1 .8-1.6.4-.7-.4-.9-1-.6-1.6s1-.8 1.6-.5zm-.9 1.7c.5.3 1 .2 1.2-.2s0-.9-.5-1.2-1-.2-1.2.3c-.2.4 0 .9.5 1.1z" fill="#00478d"/><path d="m59.9 252.4-.5.3-1.4-.9s-.3-.2-.4-.3c0 .2.1.4.1.5l.4 1.6-.5.3-1.4-2 .3-.2.9 1.3s.2.3.3.5c0-.2 0-.4-.1-.5l-.4-1.8.3-.2 1.5 1s.3.2.4.3c-.1-.2-.3-.4-.3-.5l-.9-1.3.3-.2 1.4 2z" fill="#00478d"/><path d="m56.2 244c0-.4-.3-.7-.7-.7 0 0 0 0 0-.1 0-.5-.4-.9-.9-.9s-.1 0-.2 0c-.1-.3-.4-.5-.8-.5s-.6.2-.7.4c-.1 0-.3-.1-.4-.1-.4 0-.8.3-.8.8s0 .2 0 .3c-.4 0-.8.3-.8.8s.1.5.3.6v.2h4.6v-.2c.1-.1.2-.3.2-.5z" fill="none" stroke="#00478d" stroke-miterlimit="10" stroke-width=".3"/><path d="m57.6 247.3-1.2 1c-.2.1-.4 0-.4-.2v-2.9c0-.1.1-.3.3-.3h1.2c.1 0 .3.1.3.3v2 .2z" fill="none" stroke="#00478d" stroke-miterlimit="10" stroke-width=".8"/><path d="m51.1 244.5v4.7c0 .7.6 1.3 1.3 1.3h2.6c.7 0 1.3-.6 1.3-1.3v-4.7zm2.2 2.9c0 .2-.2.4-.4.4s-.4-.2-.4-.4.2-.4.4-.4.4.2.4.4zm-1.5-1.5c0-.3.3-.6.6-.6s.6.3.6.6-.3.6-.6.6-.6-.3-.6-.6zm.7 3.1c-.2 0-.3-.1-.3-.3s.1-.3.3-.3.3.1.3.3-.1.3-.3.3zm.6.9c-.2 0-.3-.1-.3-.3s.1-.3.3-.3.3.1.3.3-.1.3-.3.3z" fill="#00478d"/><circle cx="160.1" cy="246.1" fill="#afccd9" r="9.3"/><circle cx="160.1" cy="246.1" fill="none" r="6.1"/><path d="m155.9 253.5-.3-.2.4-2.6.3.2v.6s.9.6.9.6l.5-.4.3.2-2.1 1.5zm.2-1.6v.8c-.2.1-.2.3-.2.5s.3-.2.4-.3l.7-.5-.8-.5z" fill="#00478d"/><path d="m153.8 251.8-.8-1 .2-.2.6.7.6-.5-.6-.7.2-.2.6.7.8-.7.2.3-1.9 1.5z" fill="#00478d"/><path d="m152.5 249.1.3.7h-.3c0 .1-.6-1.6-.6-1.6h.3c0-.1.2.6.2.6l2-.7v.3c.1 0-1.8.7-1.8.7z" fill="#00478d"/><path d="m151.6 247v-1.3s.3 0 .3 0v1s.7 0 .7 0v-.9s.3 0 .3 0v.9s.8 0 .8 0v-1s.3 0 .3 0v1.4s-2.4 0-2.4 0z" fill="#00478d"/><path d="m151.8 244.2.2-.6c.2-.5.4-.8.9-.7.3.1.4.4.4.7.1-.1.2-.2.4-.2h1c0-.1-.1.3-.1.3h-.8c-.3.1-.4.2-.5.5s1 .4 1 .4v.3c-.1 0-2.4-.7-2.4-.7zm1.1-.2c.1-.4.1-.7-.2-.7s-.4.1-.5.5v.2s.7.2.7.2z" fill="#00478d"/><path d="m153.8 240.3.4-.4c.4-.4.8-.6 1.2-.1.4.4.1.9-.2 1.2h-.1c0 .1.7.8.7.8l-.3.2-1.6-1.8zm1.2.5c.3-.3.4-.5.2-.8-.2-.2-.5-.2-.8.1h-.1c0 .1.6.7.6.7z" fill="#00478d"/><path d="m156.6 238.4h.3c0-.1 1.9 1.7 1.9 1.7l-.4.2-.5-.5-1.1.5v.7s-.3.1-.3.1v-2.6zm1.1 1.1-.6-.6s-.2-.2-.3-.3v.5.8s.9-.4.9-.4z" fill="#00478d"/><path d="m159.2 237.6h.6c.6 0 .9.1.9.6 0 .3-.2.5-.5.6.2 0 .3.2.3.3l.4.9h-.4s-.4-.8-.4-.8c-.1-.2-.2-.3-.5-.3h-.1s0 1.1 0 1.1h-.3s0-2.4 0-2.4zm.5 1.1c.4 0 .7-.1.7-.4s-.2-.4-.7-.4h-.2s0 .7 0 .7h.2z" fill="#00478d"/><path d="m162.6 238.3-.7-.2v-.3s1.8.6 1.8.6v.3s-.8-.2-.8-.2l-.7 2h-.3c0-.1.7-2.1.7-2.1z" fill="#00478d"/><path d="m164.4 240.5v-1.7c.1 0 .5.3.5.3v.6c0 .2-.1.6-.1.7.1 0 .5-.2.7-.2l.5-.2.3.3-1.6.5-.6.8-.3-.2.6-.8z" fill="#00478d"/><path d="m167.8 242.4.2.6c.2.5.2.9-.3 1.1-.3.1-.5 0-.7-.3 0 .2 0 .3-.2.4l-.7.7v-.4c-.1 0 .5-.6.5-.6.2-.2.2-.3 0-.6s-1 .3-1 .3v-.3c-.1 0 2.1-.9 2.1-.9zm-.8.9c.2.4.3.6.6.5s.3-.4.1-.8v-.2s-.8.3-.8.3v.2z" fill="#00478d"/><path d="m167.4 245.2c.8 0 1.2.5 1.2 1.2s-.5 1.1-1.3 1.1-1.2-.5-1.2-1.2.5-1.1 1.3-1.1zm-.1 2c.6 0 1-.3 1-.7 0-.5-.4-.8-.9-.8-.6 0-1 .3-1 .8s.3.8.9.8z" fill="#00478d"/><path d="m167.1 248.5c.7.4.9 1 .5 1.6-.3.6-1 .8-1.6.4-.7-.4-.9-1-.6-1.6s1-.8 1.6-.5zm-.9 1.7c.5.3 1 .2 1.2-.2s0-.9-.5-1.2-1-.2-1.2.3c-.2.4 0 .9.5 1.1z" fill="#00478d"/><path d="m166 252.4-.5.3-1.4-.9s-.3-.2-.4-.3c0 .2.1.4.1.5l.4 1.6-.5.3-1.4-2 .3-.2.9 1.3s.2.3.3.5c0-.2 0-.4-.1-.5l-.4-1.8.3-.2 1.5 1s.3.2.4.3c-.1-.2-.3-.4-.3-.5l-.9-1.3.3-.2 1.4 2z" fill="#00478d"/><path d="m162.3 244c0-.4-.3-.7-.7-.7 0 0 0 0 0-.1 0-.5-.4-.9-.9-.9s-.1 0-.2 0c-.1-.3-.4-.5-.8-.5s-.6.2-.7.4c-.1 0-.3-.1-.4-.1-.4 0-.8.3-.8.8s0 .2 0 .3c-.4 0-.8.3-.8.8s.1.5.3.6v.2h4.6v-.2c.1-.1.2-.3.2-.5z" fill="none" stroke="#00478d" stroke-miterlimit="10" stroke-width=".3"/><path d="m163.7 247.3-1.2 1c-.2.1-.4 0-.4-.2v-2.9c0-.1.1-.3.3-.3h1.2c.1 0 .3.1.3.3v2 .2z" fill="none" stroke="#00478d" stroke-miterlimit="10" stroke-width=".8"/><path d="m157.1 244.5v4.7c0 .7.6 1.3 1.3 1.3h2.6c.7 0 1.3-.6 1.3-1.3v-4.7zm2.3 2.9c0 .2-.2.4-.4.4s-.4-.2-.4-.4.2-.4.4-.4.4.2.4.4zm-1.5-1.5c0-.3.3-.6.6-.6s.6.3.6.6-.3.6-.6.6-.6-.3-.6-.6zm.7 3.1c-.2 0-.3-.1-.3-.3s.1-.3.3-.3.3.1.3.3-.1.3-.3.3zm.6.9c-.2 0-.3-.1-.3-.3s.1-.3.3-.3.3.1.3.3-.1.3-.3.3z" fill="#00478d"/><path d="m329.9 333c9.1 0 16.5-7.4 16.5-16.5s-7.4-16.5-16.5-16.5-12.1 3.8-14.8 9.3c-1.1 2.2-1.7 4.7-1.7 7.3s-4.8 3.2-12.6 2.6c-1.9-.2 14.9 6 16.1 7.5 3 3.9 7.8 6.4 13.1 6.4z" fill="#d2b3d4"/><circle cx="329.9" cy="316.3" fill="none" r="10.2"/><path d="m319.6 313c.4-.2.6-.5.7-.8s0-.6-.3-.8c-.2-.1-.5 0-.9.4s-.8.5-1.2.4c-.5-.2-.7-.7-.4-1.3.1-.3.3-.5.4-.7l.6.2c-.3.2-.4.4-.5.6-.1.3 0 .5.1.6.2 0 .3 0 .5-.2.4-.4.8-.9 1.5-.6.6.3.7 1 .5 1.6-.1.3-.3.6-.5.8l-.6-.3z" fill="#231815"/><path d="m321.6 310.6-2.3-1.7-.6.8-.4-.3 1.5-2 .4.3-.6.8 2.3 1.7-.3.5z" fill="#231815"/><path d="m324 308.1-.7-.4-.9.8.3.8-.5.4-1.3-3.4.4-.4 3.2 1.7-.5.4zm-1.5-.8c-.3-.2-1-.6-1-.6s.3.7.4 1l.2.3.7-.6-.3-.2z" fill="#231815"/><path d="m327.4 306.5-.7-1.3c-.2-.3-.3-.6-.4-.9 0 .3.1.6.2 1v1.7s-.4.2-.4.2l-1.1-1.3c-.2-.2-.6-.9-.6-.9s.3.8.4 1.1l.4 1.5-.6.2-.8-3.3.5-.2 1.1 1.3c.2.2.4.5.6.8 0-.3 0-.7 0-1v-1.7s.4-.2.4-.2l1.7 2.9-.6.2z" fill="#231815"/><path d="m328.2 306.4-.2-3.3h1c.7-.1 1.1.3 1.1.8 0 .5-.3 1-1 1.1h-.4s0 1.4 0 1.4h-.6zm.9-1.9c.4 0 .5-.4.5-.6 0-.3-.2-.5-.5-.5h-.4s0 1.1 0 1.1z" fill="#231815"/><path d="m332.4 306.5-.6-1.6h-.3s-.3 1.4-.3 1.4h-.6c0-.1.6-3.4.6-3.4l1 .2c.7.1 1 .6.9 1.1 0 .2-.2.6-.7.7l.7 1.7h-.7zm-.5-2c.3 0 .5-.2.6-.4 0-.2 0-.5-.4-.5h-.4s-.2.8-.2.8h.4z" fill="#231815"/><path d="m335.1 307.7v-.8s-1-.5-1-.5l-.6.6-.6-.3 2.6-2.5.5.2-.3 3.6zm.2-1.7c0-.3.2-1.1.2-1.1s-.5.6-.8.8l-.3.3.8.4v-.3z" fill="#231815"/><path d="m335.8 308.1 2.2-2.5.4.4-1.9 2.1 1 .8-.3.4z" fill="#231815"/><path d="m337.4 309.6 2.7-2 .4.5-2.3 1.7.8 1-.4.3-1.1-1.5z" fill="#231815"/><path d="m338.8 311.6 1.3-.6 1.2-1.9.3.6-.8 1.3 1.6.2.3.6-2.2-.2-1.3.6-.3-.5z" fill="#231815"/><path d="m324.6 319.3v-5.9l5.2 2.9v6z" fill="#f8fcfd"/><path d="m324.7 313.5 5 2.9v5.7l-5-2.9zm-.2-.3v6.2l5.4 3.1s0 0 0 0v-6.2z" fill="#044a96"/><path d="m324.7 313.2 5.2-3 5.2 3-5.2 3z" fill="#f8fcfd"/><path d="m329.9 310.3 5 2.9-5 2.9-5-2.9zm0-.2-5.4 3.1 5.4 3.1s5.4-3.1 5.4-3.1z" fill="#044a96"/><path d="m330 316.3 5.2-2.9v5.9l-5.2 3z" fill="#f8fcfd"/><path d="m335.1 313.5v5.7l-5 2.9v-5.7zm.2-.3-5.4 3.1v6.2s5.4-3.1 5.4-3.1z" fill="#044a96"/><ellipse cx="329.8" cy="313.2" fill="#044a96" rx="2" ry="1.2"/><path d="m327.2 317.5c0-.2-.1-.4-.3-.6s-.3-.2-.4-.2l-.4-.8c.2 0 .5.1.9.5s.9 1.1.9 1.7-.7 0-.6.6l-.6-.6c0-.7.6-.3.6-.6zm-.6 1.2c0-.2.2-.3.4 0s.4.6.4.9-.2.3-.4 0-.4-.6-.4-.9z" fill="#044a96"/><circle cx="329.9" cy="316.3" fill="none" r="13"/><path d="m324 326.2-.9-.7.4-.6 1.5 1.2-1.2 1.6c-.6.1-1.3 0-2-.6-1.2-.9-1.4-2.4-.5-3.5.9-1.2 2.4-1.3 3.5-.4.4.3.8.7 1.1 1.2l-.6.8c-.1-.5-.4-1-.9-1.4-.8-.6-1.8-.4-2.4.4s-.5 1.8.2 2.4c.4.3.8.4 1.1.4l.5-.7z" fill="#231815"/><path d="m326.1 326.8c.2-1.4 1.3-2.4 2.8-2.2 1.4.2 2.3 1.4 2.1 2.8s-1.3 2.4-2.8 2.2-2.3-1.4-2.1-2.8zm4 .5c.1-1-.4-1.8-1.4-1.9-.9-.1-1.7.5-1.8 1.5s.4 1.8 1.4 1.9c.9.1 1.7-.5 1.8-1.5z" fill="#231815"/><path d="m335.6 328.4-.8-.9-1.7.6v1.2s-.9.3-.9.3v-5.1c.1 0 .8-.3.8-.3l3.3 3.9-.8.3zm-1.6-1.9c-.3-.4-1-1.3-1-1.3v1.6.5s1.2-.4 1.2-.4l-.3-.4z" fill="#231815"/><path d="m338 327-3.2-3.6.6-.6 2.7 3 1.4-1.2.5.5-2 1.8z" fill="#231815"/></svg>