<svg width="172" height="44" viewBox="0 0 172 44" fill="none" xmlns="http://www.w3.org/2000/svg">
<path fill-rule="evenodd" clip-rule="evenodd" d="M22.0163 9.641L34.6774 43.4574H25.2976L17.3418 22.1638L9.36136 43.4574H0L12.6549 9.641V0H22.0163V9.641ZM35.7162 19.9224C35.7162 25.4531 39.9052 29.2955 45.2255 30.2038L45.2502 30.1785L50.2853 31.1391C52.6973 31.575 53.5419 32.3945 53.5419 33.7388C53.5419 35.186 52.2365 36.3384 49.4392 36.3384C47.6412 36.3359 45.8707 35.8849 44.2794 35.024C42.6881 34.1632 41.3236 32.9182 40.3029 31.3959L34.9456 36.9662C36.5216 39.1971 38.6006 41.0011 41.0042 42.2232C43.4077 43.4453 46.0637 44.0489 48.7441 43.9821C56.1158 43.9821 62.034 39.6673 62.034 33.4185C62.034 27.1698 58.4892 23.6618 51.5923 22.4206L47.1228 21.6011C45.0221 21.2175 44.2268 20.4106 44.2268 19.2963C44.2268 17.7602 45.768 16.9027 47.9566 16.9027C49.4441 17.0015 50.8932 17.4304 52.2043 18.1599C53.5153 18.8894 54.6573 19.9022 55.5517 21.1287L60.9028 15.2176C59.3762 13.3122 57.4505 11.7864 55.2698 10.7542C53.089 9.72212 50.7096 9.21042 48.3095 9.25739C41.5466 9.25739 35.7162 13.3931 35.7162 19.9224ZM74.1912 30.2038C68.8832 29.2955 64.6819 25.4483 64.6819 19.9224C64.6819 13.3931 70.5123 9.25739 77.2752 9.25739C79.675 9.21066 82.0541 9.72248 84.2346 10.7546C86.415 11.7867 88.3405 13.3124 89.8669 15.2176L84.5096 21.1335C83.615 19.9048 82.4721 18.8902 81.1596 18.1596C79.8471 17.4289 78.3962 16.9996 76.9068 16.9011C74.7183 16.9011 73.1771 17.7587 73.1771 19.2947C73.1771 20.4043 73.9723 21.2159 76.0607 21.5995L80.5302 22.4191C87.4303 23.6602 90.972 27.1746 90.972 33.417C90.972 39.6594 85.0552 43.9805 77.682 43.9805C75.0012 44.0503 72.3441 43.448 69.9401 42.2257C67.5361 41.0034 65.4575 39.1977 63.8835 36.9646L69.2408 31.3943C70.2615 32.9166 71.6261 34.1616 73.2173 35.0224C74.8086 35.8833 76.5792 36.3343 78.3771 36.3368C81.1744 36.3368 82.4799 35.1844 82.4799 33.7372C82.4799 32.3929 81.6337 31.5734 79.2109 31.1375L74.1758 30.1769L74.1912 30.2038ZM103.44 9.79476H94.9499V43.4574H103.44V9.79476ZM131.66 20.883L136.968 15.262C135.412 13.3035 133.436 11.7422 131.196 10.7004C128.955 9.65867 126.51 9.16476 124.053 9.25739C121.832 9.20785 119.624 9.6234 117.564 10.4788C115.504 11.3341 113.634 12.6114 112.069 14.2331C110.504 15.8547 109.276 17.7867 108.46 19.9118C107.643 22.0368 107.255 24.3104 107.32 26.5944C107.32 36.4922 114.22 43.9821 123.866 43.9821C126.421 44.0972 128.971 43.656 131.349 42.6873C133.727 41.7186 135.879 40.2444 137.665 38.3611V24.4306H123.307V31.5877H129.697V34.5202C128.184 35.5727 126.388 36.11 124.563 36.0563C119.441 36.0563 116.086 31.7288 116.086 26.5944C116.086 21.46 119.542 17.1832 124.478 17.1832C125.879 17.139 127.268 17.4534 128.521 18.0981C129.774 18.7427 130.852 19.6976 131.657 20.8767L131.66 20.883ZM150.992 22.6378V43.4574H142.501V9.79476H153.453L163.471 30.6397V9.79476H172V43.4574H160.999L150.992 22.6378Z" fill="#D70C18"/>
</svg>
